ISO-10303-21;
HEADER;
/* Generated by software containing ST-Developer
 * from STEP Tools, Inc. (www.steptools.com) 
 */
/* OPTION: using custom renumber hook */

FILE_DESCRIPTION(
/* description */ ('STEP AP242 Edition 2',
'CAx-IF Rec.Pracs.---Representation and Presentation of Product Manufa
cturing Information (PMI)---4.0---2014-10-13',
'CAx-IF Rec.Pracs.---3D Tessellated Geometry---0.4---2014-09-14','2;1',
'CAx-IF Rec.Pracs.---User Defined Attributes---1.5---2016-08-15'),
/* implementation_level */ '2;1');

FILE_NAME(
/* name */ 'Part Studio 1 - Part 1',
/* time_stamp */ '2026-04-30T19:14:27Z',
/* author */ (''),
/* organization */ (''),
/* preprocessor_version */ 'ST-DEVELOPER v20',
/* originating_system */ 'ONSHAPE BY PTC INC, 1.214',
/* authorisation */ '  ');

FILE_SCHEMA (('AP242_MANAGED_MODEL_BASED_3D_ENGINEERING_MIM_LF { 1 0 10303 442 3 1 4 }'));
ENDSEC;

DATA;
#10=SHAPE_REPRESENTATION_RELATIONSHIP('','',#749,#11);
#11=ADVANCED_BREP_SHAPE_REPRESENTATION('',(#747),#1211);
#12=CYLINDRICAL_SURFACE('',#783,1.5);
#13=CYLINDRICAL_SURFACE('',#786,1.5);
#14=CYLINDRICAL_SURFACE('',#789,1.5);
#15=CYLINDRICAL_SURFACE('',#792,1.5);
#16=CYLINDRICAL_SURFACE('',#795,2.);
#17=CYLINDRICAL_SURFACE('',#796,2.);
#18=CYLINDRICAL_SURFACE('',#797,2.);
#19=CYLINDRICAL_SURFACE('',#798,2.);
#20=CIRCLE('',#761,1.5);
#21=CIRCLE('',#762,1.5);
#22=CIRCLE('',#763,1.5);
#23=CIRCLE('',#764,1.5);
#24=CIRCLE('',#765,2.);
#25=CIRCLE('',#766,2.);
#26=CIRCLE('',#767,2.);
#27=CIRCLE('',#768,2.);
#28=CIRCLE('',#772,2.);
#29=CIRCLE('',#773,2.);
#30=CIRCLE('',#774,2.);
#31=CIRCLE('',#775,2.);
#32=CIRCLE('',#784,1.5);
#33=CIRCLE('',#787,1.5);
#34=CIRCLE('',#790,1.5);
#35=CIRCLE('',#793,1.5);
#36=ORIENTED_EDGE('',*,*,#232,.F.);
#37=ORIENTED_EDGE('',*,*,#233,.T.);
#38=ORIENTED_EDGE('',*,*,#234,.T.);
#39=ORIENTED_EDGE('',*,*,#235,.F.);
#40=ORIENTED_EDGE('',*,*,#236,.T.);
#41=ORIENTED_EDGE('',*,*,#237,.T.);
#42=ORIENTED_EDGE('',*,*,#238,.F.);
#43=ORIENTED_EDGE('',*,*,#239,.F.);
#44=ORIENTED_EDGE('',*,*,#240,.F.);
#45=ORIENTED_EDGE('',*,*,#241,.T.);
#46=ORIENTED_EDGE('',*,*,#242,.T.);
#47=ORIENTED_EDGE('',*,*,#243,.T.);
#48=ORIENTED_EDGE('',*,*,#244,.T.);
#49=ORIENTED_EDGE('',*,*,#245,.T.);
#50=ORIENTED_EDGE('',*,*,#246,.F.);
#51=ORIENTED_EDGE('',*,*,#247,.F.);
#52=ORIENTED_EDGE('',*,*,#248,.F.);
#53=ORIENTED_EDGE('',*,*,#249,.F.);
#54=ORIENTED_EDGE('',*,*,#250,.T.);
#55=ORIENTED_EDGE('',*,*,#251,.T.);
#56=ORIENTED_EDGE('',*,*,#252,.F.);
#57=ORIENTED_EDGE('',*,*,#253,.F.);
#58=ORIENTED_EDGE('',*,*,#254,.T.);
#59=ORIENTED_EDGE('',*,*,#255,.F.);
#60=ORIENTED_EDGE('',*,*,#256,.T.);
#61=ORIENTED_EDGE('',*,*,#257,.T.);
#62=ORIENTED_EDGE('',*,*,#258,.F.);
#63=ORIENTED_EDGE('',*,*,#259,.T.);
#64=ORIENTED_EDGE('',*,*,#260,.F.);
#65=ORIENTED_EDGE('',*,*,#261,.T.);
#66=ORIENTED_EDGE('',*,*,#262,.T.);
#67=ORIENTED_EDGE('',*,*,#263,.F.);
#68=ORIENTED_EDGE('',*,*,#264,.F.);
#69=ORIENTED_EDGE('',*,*,#265,.F.);
#70=ORIENTED_EDGE('',*,*,#266,.F.);
#71=ORIENTED_EDGE('',*,*,#249,.T.);
#72=ORIENTED_EDGE('',*,*,#265,.T.);
#73=ORIENTED_EDGE('',*,*,#267,.T.);
#74=ORIENTED_EDGE('',*,*,#268,.F.);
#75=ORIENTED_EDGE('',*,*,#269,.F.);
#76=ORIENTED_EDGE('',*,*,#270,.T.);
#77=ORIENTED_EDGE('',*,*,#271,.F.);
#78=ORIENTED_EDGE('',*,*,#272,.F.);
#79=ORIENTED_EDGE('',*,*,#273,.T.);
#80=ORIENTED_EDGE('',*,*,#274,.F.);
#81=ORIENTED_EDGE('',*,*,#275,.F.);
#82=ORIENTED_EDGE('',*,*,#272,.T.);
#83=ORIENTED_EDGE('',*,*,#276,.T.);
#84=ORIENTED_EDGE('',*,*,#277,.F.);
#85=ORIENTED_EDGE('',*,*,#278,.T.);
#86=ORIENTED_EDGE('',*,*,#279,.T.);
#87=ORIENTED_EDGE('',*,*,#280,.F.);
#88=ORIENTED_EDGE('',*,*,#234,.F.);
#89=ORIENTED_EDGE('',*,*,#281,.T.);
#90=ORIENTED_EDGE('',*,*,#282,.F.);
#91=ORIENTED_EDGE('',*,*,#276,.F.);
#92=ORIENTED_EDGE('',*,*,#271,.T.);
#93=ORIENTED_EDGE('',*,*,#283,.F.);
#94=ORIENTED_EDGE('',*,*,#252,.T.);
#95=ORIENTED_EDGE('',*,*,#284,.T.);
#96=ORIENTED_EDGE('',*,*,#285,.F.);
#97=ORIENTED_EDGE('',*,*,#280,.T.);
#98=ORIENTED_EDGE('',*,*,#286,.T.);
#99=ORIENTED_EDGE('',*,*,#287,.F.);
#100=ORIENTED_EDGE('',*,*,#288,.F.);
#101=ORIENTED_EDGE('',*,*,#289,.F.);
#102=ORIENTED_EDGE('',*,*,#290,.F.);
#103=ORIENTED_EDGE('',*,*,#291,.F.);
#104=ORIENTED_EDGE('',*,*,#278,.F.);
#105=ORIENTED_EDGE('',*,*,#292,.T.);
#106=ORIENTED_EDGE('',*,*,#293,.F.);
#107=ORIENTED_EDGE('',*,*,#250,.F.);
#108=ORIENTED_EDGE('',*,*,#266,.T.);
#109=ORIENTED_EDGE('',*,*,#273,.F.);
#110=ORIENTED_EDGE('',*,*,#275,.T.);
#111=ORIENTED_EDGE('',*,*,#294,.T.);
#112=ORIENTED_EDGE('',*,*,#295,.F.);
#113=ORIENTED_EDGE('',*,*,#232,.T.);
#114=ORIENTED_EDGE('',*,*,#296,.T.);
#115=ORIENTED_EDGE('',*,*,#297,.F.);
#116=ORIENTED_EDGE('',*,*,#242,.F.);
#117=ORIENTED_EDGE('',*,*,#298,.T.);
#118=ORIENTED_EDGE('',*,*,#299,.T.);
#119=ORIENTED_EDGE('',*,*,#300,.T.);
#120=ORIENTED_EDGE('',*,*,#258,.T.);
#121=ORIENTED_EDGE('',*,*,#301,.T.);
#122=ORIENTED_EDGE('',*,*,#302,.F.);
#123=ORIENTED_EDGE('',*,*,#303,.T.);
#124=ORIENTED_EDGE('',*,*,#299,.F.);
#125=ORIENTED_EDGE('',*,*,#304,.T.);
#126=ORIENTED_EDGE('',*,*,#305,.T.);
#127=ORIENTED_EDGE('',*,*,#306,.T.);
#128=ORIENTED_EDGE('',*,*,#307,.F.);
#129=ORIENTED_EDGE('',*,*,#308,.T.);
#130=ORIENTED_EDGE('',*,*,#302,.T.);
#131=ORIENTED_EDGE('',*,*,#309,.T.);
#132=ORIENTED_EDGE('',*,*,#305,.F.);
#133=ORIENTED_EDGE('',*,*,#310,.T.);
#134=ORIENTED_EDGE('',*,*,#240,.T.);
#135=ORIENTED_EDGE('',*,*,#311,.T.);
#136=ORIENTED_EDGE('',*,*,#307,.T.);
#137=ORIENTED_EDGE('',*,*,#312,.T.);
#138=ORIENTED_EDGE('',*,*,#256,.F.);
#139=ORIENTED_EDGE('',*,*,#313,.T.);
#140=ORIENTED_EDGE('',*,*,#270,.F.);
#141=ORIENTED_EDGE('',*,*,#314,.T.);
#142=ORIENTED_EDGE('',*,*,#253,.T.);
#143=ORIENTED_EDGE('',*,*,#283,.T.);
#144=ORIENTED_EDGE('',*,*,#287,.T.);
#145=ORIENTED_EDGE('',*,*,#315,.F.);
#146=ORIENTED_EDGE('',*,*,#296,.F.);
#147=ORIENTED_EDGE('',*,*,#235,.T.);
#148=ORIENTED_EDGE('',*,*,#286,.F.);
#149=ORIENTED_EDGE('',*,*,#279,.F.);
#150=ORIENTED_EDGE('',*,*,#297,.T.);
#151=ORIENTED_EDGE('',*,*,#315,.T.);
#152=ORIENTED_EDGE('',*,*,#284,.F.);
#153=ORIENTED_EDGE('',*,*,#251,.F.);
#154=ORIENTED_EDGE('',*,*,#293,.T.);
#155=ORIENTED_EDGE('',*,*,#316,.T.);
#156=ORIENTED_EDGE('',*,*,#285,.T.);
#157=ORIENTED_EDGE('',*,*,#316,.F.);
#158=ORIENTED_EDGE('',*,*,#292,.F.);
#159=ORIENTED_EDGE('',*,*,#277,.T.);
#160=ORIENTED_EDGE('',*,*,#281,.F.);
#161=ORIENTED_EDGE('',*,*,#233,.F.);
#162=ORIENTED_EDGE('',*,*,#295,.T.);
#163=ORIENTED_EDGE('',*,*,#317,.T.);
#164=ORIENTED_EDGE('',*,*,#282,.T.);
#165=ORIENTED_EDGE('',*,*,#317,.F.);
#166=ORIENTED_EDGE('',*,*,#294,.F.);
#167=ORIENTED_EDGE('',*,*,#274,.T.);
#168=ORIENTED_EDGE('',*,*,#318,.F.);
#169=ORIENTED_EDGE('',*,*,#291,.T.);
#170=ORIENTED_EDGE('',*,*,#318,.T.);
#171=ORIENTED_EDGE('',*,*,#319,.F.);
#172=ORIENTED_EDGE('',*,*,#290,.T.);
#173=ORIENTED_EDGE('',*,*,#319,.T.);
#174=ORIENTED_EDGE('',*,*,#320,.F.);
#175=ORIENTED_EDGE('',*,*,#289,.T.);
#176=ORIENTED_EDGE('',*,*,#320,.T.);
#177=ORIENTED_EDGE('',*,*,#321,.F.);
#178=ORIENTED_EDGE('',*,*,#288,.T.);
#179=ORIENTED_EDGE('',*,*,#321,.T.);
#180=ORIENTED_EDGE('',*,*,#310,.F.);
#181=ORIENTED_EDGE('',*,*,#304,.F.);
#182=ORIENTED_EDGE('',*,*,#298,.F.);
#183=ORIENTED_EDGE('',*,*,#241,.F.);
#184=ORIENTED_EDGE('',*,*,#311,.F.);
#185=ORIENTED_EDGE('',*,*,#243,.F.);
#186=ORIENTED_EDGE('',*,*,#303,.F.);
#187=ORIENTED_EDGE('',*,*,#308,.F.);
#188=ORIENTED_EDGE('',*,*,#312,.F.);
#189=ORIENTED_EDGE('',*,*,#309,.F.);
#190=ORIENTED_EDGE('',*,*,#301,.F.);
#191=ORIENTED_EDGE('',*,*,#257,.F.);
#192=ORIENTED_EDGE('',*,*,#313,.F.);
#193=ORIENTED_EDGE('',*,*,#259,.F.);
#194=ORIENTED_EDGE('',*,*,#300,.F.);
#195=ORIENTED_EDGE('',*,*,#306,.F.);
#196=ORIENTED_EDGE('',*,*,#255,.T.);
#197=ORIENTED_EDGE('',*,*,#322,.T.);
#198=ORIENTED_EDGE('',*,*,#262,.F.);
#199=ORIENTED_EDGE('',*,*,#323,.F.);
#200=ORIENTED_EDGE('',*,*,#248,.T.);
#201=ORIENTED_EDGE('',*,*,#323,.T.);
#202=ORIENTED_EDGE('',*,*,#261,.F.);
#203=ORIENTED_EDGE('',*,*,#324,.F.);
#204=ORIENTED_EDGE('',*,*,#267,.F.);
#205=ORIENTED_EDGE('',*,*,#264,.T.);
#206=ORIENTED_EDGE('',*,*,#314,.F.);
#207=ORIENTED_EDGE('',*,*,#269,.T.);
#208=ORIENTED_EDGE('',*,*,#325,.T.);
#209=ORIENTED_EDGE('',*,*,#263,.T.);
#210=ORIENTED_EDGE('',*,*,#322,.F.);
#211=ORIENTED_EDGE('',*,*,#254,.F.);
#212=ORIENTED_EDGE('',*,*,#268,.T.);
#213=ORIENTED_EDGE('',*,*,#324,.T.);
#214=ORIENTED_EDGE('',*,*,#260,.T.);
#215=ORIENTED_EDGE('',*,*,#325,.F.);
#216=ORIENTED_EDGE('',*,*,#326,.T.);
#217=ORIENTED_EDGE('',*,*,#244,.F.);
#218=ORIENTED_EDGE('',*,*,#327,.F.);
#219=ORIENTED_EDGE('',*,*,#237,.F.);
#220=ORIENTED_EDGE('',*,*,#238,.T.);
#221=ORIENTED_EDGE('',*,*,#327,.T.);
#222=ORIENTED_EDGE('',*,*,#247,.T.);
#223=ORIENTED_EDGE('',*,*,#328,.F.);
#224=ORIENTED_EDGE('',*,*,#239,.T.);
#225=ORIENTED_EDGE('',*,*,#328,.T.);
#226=ORIENTED_EDGE('',*,*,#246,.T.);
#227=ORIENTED_EDGE('',*,*,#329,.F.);
#228=ORIENTED_EDGE('',*,*,#329,.T.);
#229=ORIENTED_EDGE('',*,*,#245,.F.);
#230=ORIENTED_EDGE('',*,*,#326,.F.);
#231=ORIENTED_EDGE('',*,*,#236,.F.);
#232=EDGE_CURVE('',#330,#331,#398,.T.);
#233=EDGE_CURVE('',#330,#332,#399,.T.);
#234=EDGE_CURVE('',#332,#333,#400,.T.);
#235=EDGE_CURVE('',#331,#333,#401,.T.);
#236=EDGE_CURVE('',#334,#335,#402,.T.);
#237=EDGE_CURVE('',#335,#336,#403,.T.);
#238=EDGE_CURVE('',#337,#336,#404,.T.);
#239=EDGE_CURVE('',#334,#337,#405,.T.);
#240=EDGE_CURVE('',#338,#339,#406,.T.);
#241=EDGE_CURVE('',#338,#340,#407,.T.);
#242=EDGE_CURVE('',#340,#341,#408,.T.);
#243=EDGE_CURVE('',#341,#339,#409,.F.);
#244=EDGE_CURVE('',#342,#343,#410,.T.);
#245=EDGE_CURVE('',#343,#344,#411,.T.);
#246=EDGE_CURVE('',#345,#344,#412,.T.);
#247=EDGE_CURVE('',#342,#345,#413,.T.);
#248=EDGE_CURVE('',#346,#347,#414,.T.);
#249=EDGE_CURVE('',#348,#346,#415,.T.);
#250=EDGE_CURVE('',#348,#349,#416,.T.);
#251=EDGE_CURVE('',#349,#350,#417,.T.);
#252=EDGE_CURVE('',#351,#350,#418,.T.);
#253=EDGE_CURVE('',#352,#351,#419,.T.);
#254=EDGE_CURVE('',#352,#353,#420,.T.);
#255=EDGE_CURVE('',#347,#353,#421,.T.);
#256=EDGE_CURVE('',#354,#355,#422,.T.);
#257=EDGE_CURVE('',#355,#356,#423,.T.);
#258=EDGE_CURVE('',#357,#356,#424,.T.);
#259=EDGE_CURVE('',#357,#354,#425,.F.);
#260=EDGE_CURVE('',#358,#359,#426,.T.);
#261=EDGE_CURVE('',#358,#360,#427,.T.);
#262=EDGE_CURVE('',#360,#361,#428,.T.);
#263=EDGE_CURVE('',#359,#361,#429,.T.);
#264=EDGE_CURVE('',#362,#346,#430,.T.);
#265=EDGE_CURVE('',#363,#362,#431,.T.);
#266=EDGE_CURVE('',#348,#363,#432,.T.);
#267=EDGE_CURVE('',#362,#364,#433,.T.);
#268=EDGE_CURVE('',#365,#364,#434,.T.);
#269=EDGE_CURVE('',#366,#365,#435,.T.);
#270=EDGE_CURVE('',#366,#367,#436,.T.);
#271=EDGE_CURVE('',#368,#367,#437,.T.);
#272=EDGE_CURVE('',#369,#368,#438,.T.);
#273=EDGE_CURVE('',#369,#363,#439,.T.);
#274=EDGE_CURVE('',#370,#371,#440,.T.);
#275=EDGE_CURVE('',#369,#370,#441,.T.);
#276=EDGE_CURVE('',#368,#371,#442,.T.);
#277=EDGE_CURVE('',#372,#373,#443,.T.);
#278=EDGE_CURVE('',#372,#374,#444,.T.);
#279=EDGE_CURVE('',#374,#375,#445,.T.);
#280=EDGE_CURVE('',#373,#375,#446,.T.);
#281=EDGE_CURVE('',#332,#376,#447,.T.);
#282=EDGE_CURVE('',#371,#376,#448,.T.);
#283=EDGE_CURVE('',#351,#367,#449,.T.);
#284=EDGE_CURVE('',#350,#377,#450,.T.);
#285=EDGE_CURVE('',#373,#377,#451,.T.);
#286=EDGE_CURVE('',#375,#378,#452,.T.);
#287=EDGE_CURVE('',#333,#378,#453,.T.);
#288=EDGE_CURVE('',#379,#379,#20,.T.);
#289=EDGE_CURVE('',#380,#380,#21,.T.);
#290=EDGE_CURVE('',#381,#381,#22,.T.);
#291=EDGE_CURVE('',#382,#382,#23,.T.);
#292=EDGE_CURVE('',#372,#383,#454,.T.);
#293=EDGE_CURVE('',#349,#383,#455,.T.);
#294=EDGE_CURVE('',#370,#384,#456,.T.);
#295=EDGE_CURVE('',#330,#384,#457,.T.);
#296=EDGE_CURVE('',#331,#385,#458,.T.);
#297=EDGE_CURVE('',#374,#385,#459,.T.);
#298=EDGE_CURVE('',#340,#386,#24,.F.);
#299=EDGE_CURVE('',#386,#387,#460,.T.);
#300=EDGE_CURVE('',#387,#357,#25,.F.);
#301=EDGE_CURVE('',#356,#388,#26,.F.);
#302=EDGE_CURVE('',#389,#388,#461,.T.);
#303=EDGE_CURVE('',#389,#341,#27,.F.);
#304=EDGE_CURVE('',#386,#390,#462,.F.);
#305=EDGE_CURVE('',#390,#391,#463,.T.);
#306=EDGE_CURVE('',#391,#387,#464,.T.);
#307=EDGE_CURVE('',#392,#393,#465,.T.);
#308=EDGE_CURVE('',#392,#389,#466,.T.);
#309=EDGE_CURVE('',#388,#393,#467,.F.);
#310=EDGE_CURVE('',#390,#338,#28,.T.);
#311=EDGE_CURVE('',#339,#392,#29,.T.);
#312=EDGE_CURVE('',#393,#355,#30,.T.);
#313=EDGE_CURVE('',#354,#391,#31,.T.);
#314=EDGE_CURVE('',#366,#352,#468,.T.);
#315=EDGE_CURVE('',#385,#378,#469,.T.);
#316=EDGE_CURVE('',#383,#377,#470,.T.);
#317=EDGE_CURVE('',#384,#376,#471,.T.);
#318=EDGE_CURVE('',#394,#394,#32,.T.);
#319=EDGE_CURVE('',#395,#395,#33,.T.);
#320=EDGE_CURVE('',#396,#396,#34,.T.);
#321=EDGE_CURVE('',#397,#397,#35,.T.);
#322=EDGE_CURVE('',#353,#361,#472,.T.);
#323=EDGE_CURVE('',#347,#360,#473,.T.);
#324=EDGE_CURVE('',#364,#358,#474,.T.);
#325=EDGE_CURVE('',#365,#359,#475,.T.);
#326=EDGE_CURVE('',#335,#343,#476,.T.);
#327=EDGE_CURVE('',#336,#342,#477,.T.);
#328=EDGE_CURVE('',#337,#345,#478,.T.);
#329=EDGE_CURVE('',#334,#344,#479,.T.);
#330=VERTEX_POINT('',#1006);
#331=VERTEX_POINT('',#1007);
#332=VERTEX_POINT('',#1009);
#333=VERTEX_POINT('',#1011);
#334=VERTEX_POINT('',#1014);
#335=VERTEX_POINT('',#1015);
#336=VERTEX_POINT('',#1017);
#337=VERTEX_POINT('',#1019);
#338=VERTEX_POINT('',#1023);
#339=VERTEX_POINT('',#1024);
#340=VERTEX_POINT('',#1026);
#341=VERTEX_POINT('',#1028);
#342=VERTEX_POINT('',#1031);
#343=VERTEX_POINT('',#1032);
#344=VERTEX_POINT('',#1034);
#345=VERTEX_POINT('',#1036);
#346=VERTEX_POINT('',#1040);
#347=VERTEX_POINT('',#1041);
#348=VERTEX_POINT('',#1043);
#349=VERTEX_POINT('',#1045);
#350=VERTEX_POINT('',#1047);
#351=VERTEX_POINT('',#1049);
#352=VERTEX_POINT('',#1051);
#353=VERTEX_POINT('',#1053);
#354=VERTEX_POINT('',#1057);
#355=VERTEX_POINT('',#1058);
#356=VERTEX_POINT('',#1060);
#357=VERTEX_POINT('',#1062);
#358=VERTEX_POINT('',#1065);
#359=VERTEX_POINT('',#1066);
#360=VERTEX_POINT('',#1068);
#361=VERTEX_POINT('',#1070);
#362=VERTEX_POINT('',#1074);
#363=VERTEX_POINT('',#1076);
#364=VERTEX_POINT('',#1080);
#365=VERTEX_POINT('',#1082);
#366=VERTEX_POINT('',#1084);
#367=VERTEX_POINT('',#1086);
#368=VERTEX_POINT('',#1088);
#369=VERTEX_POINT('',#1090);
#370=VERTEX_POINT('',#1094);
#371=VERTEX_POINT('',#1095);
#372=VERTEX_POINT('',#1100);
#373=VERTEX_POINT('',#1101);
#374=VERTEX_POINT('',#1103);
#375=VERTEX_POINT('',#1105);
#376=VERTEX_POINT('',#1109);
#377=VERTEX_POINT('',#1113);
#378=VERTEX_POINT('',#1116);
#379=VERTEX_POINT('',#1120);
#380=VERTEX_POINT('',#1122);
#381=VERTEX_POINT('',#1124);
#382=VERTEX_POINT('',#1126);
#383=VERTEX_POINT('',#1128);
#384=VERTEX_POINT('',#1131);
#385=VERTEX_POINT('',#1134);
#386=VERTEX_POINT('',#1137);
#387=VERTEX_POINT('',#1139);
#388=VERTEX_POINT('',#1142);
#389=VERTEX_POINT('',#1144);
#390=VERTEX_POINT('',#1148);
#391=VERTEX_POINT('',#1150);
#392=VERTEX_POINT('',#1154);
#393=VERTEX_POINT('',#1155);
#394=VERTEX_POINT('',#1176);
#395=VERTEX_POINT('',#1180);
#396=VERTEX_POINT('',#1184);
#397=VERTEX_POINT('',#1188);
#398=LINE('',#1005,#480);
#399=LINE('',#1008,#481);
#400=LINE('',#1010,#482);
#401=LINE('',#1012,#483);
#402=LINE('',#1013,#484);
#403=LINE('',#1016,#485);
#404=LINE('',#1018,#486);
#405=LINE('',#1020,#487);
#406=LINE('',#1022,#488);
#407=LINE('',#1025,#489);
#408=LINE('',#1027,#490);
#409=LINE('',#1029,#491);
#410=LINE('',#1030,#492);
#411=LINE('',#1033,#493);
#412=LINE('',#1035,#494);
#413=LINE('',#1037,#495);
#414=LINE('',#1039,#496);
#415=LINE('',#1042,#497);
#416=LINE('',#1044,#498);
#417=LINE('',#1046,#499);
#418=LINE('',#1048,#500);
#419=LINE('',#1050,#501);
#420=LINE('',#1052,#502);
#421=LINE('',#1054,#503);
#422=LINE('',#1056,#504);
#423=LINE('',#1059,#505);
#424=LINE('',#1061,#506);
#425=LINE('',#1063,#507);
#426=LINE('',#1064,#508);
#427=LINE('',#1067,#509);
#428=LINE('',#1069,#510);
#429=LINE('',#1071,#511);
#430=LINE('',#1073,#512);
#431=LINE('',#1075,#513);
#432=LINE('',#1077,#514);
#433=LINE('',#1079,#515);
#434=LINE('',#1081,#516);
#435=LINE('',#1083,#517);
#436=LINE('',#1085,#518);
#437=LINE('',#1087,#519);
#438=LINE('',#1089,#520);
#439=LINE('',#1091,#521);
#440=LINE('',#1093,#522);
#441=LINE('',#1096,#523);
#442=LINE('',#1097,#524);
#443=LINE('',#1099,#525);
#444=LINE('',#1102,#526);
#445=LINE('',#1104,#527);
#446=LINE('',#1106,#528);
#447=LINE('',#1108,#529);
#448=LINE('',#1110,#530);
#449=LINE('',#1111,#531);
#450=LINE('',#1112,#532);
#451=LINE('',#1114,#533);
#452=LINE('',#1115,#534);
#453=LINE('',#1117,#535);
#454=LINE('',#1127,#536);
#455=LINE('',#1129,#537);
#456=LINE('',#1130,#538);
#457=LINE('',#1132,#539);
#458=LINE('',#1133,#540);
#459=LINE('',#1135,#541);
#460=LINE('',#1138,#542);
#461=LINE('',#1143,#543);
#462=LINE('',#1147,#544);
#463=LINE('',#1149,#545);
#464=LINE('',#1151,#546);
#465=LINE('',#1153,#547);
#466=LINE('',#1156,#548);
#467=LINE('',#1157,#549);
#468=LINE('',#1164,#550);
#469=LINE('',#1166,#551);
#470=LINE('',#1169,#552);
#471=LINE('',#1172,#553);
#472=LINE('',#1195,#554);
#473=LINE('',#1196,#555);
#474=LINE('',#1198,#556);
#475=LINE('',#1200,#557);
#476=LINE('',#1203,#558);
#477=LINE('',#1204,#559);
#478=LINE('',#1206,#560);
#479=LINE('',#1208,#561);
#480=VECTOR('',#811,1000.);
#481=VECTOR('',#812,1000.);
#482=VECTOR('',#813,1000.);
#483=VECTOR('',#814,1000.);
#484=VECTOR('',#815,1000.);
#485=VECTOR('',#816,1000.);
#486=VECTOR('',#817,1000.);
#487=VECTOR('',#818,1000.);
#488=VECTOR('',#821,1000.);
#489=VECTOR('',#822,1000.);
#490=VECTOR('',#823,1000.);
#491=VECTOR('',#824,1000.);
#492=VECTOR('',#825,1000.);
#493=VECTOR('',#826,1000.);
#494=VECTOR('',#827,1000.);
#495=VECTOR('',#828,1000.);
#496=VECTOR('',#831,1000.);
#497=VECTOR('',#832,1000.);
#498=VECTOR('',#833,1000.);
#499=VECTOR('',#834,1000.);
#500=VECTOR('',#835,1000.);
#501=VECTOR('',#836,1000.);
#502=VECTOR('',#837,1000.);
#503=VECTOR('',#838,1000.);
#504=VECTOR('',#841,1000.);
#505=VECTOR('',#842,1000.);
#506=VECTOR('',#843,1000.);
#507=VECTOR('',#844,1000.);
#508=VECTOR('',#845,1000.);
#509=VECTOR('',#846,1000.);
#510=VECTOR('',#847,1000.);
#511=VECTOR('',#848,1000.);
#512=VECTOR('',#851,1000.);
#513=VECTOR('',#852,1000.);
#514=VECTOR('',#853,1000.);
#515=VECTOR('',#856,1000.);
#516=VECTOR('',#857,1000.);
#517=VECTOR('',#858,1000.);
#518=VECTOR('',#859,1000.);
#519=VECTOR('',#860,1000.);
#520=VECTOR('',#861,1000.);
#521=VECTOR('',#862,1000.);
#522=VECTOR('',#865,1000.);
#523=VECTOR('',#866,1000.);
#524=VECTOR('',#867,1000.);
#525=VECTOR('',#870,1000.);
#526=VECTOR('',#871,1000.);
#527=VECTOR('',#872,1000.);
#528=VECTOR('',#873,1000.);
#529=VECTOR('',#876,1000.);
#530=VECTOR('',#877,1000.);
#531=VECTOR('',#878,1000.);
#532=VECTOR('',#879,1000.);
#533=VECTOR('',#880,1000.);
#534=VECTOR('',#881,1000.);
#535=VECTOR('',#882,1000.);
#536=VECTOR('',#893,1000.);
#537=VECTOR('',#894,1000.);
#538=VECTOR('',#895,1000.);
#539=VECTOR('',#896,1000.);
#540=VECTOR('',#897,1000.);
#541=VECTOR('',#898,1000.);
#542=VECTOR('',#901,1000.);
#543=VECTOR('',#906,1000.);
#544=VECTOR('',#911,1000.);
#545=VECTOR('',#912,1000.);
#546=VECTOR('',#913,1000.);
#547=VECTOR('',#916,1000.);
#548=VECTOR('',#917,1000.);
#549=VECTOR('',#918,1000.);
#550=VECTOR('',#931,1000.);
#551=VECTOR('',#934,1000.);
#552=VECTOR('',#939,1000.);
#553=VECTOR('',#944,1000.);
#554=VECTOR('',#981,1000.);
#555=VECTOR('',#982,1000.);
#556=VECTOR('',#985,1000.);
#557=VECTOR('',#988,1000.);
#558=VECTOR('',#993,1000.);
#559=VECTOR('',#994,1000.);
#560=VECTOR('',#997,1000.);
#561=VECTOR('',#1000,1000.);
#562=EDGE_LOOP('',(#36,#37,#38,#39));
#563=EDGE_LOOP('',(#40,#41,#42,#43));
#564=EDGE_LOOP('',(#44,#45,#46,#47));
#565=EDGE_LOOP('',(#48,#49,#50,#51));
#566=EDGE_LOOP('',(#52,#53,#54,#55,#56,#57,#58,#59));
#567=EDGE_LOOP('',(#60,#61,#62,#63));
#568=EDGE_LOOP('',(#64,#65,#66,#67));
#569=EDGE_LOOP('',(#68,#69,#70,#71));
#570=EDGE_LOOP('',(#72,#73,#74,#75,#76,#77,#78,#79));
#571=EDGE_LOOP('',(#80,#81,#82,#83));
#572=EDGE_LOOP('',(#84,#85,#86,#87));
#573=EDGE_LOOP('',(#88,#89,#90,#91,#92,#93,#94,#95,#96,#97,#98,#99));
#574=EDGE_LOOP('',(#100));
#575=EDGE_LOOP('',(#101));
#576=EDGE_LOOP('',(#102));
#577=EDGE_LOOP('',(#103));
#578=EDGE_LOOP('',(#104,#105,#106,#107,#108,#109,#110,#111,#112,#113,#114,
#115));
#579=EDGE_LOOP('',(#116,#117,#118,#119,#120,#121,#122,#123));
#580=EDGE_LOOP('',(#124,#125,#126,#127));
#581=EDGE_LOOP('',(#128,#129,#130,#131));
#582=EDGE_LOOP('',(#132,#133,#134,#135,#136,#137,#138,#139));
#583=EDGE_LOOP('',(#140,#141,#142,#143));
#584=EDGE_LOOP('',(#144,#145,#146,#147));
#585=EDGE_LOOP('',(#148,#149,#150,#151));
#586=EDGE_LOOP('',(#152,#153,#154,#155));
#587=EDGE_LOOP('',(#156,#157,#158,#159));
#588=EDGE_LOOP('',(#160,#161,#162,#163));
#589=EDGE_LOOP('',(#164,#165,#166,#167));
#590=EDGE_LOOP('',(#168));
#591=EDGE_LOOP('',(#169));
#592=EDGE_LOOP('',(#170));
#593=EDGE_LOOP('',(#171));
#594=EDGE_LOOP('',(#172));
#595=EDGE_LOOP('',(#173));
#596=EDGE_LOOP('',(#174));
#597=EDGE_LOOP('',(#175));
#598=EDGE_LOOP('',(#176));
#599=EDGE_LOOP('',(#177));
#600=EDGE_LOOP('',(#178));
#601=EDGE_LOOP('',(#179));
#602=EDGE_LOOP('',(#180,#181,#182,#183));
#603=EDGE_LOOP('',(#184,#185,#186,#187));
#604=EDGE_LOOP('',(#188,#189,#190,#191));
#605=EDGE_LOOP('',(#192,#193,#194,#195));
#606=EDGE_LOOP('',(#196,#197,#198,#199));
#607=EDGE_LOOP('',(#200,#201,#202,#203,#204,#205));
#608=EDGE_LOOP('',(#206,#207,#208,#209,#210,#211));
#609=EDGE_LOOP('',(#212,#213,#214,#215));
#610=EDGE_LOOP('',(#216,#217,#218,#219));
#611=EDGE_LOOP('',(#220,#221,#222,#223));
#612=EDGE_LOOP('',(#224,#225,#226,#227));
#613=EDGE_LOOP('',(#228,#229,#230,#231));
#614=FACE_BOUND('',#562,.T.);
#615=FACE_BOUND('',#563,.T.);
#616=FACE_BOUND('',#564,.T.);
#617=FACE_BOUND('',#565,.T.);
#618=FACE_BOUND('',#566,.T.);
#619=FACE_BOUND('',#567,.T.);
#620=FACE_BOUND('',#568,.T.);
#621=FACE_BOUND('',#569,.T.);
#622=FACE_BOUND('',#570,.T.);
#623=FACE_BOUND('',#571,.T.);
#624=FACE_BOUND('',#572,.T.);
#625=FACE_BOUND('',#573,.T.);
#626=FACE_BOUND('',#574,.T.);
#627=FACE_BOUND('',#575,.T.);
#628=FACE_BOUND('',#576,.T.);
#629=FACE_BOUND('',#577,.T.);
#630=FACE_BOUND('',#578,.T.);
#631=FACE_BOUND('',#579,.T.);
#632=FACE_BOUND('',#580,.T.);
#633=FACE_BOUND('',#581,.T.);
#634=FACE_BOUND('',#582,.T.);
#635=FACE_BOUND('',#583,.T.);
#636=FACE_BOUND('',#584,.T.);
#637=FACE_BOUND('',#585,.T.);
#638=FACE_BOUND('',#586,.T.);
#639=FACE_BOUND('',#587,.T.);
#640=FACE_BOUND('',#588,.T.);
#641=FACE_BOUND('',#589,.T.);
#642=FACE_BOUND('',#590,.T.);
#643=FACE_BOUND('',#591,.T.);
#644=FACE_BOUND('',#592,.T.);
#645=FACE_BOUND('',#593,.T.);
#646=FACE_BOUND('',#594,.T.);
#647=FACE_BOUND('',#595,.T.);
#648=FACE_BOUND('',#596,.T.);
#649=FACE_BOUND('',#597,.T.);
#650=FACE_BOUND('',#598,.T.);
#651=FACE_BOUND('',#599,.T.);
#652=FACE_BOUND('',#600,.T.);
#653=FACE_BOUND('',#601,.T.);
#654=FACE_BOUND('',#602,.T.);
#655=FACE_BOUND('',#603,.T.);
#656=FACE_BOUND('',#604,.T.);
#657=FACE_BOUND('',#605,.T.);
#658=FACE_BOUND('',#606,.T.);
#659=FACE_BOUND('',#607,.T.);
#660=FACE_BOUND('',#608,.T.);
#661=FACE_BOUND('',#609,.T.);
#662=FACE_BOUND('',#610,.T.);
#663=FACE_BOUND('',#611,.T.);
#664=FACE_BOUND('',#612,.T.);
#665=FACE_BOUND('',#613,.T.);
#666=PLANE('',#751);
#667=PLANE('',#752);
#668=PLANE('',#753);
#669=PLANE('',#754);
#670=PLANE('',#755);
#671=PLANE('',#756);
#672=PLANE('',#757);
#673=PLANE('',#758);
#674=PLANE('',#759);
#675=PLANE('',#760);
#676=PLANE('',#769);
#677=PLANE('',#770);
#678=PLANE('',#771);
#679=PLANE('',#776);
#680=PLANE('',#777);
#681=PLANE('',#778);
#682=PLANE('',#779);
#683=PLANE('',#780);
#684=PLANE('',#781);
#685=PLANE('',#782);
#686=PLANE('',#785);
#687=PLANE('',#788);
#688=PLANE('',#791);
#689=PLANE('',#794);
#690=PLANE('',#799);
#691=PLANE('',#800);
#692=PLANE('',#801);
#693=PLANE('',#802);
#694=PLANE('',#803);
#695=PLANE('',#804);
#696=PLANE('',#805);
#697=PLANE('',#806);
#698=ADVANCED_FACE('',(#614,#615),#666,.T.);
#699=ADVANCED_FACE('',(#616,#617),#667,.F.);
#700=ADVANCED_FACE('',(#618),#668,.F.);
#701=ADVANCED_FACE('',(#619,#620),#669,.T.);
#702=ADVANCED_FACE('',(#621),#670,.F.);
#703=ADVANCED_FACE('',(#622),#671,.T.);
#704=ADVANCED_FACE('',(#623),#672,.T.);
#705=ADVANCED_FACE('',(#624),#673,.F.);
#706=ADVANCED_FACE('',(#625),#674,.T.);
#707=ADVANCED_FACE('',(#626,#627,#628,#629,#630,#631),#675,.F.);
#708=ADVANCED_FACE('',(#632),#676,.T.);
#709=ADVANCED_FACE('',(#633),#677,.F.);
#710=ADVANCED_FACE('',(#634),#678,.T.);
#711=ADVANCED_FACE('',(#635),#679,.F.);
#712=ADVANCED_FACE('',(#636),#680,.F.);
#713=ADVANCED_FACE('',(#637),#681,.T.);
#714=ADVANCED_FACE('',(#638),#682,.T.);
#715=ADVANCED_FACE('',(#639),#683,.F.);
#716=ADVANCED_FACE('',(#640),#684,.T.);
#717=ADVANCED_FACE('',(#641),#685,.F.);
#718=ADVANCED_FACE('',(#642,#643),#12,.F.);
#719=ADVANCED_FACE('',(#644),#686,.T.);
#720=ADVANCED_FACE('',(#645,#646),#13,.F.);
#721=ADVANCED_FACE('',(#647),#687,.T.);
#722=ADVANCED_FACE('',(#648,#649),#14,.F.);
#723=ADVANCED_FACE('',(#650),#688,.T.);
#724=ADVANCED_FACE('',(#651,#652),#15,.F.);
#725=ADVANCED_FACE('',(#653),#689,.T.);
#726=ADVANCED_FACE('',(#654),#16,.T.);
#727=ADVANCED_FACE('',(#655),#17,.T.);
#728=ADVANCED_FACE('',(#656),#18,.T.);
#729=ADVANCED_FACE('',(#657),#19,.T.);
#730=ADVANCED_FACE('',(#658),#690,.T.);
#731=ADVANCED_FACE('',(#659),#691,.T.);
#732=ADVANCED_FACE('',(#660),#692,.F.);
#733=ADVANCED_FACE('',(#661),#693,.F.);
#734=ADVANCED_FACE('',(#662),#694,.T.);
#735=ADVANCED_FACE('',(#663),#695,.F.);
#736=ADVANCED_FACE('',(#664),#696,.F.);
#737=ADVANCED_FACE('',(#665),#697,.T.);
#738=CLOSED_SHELL('',(#698,#699,#700,#701,#702,#703,#704,#705,#706,#707,
#708,#709,#710,#711,#712,#713,#714,#715,#716,#717,#718,#719,#720,#721,#722,
#723,#724,#725,#726,#727,#728,#729,#730,#731,#732,#733,#734,#735,#736,#737));
#739=STYLED_ITEM('',(#740),#747);
#740=PRESENTATION_STYLE_ASSIGNMENT((#741));
#741=SURFACE_STYLE_USAGE(.BOTH.,#742);
#742=SURFACE_SIDE_STYLE('',(#743));
#743=SURFACE_STYLE_FILL_AREA(#744);
#744=FILL_AREA_STYLE('',(#745));
#745=FILL_AREA_STYLE_COLOUR('',#746);
#746=COLOUR_RGB('',0.615686274509804,0.811764705882353,0.929411764705882);
#747=MANIFOLD_SOLID_BREP('Part 1',#738);
#748=SHAPE_DEFINITION_REPRESENTATION(#1216,#749);
#749=SHAPE_REPRESENTATION('Part 1',(#750),#1211);
#750=AXIS2_PLACEMENT_3D('',#1003,#807,#808);
#751=AXIS2_PLACEMENT_3D('',#1004,#809,#810);
#752=AXIS2_PLACEMENT_3D('',#1021,#819,#820);
#753=AXIS2_PLACEMENT_3D('',#1038,#829,#830);
#754=AXIS2_PLACEMENT_3D('',#1055,#839,#840);
#755=AXIS2_PLACEMENT_3D('',#1072,#849,#850);
#756=AXIS2_PLACEMENT_3D('',#1078,#854,#855);
#757=AXIS2_PLACEMENT_3D('',#1092,#863,#864);
#758=AXIS2_PLACEMENT_3D('',#1098,#868,#869);
#759=AXIS2_PLACEMENT_3D('',#1107,#874,#875);
#760=AXIS2_PLACEMENT_3D('',#1118,#883,#884);
#761=AXIS2_PLACEMENT_3D('',#1119,#885,#886);
#762=AXIS2_PLACEMENT_3D('',#1121,#887,#888);
#763=AXIS2_PLACEMENT_3D('',#1123,#889,#890);
#764=AXIS2_PLACEMENT_3D('',#1125,#891,#892);
#765=AXIS2_PLACEMENT_3D('',#1136,#899,#900);
#766=AXIS2_PLACEMENT_3D('',#1140,#902,#903);
#767=AXIS2_PLACEMENT_3D('',#1141,#904,#905);
#768=AXIS2_PLACEMENT_3D('',#1145,#907,#908);
#769=AXIS2_PLACEMENT_3D('',#1146,#909,#910);
#770=AXIS2_PLACEMENT_3D('',#1152,#914,#915);
#771=AXIS2_PLACEMENT_3D('',#1158,#919,#920);
#772=AXIS2_PLACEMENT_3D('',#1159,#921,#922);
#773=AXIS2_PLACEMENT_3D('',#1160,#923,#924);
#774=AXIS2_PLACEMENT_3D('',#1161,#925,#926);
#775=AXIS2_PLACEMENT_3D('',#1162,#927,#928);
#776=AXIS2_PLACEMENT_3D('',#1163,#929,#930);
#777=AXIS2_PLACEMENT_3D('',#1165,#932,#933);
#778=AXIS2_PLACEMENT_3D('',#1167,#935,#936);
#779=AXIS2_PLACEMENT_3D('',#1168,#937,#938);
#780=AXIS2_PLACEMENT_3D('',#1170,#940,#941);
#781=AXIS2_PLACEMENT_3D('',#1171,#942,#943);
#782=AXIS2_PLACEMENT_3D('',#1173,#945,#946);
#783=AXIS2_PLACEMENT_3D('',#1174,#947,#948);
#784=AXIS2_PLACEMENT_3D('',#1175,#949,#950);
#785=AXIS2_PLACEMENT_3D('',#1177,#951,#952);
#786=AXIS2_PLACEMENT_3D('',#1178,#953,#954);
#787=AXIS2_PLACEMENT_3D('',#1179,#955,#956);
#788=AXIS2_PLACEMENT_3D('',#1181,#957,#958);
#789=AXIS2_PLACEMENT_3D('',#1182,#959,#960);
#790=AXIS2_PLACEMENT_3D('',#1183,#961,#962);
#791=AXIS2_PLACEMENT_3D('',#1185,#963,#964);
#792=AXIS2_PLACEMENT_3D('',#1186,#965,#966);
#793=AXIS2_PLACEMENT_3D('',#1187,#967,#968);
#794=AXIS2_PLACEMENT_3D('',#1189,#969,#970);
#795=AXIS2_PLACEMENT_3D('',#1190,#971,#972);
#796=AXIS2_PLACEMENT_3D('',#1191,#973,#974);
#797=AXIS2_PLACEMENT_3D('',#1192,#975,#976);
#798=AXIS2_PLACEMENT_3D('',#1193,#977,#978);
#799=AXIS2_PLACEMENT_3D('',#1194,#979,#980);
#800=AXIS2_PLACEMENT_3D('',#1197,#983,#984);
#801=AXIS2_PLACEMENT_3D('',#1199,#986,#987);
#802=AXIS2_PLACEMENT_3D('',#1201,#989,#990);
#803=AXIS2_PLACEMENT_3D('',#1202,#991,#992);
#804=AXIS2_PLACEMENT_3D('',#1205,#995,#996);
#805=AXIS2_PLACEMENT_3D('',#1207,#998,#999);
#806=AXIS2_PLACEMENT_3D('',#1209,#1001,#1002);
#807=DIRECTION('',(0.,0.,1.));
#808=DIRECTION('',(1.,0.,0.));
#809=DIRECTION('',(1.,0.,0.));
#810=DIRECTION('',(0.,0.,-1.));
#811=DIRECTION('',(0.,-1.,0.));
#812=DIRECTION('',(0.,0.,1.));
#813=DIRECTION('',(0.,-1.,0.));
#814=DIRECTION('',(0.,0.,1.));
#815=DIRECTION('',(0.,0.,-1.));
#816=DIRECTION('',(0.,-1.,0.));
#817=DIRECTION('',(0.,0.,-1.));
#818=DIRECTION('',(0.,-1.,0.));
#819=DIRECTION('',(1.,0.,0.));
#820=DIRECTION('',(0.,0.,-1.));
#821=DIRECTION('',(0.,-1.,0.));
#822=DIRECTION('',(0.,0.,-1.));
#823=DIRECTION('',(0.,-1.,0.));
#824=DIRECTION('',(0.,0.,-1.));
#825=DIRECTION('',(0.,1.,0.));
#826=DIRECTION('',(0.,0.,1.));
#827=DIRECTION('',(0.,1.,0.));
#828=DIRECTION('',(0.,0.,1.));
#829=DIRECTION('',(1.,0.,0.));
#830=DIRECTION('',(0.,0.,-1.));
#831=DIRECTION('',(0.,-1.,0.));
#832=DIRECTION('',(0.,0.,1.));
#833=DIRECTION('',(0.,-1.,0.));
#834=DIRECTION('',(0.,0.,1.));
#835=DIRECTION('',(0.,-1.,0.));
#836=DIRECTION('',(0.,0.,1.));
#837=DIRECTION('',(0.,-1.,0.));
#838=DIRECTION('',(0.,0.,1.));
#839=DIRECTION('',(1.,0.,0.));
#840=DIRECTION('',(0.,0.,-1.));
#841=DIRECTION('',(0.,-1.,0.));
#842=DIRECTION('',(0.,0.,-1.));
#843=DIRECTION('',(0.,-1.,0.));
#844=DIRECTION('',(0.,0.,-1.));
#845=DIRECTION('',(0.,0.,1.));
#846=DIRECTION('',(0.,-1.,0.));
#847=DIRECTION('',(0.,0.,1.));
#848=DIRECTION('',(0.,-1.,0.));
#849=DIRECTION('',(0.,1.,0.));
#850=DIRECTION('',(0.,0.,1.));
#851=DIRECTION('',(1.,0.,0.));
#852=DIRECTION('',(0.,0.,1.));
#853=DIRECTION('',(-1.,0.,0.));
#854=DIRECTION('',(-1.,0.,0.));
#855=DIRECTION('',(0.,0.,1.));
#856=DIRECTION('',(0.,1.,0.));
#857=DIRECTION('',(0.,0.,-1.));
#858=DIRECTION('',(0.,1.,0.));
#859=DIRECTION('',(0.,0.,1.));
#860=DIRECTION('',(0.,-1.,0.));
#861=DIRECTION('',(0.,0.,1.));
#862=DIRECTION('',(0.,-1.,0.));
#863=DIRECTION('',(-1.46081976924363E-16,-1.,0.));
#864=DIRECTION('',(1.,-1.46081976924363E-16,0.));
#865=DIRECTION('',(0.,0.,1.));
#866=DIRECTION('',(-1.,1.46081976924363E-16,0.));
#867=DIRECTION('',(-1.,1.46081976924363E-16,0.));
#868=DIRECTION('',(-1.46081976924363E-16,-1.,0.));
#869=DIRECTION('',(1.,-1.46081976924363E-16,0.));
#870=DIRECTION('',(0.,0.,1.));
#871=DIRECTION('',(-1.,1.46081976924363E-16,0.));
#872=DIRECTION('',(0.,0.,1.));
#873=DIRECTION('',(-1.,1.46081976924363E-16,0.));
#874=DIRECTION('',(0.,0.,-1.));
#875=DIRECTION('',(1.,0.,0.));
#876=DIRECTION('',(1.,0.,0.));
#877=DIRECTION('',(0.,-1.,0.));
#878=DIRECTION('',(-1.,0.,0.));
#879=DIRECTION('',(-1.,0.,0.));
#880=DIRECTION('',(0.,1.,0.));
#881=DIRECTION('',(0.,1.,0.));
#882=DIRECTION('',(1.,0.,0.));
#883=DIRECTION('',(0.,0.,1.));
#884=DIRECTION('',(1.,0.,0.));
#885=DIRECTION('',(0.,0.,-1.));
#886=DIRECTION('',(-1.,0.,0.));
#887=DIRECTION('',(0.,0.,-1.));
#888=DIRECTION('',(-1.,0.,0.));
#889=DIRECTION('',(0.,0.,-1.));
#890=DIRECTION('',(-1.,0.,0.));
#891=DIRECTION('',(0.,0.,-1.));
#892=DIRECTION('',(-1.,0.,0.));
#893=DIRECTION('',(0.,1.,0.));
#894=DIRECTION('',(-1.,0.,0.));
#895=DIRECTION('',(0.,-1.,0.));
#896=DIRECTION('',(1.,0.,0.));
#897=DIRECTION('',(1.,0.,0.));
#898=DIRECTION('',(0.,1.,0.));
#899=DIRECTION('',(0.,0.,1.));
#900=DIRECTION('',(1.,0.,0.));
#901=DIRECTION('',(1.,0.,0.));
#902=DIRECTION('',(0.,0.,1.));
#903=DIRECTION('',(1.,0.,0.));
#904=DIRECTION('',(0.,0.,1.));
#905=DIRECTION('',(1.,0.,0.));
#906=DIRECTION('',(1.,0.,0.));
#907=DIRECTION('',(0.,0.,1.));
#908=DIRECTION('',(1.,0.,0.));
#909=DIRECTION('',(0.,1.,0.));
#910=DIRECTION('',(0.,0.,1.));
#911=DIRECTION('',(0.,0.,-1.));
#912=DIRECTION('',(1.,0.,0.));
#913=DIRECTION('',(0.,0.,-1.));
#914=DIRECTION('',(0.,1.,0.));
#915=DIRECTION('',(0.,0.,1.));
#916=DIRECTION('',(1.,0.,0.));
#917=DIRECTION('',(0.,0.,-1.));
#918=DIRECTION('',(0.,0.,-1.));
#919=DIRECTION('',(0.,0.,1.));
#920=DIRECTION('',(1.,0.,0.));
#921=DIRECTION('',(0.,0.,1.));
#922=DIRECTION('',(1.,0.,0.));
#923=DIRECTION('',(0.,0.,1.));
#924=DIRECTION('',(1.,0.,0.));
#925=DIRECTION('',(0.,0.,1.));
#926=DIRECTION('',(1.,0.,0.));
#927=DIRECTION('',(0.,0.,1.));
#928=DIRECTION('',(1.,0.,0.));
#929=DIRECTION('',(0.,1.,0.));
#930=DIRECTION('',(0.,0.,1.));
#931=DIRECTION('',(1.,0.,0.));
#932=DIRECTION('',(0.,-1.,0.));
#933=DIRECTION('',(0.,0.,-1.));
#934=DIRECTION('',(0.,0.,1.));
#935=DIRECTION('',(1.,0.,0.));
#936=DIRECTION('',(0.,0.,-1.));
#937=DIRECTION('',(0.,1.,0.));
#938=DIRECTION('',(0.,0.,1.));
#939=DIRECTION('',(0.,0.,1.));
#940=DIRECTION('',(1.,0.,0.));
#941=DIRECTION('',(0.,0.,-1.));
#942=DIRECTION('',(0.,-1.,0.));
#943=DIRECTION('',(0.,0.,-1.));
#944=DIRECTION('',(0.,0.,1.));
#945=DIRECTION('',(-1.,0.,0.));
#946=DIRECTION('',(0.,0.,1.));
#947=DIRECTION('',(0.,0.,-1.));
#948=DIRECTION('',(-1.,0.,0.));
#949=DIRECTION('',(0.,0.,-1.));
#950=DIRECTION('',(-1.,0.,0.));
#951=DIRECTION('',(0.,0.,-1.));
#952=DIRECTION('',(1.,0.,0.));
#953=DIRECTION('',(0.,0.,-1.));
#954=DIRECTION('',(-1.,0.,0.));
#955=DIRECTION('',(0.,0.,-1.));
#956=DIRECTION('',(-1.,0.,0.));
#957=DIRECTION('',(0.,0.,-1.));
#958=DIRECTION('',(1.,0.,0.));
#959=DIRECTION('',(0.,0.,-1.));
#960=DIRECTION('',(-1.,0.,0.));
#961=DIRECTION('',(0.,0.,-1.));
#962=DIRECTION('',(-1.,0.,0.));
#963=DIRECTION('',(0.,0.,-1.));
#964=DIRECTION('',(1.,0.,0.));
#965=DIRECTION('',(0.,0.,-1.));
#966=DIRECTION('',(-1.,0.,0.));
#967=DIRECTION('',(0.,0.,-1.));
#968=DIRECTION('',(-1.,0.,0.));
#969=DIRECTION('',(0.,0.,-1.));
#970=DIRECTION('',(1.,0.,0.));
#971=DIRECTION('',(0.,0.,1.));
#972=DIRECTION('',(1.,0.,0.));
#973=DIRECTION('',(0.,0.,-1.));
#974=DIRECTION('',(-1.,0.,0.));
#975=DIRECTION('',(0.,0.,1.));
#976=DIRECTION('',(1.,0.,0.));
#977=DIRECTION('',(0.,0.,-1.));
#978=DIRECTION('',(-1.,0.,0.));
#979=DIRECTION('',(0.,1.,0.));
#980=DIRECTION('',(0.,0.,1.));
#981=DIRECTION('',(1.,0.,0.));
#982=DIRECTION('',(1.,0.,0.));
#983=DIRECTION('',(0.,0.,1.));
#984=DIRECTION('',(1.,0.,0.));
#985=DIRECTION('',(1.,0.,0.));
#986=DIRECTION('',(0.,0.,1.));
#987=DIRECTION('',(1.,0.,0.));
#988=DIRECTION('',(1.,0.,0.));
#989=DIRECTION('',(0.,1.,0.));
#990=DIRECTION('',(0.,0.,1.));
#991=DIRECTION('',(0.,0.,1.));
#992=DIRECTION('',(1.,0.,0.));
#993=DIRECTION('',(-1.,0.,0.));
#994=DIRECTION('',(-1.,0.,0.));
#995=DIRECTION('',(0.,-1.,0.));
#996=DIRECTION('',(0.,0.,-1.));
#997=DIRECTION('',(-1.,0.,0.));
#998=DIRECTION('',(0.,0.,1.));
#999=DIRECTION('',(1.,0.,0.));
#1000=DIRECTION('',(-1.,0.,0.));
#1001=DIRECTION('',(0.,-1.,0.));
#1002=DIRECTION('',(0.,0.,-1.));
#1003=CARTESIAN_POINT('',(0.,0.,0.));
#1004=CARTESIAN_POINT('',(-46.2275279325192,5.85128739476205,34.));
#1005=CARTESIAN_POINT('',(-46.2275279325192,5.85128739476205,0.));
#1006=CARTESIAN_POINT('',(-46.2275279325192,38.3512873947621,0.));
#1007=CARTESIAN_POINT('',(-46.2275279325192,-26.6487126052379,0.));
#1008=CARTESIAN_POINT('',(-46.2275279325192,38.3512873947621,0.));
#1009=CARTESIAN_POINT('',(-46.2275279325192,38.3512873947621,34.));
#1010=CARTESIAN_POINT('',(-46.2275279325192,5.85128739476205,34.));
#1011=CARTESIAN_POINT('',(-46.2275279325192,-26.6487126052379,34.));
#1012=CARTESIAN_POINT('',(-46.2275279325192,-26.6487126052379,0.));
#1013=CARTESIAN_POINT('',(-46.2275279325192,37.1622174277745,34.));
#1014=CARTESIAN_POINT('',(-46.2275279325192,37.1622174277745,32.2732476253205));
#1015=CARTESIAN_POINT('',(-46.2275279325192,37.1622174277745,22.7124629208718));
#1016=CARTESIAN_POINT('',(-46.2275279325192,5.85128739476205,22.7124629208718));
#1017=CARTESIAN_POINT('',(-46.2275279325192,17.9602200190387,22.7124629208718));
#1018=CARTESIAN_POINT('',(-46.2275279325192,17.9602200190387,34.));
#1019=CARTESIAN_POINT('',(-46.2275279325192,17.9602200190387,32.2732476253205));
#1020=CARTESIAN_POINT('',(-46.2275279325192,5.85128739476205,32.2732476253205));
#1021=CARTESIAN_POINT('',(-48.7275279325192,5.85128739476204,40.));
#1022=CARTESIAN_POINT('',(-48.7275279325192,5.85128739476204,40.));
#1023=CARTESIAN_POINT('',(-48.7275279325192,43.8512873947621,40.));
#1024=CARTESIAN_POINT('',(-48.7275279325192,-32.1487126052379,40.));
#1025=CARTESIAN_POINT('',(-48.7275279325192,43.8512873947621,0.));
#1026=CARTESIAN_POINT('',(-48.7275279325192,43.8512873947621,0.));
#1027=CARTESIAN_POINT('',(-48.7275279325192,5.85128739476204,0.));
#1028=CARTESIAN_POINT('',(-48.7275279325192,-32.1487126052379,0.));
#1029=CARTESIAN_POINT('',(-48.7275279325192,-32.1487126052379,40.));
#1030=CARTESIAN_POINT('',(-48.7275279325192,27.5612187234066,22.7124629208718));
#1031=CARTESIAN_POINT('',(-48.7275279325192,17.9602200190387,22.7124629208718));
#1032=CARTESIAN_POINT('',(-48.7275279325192,37.1622174277745,22.7124629208718));
#1033=CARTESIAN_POINT('',(-48.7275279325192,37.1622174277745,27.4928552730962));
#1034=CARTESIAN_POINT('',(-48.7275279325192,37.1622174277745,32.2732476253205));
#1035=CARTESIAN_POINT('',(-48.7275279325192,27.5612187234066,32.2732476253205));
#1036=CARTESIAN_POINT('',(-48.7275279325192,17.9602200190387,32.2732476253205));
#1037=CARTESIAN_POINT('',(-48.7275279325192,17.9602200190387,27.4928552730962));
#1038=CARTESIAN_POINT('',(48.7724720674809,5.85128739476203,34.));
#1039=CARTESIAN_POINT('',(48.7724720674809,5.85128739476203,20.9551293664685));
#1040=CARTESIAN_POINT('',(48.7724720674809,38.3512873947621,20.9551293664685));
#1041=CARTESIAN_POINT('',(48.7724720674809,9.67227783029628,20.9551293664685));
#1042=CARTESIAN_POINT('',(48.7724720674809,38.3512873947621,0.));
#1043=CARTESIAN_POINT('',(48.7724720674809,38.3512873947621,0.));
#1044=CARTESIAN_POINT('',(48.7724720674809,5.85128739476203,0.));
#1045=CARTESIAN_POINT('',(48.7724720674809,-26.6487126052379,0.));
#1046=CARTESIAN_POINT('',(48.7724720674809,-26.6487126052379,0.));
#1047=CARTESIAN_POINT('',(48.7724720674809,-26.6487126052379,34.));
#1048=CARTESIAN_POINT('',(48.7724720674809,5.85128739476203,34.));
#1049=CARTESIAN_POINT('',(48.7724720674809,38.3512873947621,34.));
#1050=CARTESIAN_POINT('',(48.7724720674809,38.3512873947621,0.));
#1051=CARTESIAN_POINT('',(48.7724720674809,38.3512873947621,30.0456613361347));
#1052=CARTESIAN_POINT('',(48.7724720674809,5.85128739476203,30.0456613361347));
#1053=CARTESIAN_POINT('',(48.7724720674809,9.67227783029628,30.0456613361347));
#1054=CARTESIAN_POINT('',(48.7724720674809,9.67227783029628,34.));
#1055=CARTESIAN_POINT('',(51.2724720674809,5.85128739476204,40.));
#1056=CARTESIAN_POINT('',(51.2724720674809,5.85128739476204,40.));
#1057=CARTESIAN_POINT('',(51.2724720674809,43.8512873947621,40.));
#1058=CARTESIAN_POINT('',(51.2724720674809,-32.1487126052379,40.));
#1059=CARTESIAN_POINT('',(51.2724720674809,-32.1487126052379,0.));
#1060=CARTESIAN_POINT('',(51.2724720674809,-32.1487126052379,0.));
#1061=CARTESIAN_POINT('',(51.2724720674809,5.85128739476204,0.));
#1062=CARTESIAN_POINT('',(51.2724720674809,43.8512873947621,0.));
#1063=CARTESIAN_POINT('',(51.2724720674809,43.8512873947621,40.));
#1064=CARTESIAN_POINT('',(51.2724720674809,42.1700369187678,25.5003953513016));
#1065=CARTESIAN_POINT('',(51.2724720674809,42.1700369187678,20.9551293664685));
#1066=CARTESIAN_POINT('',(51.2724720674809,42.1700369187678,30.0456613361347));
#1067=CARTESIAN_POINT('',(51.2724720674809,25.9211573745321,20.9551293664685));
#1068=CARTESIAN_POINT('',(51.2724720674809,9.67227783029628,20.9551293664685));
#1069=CARTESIAN_POINT('',(51.2724720674809,9.67227783029628,25.5003953513016));
#1070=CARTESIAN_POINT('',(51.2724720674809,9.67227783029628,30.0456613361347));
#1071=CARTESIAN_POINT('',(51.2724720674809,25.9211573745321,30.0456613361347));
#1072=CARTESIAN_POINT('',(46.2724720674809,38.3512873947621,0.));
#1073=CARTESIAN_POINT('',(46.2724720674809,38.3512873947621,20.9551293664685));
#1074=CARTESIAN_POINT('',(43.7724720674808,38.3512873947621,20.9551293664685));
#1075=CARTESIAN_POINT('',(43.7724720674808,38.3512873947621,0.));
#1076=CARTESIAN_POINT('',(43.7724720674808,38.3512873947621,0.));
#1077=CARTESIAN_POINT('',(46.2724720674809,38.3512873947621,0.));
#1078=CARTESIAN_POINT('',(43.7724720674808,40.851287394762,0.));
#1079=CARTESIAN_POINT('',(43.7724720674808,40.851287394762,20.9551293664685));
#1080=CARTESIAN_POINT('',(43.7724720674808,42.1700369187678,20.9551293664685));
#1081=CARTESIAN_POINT('',(43.7724720674808,42.1700369187678,0.));
#1082=CARTESIAN_POINT('',(43.7724720674808,42.1700369187678,30.0456613361347));
#1083=CARTESIAN_POINT('',(43.7724720674808,40.851287394762,30.0456613361347));
#1084=CARTESIAN_POINT('',(43.7724720674808,38.3512873947621,30.0456613361347));
#1085=CARTESIAN_POINT('',(43.7724720674808,38.3512873947621,0.));
#1086=CARTESIAN_POINT('',(43.7724720674808,38.3512873947621,34.));
#1087=CARTESIAN_POINT('',(43.7724720674808,40.851287394762,34.));
#1088=CARTESIAN_POINT('',(43.7724720674808,43.3512873947621,34.));
#1089=CARTESIAN_POINT('',(43.7724720674808,43.3512873947621,0.));
#1090=CARTESIAN_POINT('',(43.7724720674808,43.3512873947621,0.));
#1091=CARTESIAN_POINT('',(43.7724720674808,40.851287394762,0.));
#1092=CARTESIAN_POINT('',(1.27247206748085,43.3512873947621,34.));
#1093=CARTESIAN_POINT('',(-41.2275279325191,43.3512873947621,0.));
#1094=CARTESIAN_POINT('',(-41.2275279325191,43.3512873947621,0.));
#1095=CARTESIAN_POINT('',(-41.2275279325191,43.3512873947621,34.));
#1096=CARTESIAN_POINT('',(1.27247206748085,43.3512873947621,0.));
#1097=CARTESIAN_POINT('',(1.27247206748085,43.3512873947621,34.));
#1098=CARTESIAN_POINT('',(1.27247206748085,-31.6487126052379,34.));
#1099=CARTESIAN_POINT('',(43.7724720674808,-31.6487126052379,0.));
#1100=CARTESIAN_POINT('',(43.7724720674808,-31.6487126052379,0.));
#1101=CARTESIAN_POINT('',(43.7724720674808,-31.6487126052379,34.));
#1102=CARTESIAN_POINT('',(1.27247206748085,-31.6487126052379,0.));
#1103=CARTESIAN_POINT('',(-41.2275279325192,-31.6487126052379,0.));
#1104=CARTESIAN_POINT('',(-41.2275279325192,-31.6487126052379,0.));
#1105=CARTESIAN_POINT('',(-41.2275279325192,-31.6487126052379,34.));
#1106=CARTESIAN_POINT('',(1.27247206748085,-31.6487126052379,34.));
#1107=CARTESIAN_POINT('',(1.27247206748085,5.85128739476204,34.));
#1108=CARTESIAN_POINT('',(-43.7275279325191,38.3512873947621,34.));
#1109=CARTESIAN_POINT('',(-41.2275279325191,38.3512873947621,34.));
#1110=CARTESIAN_POINT('',(-41.2275279325191,40.851287394762,34.));
#1111=CARTESIAN_POINT('',(46.2724720674809,38.3512873947621,34.));
#1112=CARTESIAN_POINT('',(46.2724720674809,-26.6487126052379,34.));
#1113=CARTESIAN_POINT('',(43.7724720674808,-26.6487126052379,34.));
#1114=CARTESIAN_POINT('',(43.7724720674808,-29.148712605238,34.));
#1115=CARTESIAN_POINT('',(-41.2275279325192,-29.148712605238,34.));
#1116=CARTESIAN_POINT('',(-41.2275279325192,-26.6487126052379,34.));
#1117=CARTESIAN_POINT('',(-43.7275279325192,-26.6487126052379,34.));
#1118=CARTESIAN_POINT('',(1.27247206748085,5.85128739476204,0.));
#1119=CARTESIAN_POINT('',(46.2724720674809,40.851287394762,0.));
#1120=CARTESIAN_POINT('',(44.7724720674809,40.851287394762,0.));
#1121=CARTESIAN_POINT('',(-43.7275279325191,40.851287394762,0.));
#1122=CARTESIAN_POINT('',(-45.2275279325192,40.851287394762,0.));
#1123=CARTESIAN_POINT('',(-43.7275279325191,-29.148712605238,0.));
#1124=CARTESIAN_POINT('',(-45.2275279325192,-29.148712605238,0.));
#1125=CARTESIAN_POINT('',(46.2724720674809,-29.148712605238,0.));
#1126=CARTESIAN_POINT('',(44.7724720674809,-29.148712605238,0.));
#1127=CARTESIAN_POINT('',(43.7724720674808,-29.148712605238,0.));
#1128=CARTESIAN_POINT('',(43.7724720674808,-26.6487126052379,0.));
#1129=CARTESIAN_POINT('',(46.2724720674809,-26.6487126052379,0.));
#1130=CARTESIAN_POINT('',(-41.2275279325191,40.851287394762,0.));
#1131=CARTESIAN_POINT('',(-41.2275279325191,38.3512873947621,0.));
#1132=CARTESIAN_POINT('',(-43.7275279325191,38.3512873947621,0.));
#1133=CARTESIAN_POINT('',(-43.7275279325192,-26.6487126052379,0.));
#1134=CARTESIAN_POINT('',(-41.2275279325192,-26.6487126052379,0.));
#1135=CARTESIAN_POINT('',(-41.2275279325192,-29.148712605238,0.));
#1136=CARTESIAN_POINT('',(-46.7275279325192,43.8512873947621,0.));
#1137=CARTESIAN_POINT('',(-46.7275279325192,45.851287394762,0.));
#1138=CARTESIAN_POINT('',(1.27247206748085,45.851287394762,0.));
#1139=CARTESIAN_POINT('',(49.2724720674809,45.851287394762,0.));
#1140=CARTESIAN_POINT('',(49.2724720674809,43.8512873947621,0.));
#1141=CARTESIAN_POINT('',(49.2724720674809,-32.1487126052379,0.));
#1142=CARTESIAN_POINT('',(49.2724720674809,-34.1487126052379,0.));
#1143=CARTESIAN_POINT('',(1.27247206748085,-34.1487126052379,0.));
#1144=CARTESIAN_POINT('',(-46.7275279325192,-34.1487126052379,0.));
#1145=CARTESIAN_POINT('',(-46.7275279325192,-32.1487126052379,0.));
#1146=CARTESIAN_POINT('',(1.27247206748085,45.851287394762,40.));
#1147=CARTESIAN_POINT('',(-46.7275279325192,45.851287394762,40.));
#1148=CARTESIAN_POINT('',(-46.7275279325192,45.851287394762,40.));
#1149=CARTESIAN_POINT('',(1.27247206748085,45.851287394762,40.));
#1150=CARTESIAN_POINT('',(49.2724720674809,45.851287394762,40.));
#1151=CARTESIAN_POINT('',(49.2724720674809,45.851287394762,40.));
#1152=CARTESIAN_POINT('',(1.27247206748085,-34.1487126052379,40.));
#1153=CARTESIAN_POINT('',(1.27247206748085,-34.1487126052379,40.));
#1154=CARTESIAN_POINT('',(-46.7275279325192,-34.1487126052379,40.));
#1155=CARTESIAN_POINT('',(49.2724720674809,-34.1487126052379,40.));
#1156=CARTESIAN_POINT('',(-46.7275279325192,-34.1487126052379,40.));
#1157=CARTESIAN_POINT('',(49.2724720674809,-34.1487126052379,40.));
#1158=CARTESIAN_POINT('',(1.27247206748085,5.85128739476204,40.));
#1159=CARTESIAN_POINT('',(-46.7275279325192,43.8512873947621,40.));
#1160=CARTESIAN_POINT('',(-46.7275279325192,-32.1487126052379,40.));
#1161=CARTESIAN_POINT('',(49.2724720674809,-32.1487126052379,40.));
#1162=CARTESIAN_POINT('',(49.2724720674809,43.8512873947621,40.));
#1163=CARTESIAN_POINT('',(46.2724720674809,38.3512873947621,0.));
#1164=CARTESIAN_POINT('',(46.2724720674809,38.3512873947621,30.0456613361347));
#1165=CARTESIAN_POINT('',(-43.7275279325192,-26.6487126052379,0.));
#1166=CARTESIAN_POINT('',(-41.2275279325192,-26.6487126052379,0.));
#1167=CARTESIAN_POINT('',(-41.2275279325192,-29.148712605238,0.));
#1168=CARTESIAN_POINT('',(46.2724720674809,-26.6487126052379,0.));
#1169=CARTESIAN_POINT('',(43.7724720674808,-26.6487126052379,0.));
#1170=CARTESIAN_POINT('',(43.7724720674808,-29.148712605238,0.));
#1171=CARTESIAN_POINT('',(-43.7275279325191,38.3512873947621,0.));
#1172=CARTESIAN_POINT('',(-41.2275279325191,38.3512873947621,0.));
#1173=CARTESIAN_POINT('',(-41.2275279325191,40.851287394762,0.));
#1174=CARTESIAN_POINT('',(46.2724720674809,-29.148712605238,10.));
#1175=CARTESIAN_POINT('',(46.2724720674809,-29.148712605238,10.));
#1176=CARTESIAN_POINT('',(44.7724720674809,-29.148712605238,10.));
#1177=CARTESIAN_POINT('',(1.27247206748085,5.85128739476204,10.));
#1178=CARTESIAN_POINT('',(-43.7275279325191,-29.148712605238,10.));
#1179=CARTESIAN_POINT('',(-43.7275279325191,-29.148712605238,10.));
#1180=CARTESIAN_POINT('',(-45.2275279325192,-29.148712605238,10.));
#1181=CARTESIAN_POINT('',(1.27247206748085,5.85128739476204,10.));
#1182=CARTESIAN_POINT('',(-43.7275279325191,40.851287394762,10.));
#1183=CARTESIAN_POINT('',(-43.7275279325191,40.851287394762,10.));
#1184=CARTESIAN_POINT('',(-45.2275279325192,40.851287394762,10.));
#1185=CARTESIAN_POINT('',(1.27247206748085,5.85128739476204,10.));
#1186=CARTESIAN_POINT('',(46.2724720674809,40.851287394762,10.));
#1187=CARTESIAN_POINT('',(46.2724720674809,40.851287394762,10.));
#1188=CARTESIAN_POINT('',(44.7724720674809,40.851287394762,10.));
#1189=CARTESIAN_POINT('',(1.27247206748085,5.85128739476204,10.));
#1190=CARTESIAN_POINT('',(-46.7275279325192,43.8512873947621,40.));
#1191=CARTESIAN_POINT('',(-46.7275279325192,-32.1487126052379,40.));
#1192=CARTESIAN_POINT('',(49.2724720674809,-32.1487126052379,40.));
#1193=CARTESIAN_POINT('',(49.2724720674809,43.8512873947621,40.));
#1194=CARTESIAN_POINT('',(26.2724720674809,9.67227783029628,25.5003953513016));
#1195=CARTESIAN_POINT('',(26.2724720674809,9.67227783029628,30.0456613361347));
#1196=CARTESIAN_POINT('',(26.2724720674809,9.67227783029628,20.9551293664685));
#1197=CARTESIAN_POINT('',(26.2724720674809,25.9211573745321,20.9551293664685));
#1198=CARTESIAN_POINT('',(26.2724720674809,42.1700369187678,20.9551293664685));
#1199=CARTESIAN_POINT('',(26.2724720674809,25.9211573745321,30.0456613361347));
#1200=CARTESIAN_POINT('',(26.2724720674809,42.1700369187678,30.0456613361347));
#1201=CARTESIAN_POINT('',(26.2724720674809,42.1700369187678,25.5003953513016));
#1202=CARTESIAN_POINT('',(-28.5275279325191,27.5612187234066,22.7124629208718));
#1203=CARTESIAN_POINT('',(-28.5275279325191,37.1622174277745,22.7124629208718));
#1204=CARTESIAN_POINT('',(-28.5275279325191,17.9602200190387,22.7124629208718));
#1205=CARTESIAN_POINT('',(-28.5275279325191,17.9602200190387,27.4928552730962));
#1206=CARTESIAN_POINT('',(-28.5275279325191,17.9602200190387,32.2732476253205));
#1207=CARTESIAN_POINT('',(-28.5275279325191,27.5612187234066,32.2732476253205));
#1208=CARTESIAN_POINT('',(-28.5275279325191,37.1622174277745,32.2732476253205));
#1209=CARTESIAN_POINT('',(-28.5275279325191,37.1622174277745,27.4928552730962));
#1210=MECHANICAL_DESIGN_GEOMETRIC_PRESENTATION_REPRESENTATION('',(#739),
#1211);
#1211=(
GEOMETRIC_REPRESENTATION_CONTEXT(3)
GLOBAL_UNCERTAINTY_ASSIGNED_CONTEXT((#1212))
GLOBAL_UNIT_ASSIGNED_CONTEXT((#1215,#1214,#1213))
REPRESENTATION_CONTEXT('Part 1','TOP_LEVEL_ASSEMBLY_PART')
);
#1212=UNCERTAINTY_MEASURE_WITH_UNIT(LENGTH_MEASURE(1.E-5),#1215,
'DISTANCE_ACCURACY_VALUE','Maximum Tolerance applied to model');
#1213=(
NAMED_UNIT(*)
SI_UNIT($,.STERADIAN.)
SOLID_ANGLE_UNIT()
);
#1214=(
NAMED_UNIT(*)
PLANE_ANGLE_UNIT()
SI_UNIT($,.RADIAN.)
);
#1215=(
LENGTH_UNIT()
NAMED_UNIT(*)
SI_UNIT(.MILLI.,.METRE.)
);
#1216=PRODUCT_DEFINITION_SHAPE('','',#1217);
#1217=PRODUCT_DEFINITION('','',#1219,#1218);
#1218=PRODUCT_DEFINITION_CONTEXT('',#1225,'design');
#1219=PRODUCT_DEFINITION_FORMATION_WITH_SPECIFIED_SOURCE('','',#1221,
 .NOT_KNOWN.);
#1220=PRODUCT_RELATED_PRODUCT_CATEGORY('','',(#1221));
#1221=PRODUCT('Part 1','Part 1','Part 1',(#1223));
#1222=PRODUCT_CATEGORY('','');
#1223=PRODUCT_CONTEXT('',#1225,'mechanical');
#1224=APPLICATION_PROTOCOL_DEFINITION('international standard',
'ap242_managed_model_based_3d_engineering',2020,#1225);
#1225=APPLICATION_CONTEXT('managed model based 3d engineering');
ENDSEC;
END-ISO-10303-21;
