ISO-10303-21;
HEADER;
/* Generated by software containing ST-Developer
 * from STEP Tools, Inc. (www.steptools.com) 
 */
/* OPTION: using custom renumber hook */

FILE_DESCRIPTION(
/* description */ ('STEP AP242 Edition 2',
'CAx-IF Rec.Pracs.---Representation and Presentation of Product Manufa
cturing Information (PMI)---4.0---2014-10-13',
'CAx-IF Rec.Pracs.---3D Tessellated Geometry---0.4---2014-09-14','2;1',
'CAx-IF Rec.Pracs.---User Defined Attributes---1.5---2016-08-15'),
/* implementation_level */ '2;1');

FILE_NAME(
/* name */ 'Part Studio 1 - Part 1',
/* time_stamp */ '2026-05-01T19:38:26Z',
/* author */ (''),
/* organization */ (''),
/* preprocessor_version */ 'ST-DEVELOPER v20',
/* originating_system */ 'ONSHAPE BY PTC INC, 1.214',
/* authorisation */ '  ');

FILE_SCHEMA (('AP242_MANAGED_MODEL_BASED_3D_ENGINEERING_MIM_LF { 1 0 10303 442 3 1 4 }'));
ENDSEC;

DATA;
#10=SHAPE_REPRESENTATION_RELATIONSHIP('','',#951,#11);
#11=ADVANCED_BREP_SHAPE_REPRESENTATION('',(#949),#1551);
#12=CYLINDRICAL_SURFACE('',#989,1.5);
#13=CYLINDRICAL_SURFACE('',#992,1.5);
#14=CYLINDRICAL_SURFACE('',#995,1.5);
#15=CYLINDRICAL_SURFACE('',#998,1.5);
#16=CYLINDRICAL_SURFACE('',#1001,2.);
#17=CYLINDRICAL_SURFACE('',#1002,2.);
#18=CYLINDRICAL_SURFACE('',#1003,2.);
#19=CYLINDRICAL_SURFACE('',#1004,2.);
#20=CYLINDRICAL_SURFACE('',#1015,1.35);
#21=CYLINDRICAL_SURFACE('',#1018,1.35);
#22=CYLINDRICAL_SURFACE('',#1021,1.35);
#23=CYLINDRICAL_SURFACE('',#1024,1.35);
#24=CIRCLE('',#962,1.35);
#25=CIRCLE('',#963,1.35);
#26=CIRCLE('',#964,1.35);
#27=CIRCLE('',#965,1.35);
#28=CIRCLE('',#967,1.5);
#29=CIRCLE('',#968,1.5);
#30=CIRCLE('',#969,1.5);
#31=CIRCLE('',#970,1.5);
#32=CIRCLE('',#971,2.);
#33=CIRCLE('',#972,2.);
#34=CIRCLE('',#973,2.);
#35=CIRCLE('',#974,2.);
#36=CIRCLE('',#978,2.);
#37=CIRCLE('',#979,2.);
#38=CIRCLE('',#980,2.);
#39=CIRCLE('',#981,2.);
#40=CIRCLE('',#990,1.5);
#41=CIRCLE('',#993,1.5);
#42=CIRCLE('',#996,1.5);
#43=CIRCLE('',#999,1.5);
#44=CIRCLE('',#1016,1.35);
#45=CIRCLE('',#1019,1.35);
#46=CIRCLE('',#1022,1.35);
#47=CIRCLE('',#1025,1.35);
#48=ORIENTED_EDGE('',*,*,#292,.F.);
#49=ORIENTED_EDGE('',*,*,#293,.F.);
#50=ORIENTED_EDGE('',*,*,#294,.F.);
#51=ORIENTED_EDGE('',*,*,#295,.T.);
#52=ORIENTED_EDGE('',*,*,#296,.T.);
#53=ORIENTED_EDGE('',*,*,#297,.F.);
#54=ORIENTED_EDGE('',*,*,#298,.F.);
#55=ORIENTED_EDGE('',*,*,#299,.T.);
#56=ORIENTED_EDGE('',*,*,#300,.T.);
#57=ORIENTED_EDGE('',*,*,#301,.F.);
#58=ORIENTED_EDGE('',*,*,#302,.T.);
#59=ORIENTED_EDGE('',*,*,#303,.T.);
#60=ORIENTED_EDGE('',*,*,#304,.F.);
#61=ORIENTED_EDGE('',*,*,#305,.T.);
#62=ORIENTED_EDGE('',*,*,#306,.T.);
#63=ORIENTED_EDGE('',*,*,#307,.T.);
#64=ORIENTED_EDGE('',*,*,#308,.T.);
#65=ORIENTED_EDGE('',*,*,#309,.F.);
#66=ORIENTED_EDGE('',*,*,#310,.F.);
#67=ORIENTED_EDGE('',*,*,#311,.F.);
#68=ORIENTED_EDGE('',*,*,#312,.F.);
#69=ORIENTED_EDGE('',*,*,#313,.T.);
#70=ORIENTED_EDGE('',*,*,#314,.T.);
#71=ORIENTED_EDGE('',*,*,#315,.F.);
#72=ORIENTED_EDGE('',*,*,#316,.T.);
#73=ORIENTED_EDGE('',*,*,#317,.T.);
#74=ORIENTED_EDGE('',*,*,#318,.F.);
#75=ORIENTED_EDGE('',*,*,#319,.F.);
#76=ORIENTED_EDGE('',*,*,#320,.F.);
#77=ORIENTED_EDGE('',*,*,#321,.T.);
#78=ORIENTED_EDGE('',*,*,#322,.T.);
#79=ORIENTED_EDGE('',*,*,#323,.T.);
#80=ORIENTED_EDGE('',*,*,#324,.T.);
#81=ORIENTED_EDGE('',*,*,#325,.T.);
#82=ORIENTED_EDGE('',*,*,#326,.F.);
#83=ORIENTED_EDGE('',*,*,#327,.F.);
#84=ORIENTED_EDGE('',*,*,#328,.F.);
#85=ORIENTED_EDGE('',*,*,#329,.F.);
#86=ORIENTED_EDGE('',*,*,#330,.F.);
#87=ORIENTED_EDGE('',*,*,#294,.T.);
#88=ORIENTED_EDGE('',*,*,#331,.F.);
#89=ORIENTED_EDGE('',*,*,#332,.F.);
#90=ORIENTED_EDGE('',*,*,#333,.F.);
#91=ORIENTED_EDGE('',*,*,#334,.T.);
#92=ORIENTED_EDGE('',*,*,#329,.T.);
#93=ORIENTED_EDGE('',*,*,#335,.T.);
#94=ORIENTED_EDGE('',*,*,#336,.F.);
#95=ORIENTED_EDGE('',*,*,#337,.F.);
#96=ORIENTED_EDGE('',*,*,#333,.T.);
#97=ORIENTED_EDGE('',*,*,#338,.T.);
#98=ORIENTED_EDGE('',*,*,#339,.F.);
#99=ORIENTED_EDGE('',*,*,#340,.T.);
#100=ORIENTED_EDGE('',*,*,#341,.T.);
#101=ORIENTED_EDGE('',*,*,#342,.F.);
#102=ORIENTED_EDGE('',*,*,#343,.F.);
#103=ORIENTED_EDGE('',*,*,#344,.F.);
#104=ORIENTED_EDGE('',*,*,#345,.F.);
#105=ORIENTED_EDGE('',*,*,#346,.F.);
#106=ORIENTED_EDGE('',*,*,#314,.F.);
#107=ORIENTED_EDGE('',*,*,#347,.T.);
#108=ORIENTED_EDGE('',*,*,#348,.F.);
#109=ORIENTED_EDGE('',*,*,#338,.F.);
#110=ORIENTED_EDGE('',*,*,#332,.T.);
#111=ORIENTED_EDGE('',*,*,#349,.T.);
#112=ORIENTED_EDGE('',*,*,#350,.F.);
#113=ORIENTED_EDGE('',*,*,#351,.F.);
#114=ORIENTED_EDGE('',*,*,#297,.T.);
#115=ORIENTED_EDGE('',*,*,#352,.T.);
#116=ORIENTED_EDGE('',*,*,#353,.F.);
#117=ORIENTED_EDGE('',*,*,#342,.T.);
#118=ORIENTED_EDGE('',*,*,#354,.T.);
#119=ORIENTED_EDGE('',*,*,#355,.F.);
#120=ORIENTED_EDGE('',*,*,#356,.F.);
#121=ORIENTED_EDGE('',*,*,#357,.F.);
#122=ORIENTED_EDGE('',*,*,#358,.F.);
#123=ORIENTED_EDGE('',*,*,#359,.F.);
#124=ORIENTED_EDGE('',*,*,#340,.F.);
#125=ORIENTED_EDGE('',*,*,#360,.T.);
#126=ORIENTED_EDGE('',*,*,#361,.F.);
#127=ORIENTED_EDGE('',*,*,#295,.F.);
#128=ORIENTED_EDGE('',*,*,#330,.T.);
#129=ORIENTED_EDGE('',*,*,#334,.F.);
#130=ORIENTED_EDGE('',*,*,#337,.T.);
#131=ORIENTED_EDGE('',*,*,#362,.T.);
#132=ORIENTED_EDGE('',*,*,#363,.F.);
#133=ORIENTED_EDGE('',*,*,#312,.T.);
#134=ORIENTED_EDGE('',*,*,#364,.T.);
#135=ORIENTED_EDGE('',*,*,#365,.F.);
#136=ORIENTED_EDGE('',*,*,#322,.F.);
#137=ORIENTED_EDGE('',*,*,#366,.T.);
#138=ORIENTED_EDGE('',*,*,#367,.T.);
#139=ORIENTED_EDGE('',*,*,#368,.T.);
#140=ORIENTED_EDGE('',*,*,#304,.T.);
#141=ORIENTED_EDGE('',*,*,#369,.T.);
#142=ORIENTED_EDGE('',*,*,#370,.F.);
#143=ORIENTED_EDGE('',*,*,#371,.T.);
#144=ORIENTED_EDGE('',*,*,#367,.F.);
#145=ORIENTED_EDGE('',*,*,#372,.T.);
#146=ORIENTED_EDGE('',*,*,#373,.T.);
#147=ORIENTED_EDGE('',*,*,#374,.T.);
#148=ORIENTED_EDGE('',*,*,#375,.F.);
#149=ORIENTED_EDGE('',*,*,#376,.T.);
#150=ORIENTED_EDGE('',*,*,#370,.T.);
#151=ORIENTED_EDGE('',*,*,#377,.T.);
#152=ORIENTED_EDGE('',*,*,#373,.F.);
#153=ORIENTED_EDGE('',*,*,#378,.T.);
#154=ORIENTED_EDGE('',*,*,#320,.T.);
#155=ORIENTED_EDGE('',*,*,#379,.T.);
#156=ORIENTED_EDGE('',*,*,#375,.T.);
#157=ORIENTED_EDGE('',*,*,#380,.T.);
#158=ORIENTED_EDGE('',*,*,#302,.F.);
#159=ORIENTED_EDGE('',*,*,#381,.T.);
#160=ORIENTED_EDGE('',*,*,#351,.T.);
#161=ORIENTED_EDGE('',*,*,#382,.T.);
#162=ORIENTED_EDGE('',*,*,#383,.T.);
#163=ORIENTED_EDGE('',*,*,#298,.T.);
#164=ORIENTED_EDGE('',*,*,#355,.T.);
#165=ORIENTED_EDGE('',*,*,#384,.F.);
#166=ORIENTED_EDGE('',*,*,#364,.F.);
#167=ORIENTED_EDGE('',*,*,#315,.T.);
#168=ORIENTED_EDGE('',*,*,#354,.F.);
#169=ORIENTED_EDGE('',*,*,#341,.F.);
#170=ORIENTED_EDGE('',*,*,#365,.T.);
#171=ORIENTED_EDGE('',*,*,#384,.T.);
#172=ORIENTED_EDGE('',*,*,#352,.F.);
#173=ORIENTED_EDGE('',*,*,#296,.F.);
#174=ORIENTED_EDGE('',*,*,#361,.T.);
#175=ORIENTED_EDGE('',*,*,#385,.T.);
#176=ORIENTED_EDGE('',*,*,#353,.T.);
#177=ORIENTED_EDGE('',*,*,#385,.F.);
#178=ORIENTED_EDGE('',*,*,#360,.F.);
#179=ORIENTED_EDGE('',*,*,#339,.T.);
#180=ORIENTED_EDGE('',*,*,#347,.F.);
#181=ORIENTED_EDGE('',*,*,#313,.F.);
#182=ORIENTED_EDGE('',*,*,#363,.T.);
#183=ORIENTED_EDGE('',*,*,#386,.T.);
#184=ORIENTED_EDGE('',*,*,#348,.T.);
#185=ORIENTED_EDGE('',*,*,#386,.F.);
#186=ORIENTED_EDGE('',*,*,#362,.F.);
#187=ORIENTED_EDGE('',*,*,#336,.T.);
#188=ORIENTED_EDGE('',*,*,#387,.F.);
#189=ORIENTED_EDGE('',*,*,#359,.T.);
#190=ORIENTED_EDGE('',*,*,#387,.T.);
#191=ORIENTED_EDGE('',*,*,#388,.F.);
#192=ORIENTED_EDGE('',*,*,#358,.T.);
#193=ORIENTED_EDGE('',*,*,#388,.T.);
#194=ORIENTED_EDGE('',*,*,#389,.F.);
#195=ORIENTED_EDGE('',*,*,#357,.T.);
#196=ORIENTED_EDGE('',*,*,#389,.T.);
#197=ORIENTED_EDGE('',*,*,#390,.F.);
#198=ORIENTED_EDGE('',*,*,#356,.T.);
#199=ORIENTED_EDGE('',*,*,#390,.T.);
#200=ORIENTED_EDGE('',*,*,#378,.F.);
#201=ORIENTED_EDGE('',*,*,#372,.F.);
#202=ORIENTED_EDGE('',*,*,#366,.F.);
#203=ORIENTED_EDGE('',*,*,#321,.F.);
#204=ORIENTED_EDGE('',*,*,#379,.F.);
#205=ORIENTED_EDGE('',*,*,#323,.F.);
#206=ORIENTED_EDGE('',*,*,#371,.F.);
#207=ORIENTED_EDGE('',*,*,#376,.F.);
#208=ORIENTED_EDGE('',*,*,#380,.F.);
#209=ORIENTED_EDGE('',*,*,#377,.F.);
#210=ORIENTED_EDGE('',*,*,#369,.F.);
#211=ORIENTED_EDGE('',*,*,#303,.F.);
#212=ORIENTED_EDGE('',*,*,#381,.F.);
#213=ORIENTED_EDGE('',*,*,#305,.F.);
#214=ORIENTED_EDGE('',*,*,#368,.F.);
#215=ORIENTED_EDGE('',*,*,#374,.F.);
#216=ORIENTED_EDGE('',*,*,#293,.T.);
#217=ORIENTED_EDGE('',*,*,#391,.T.);
#218=ORIENTED_EDGE('',*,*,#306,.F.);
#219=ORIENTED_EDGE('',*,*,#392,.F.);
#220=ORIENTED_EDGE('',*,*,#335,.F.);
#221=ORIENTED_EDGE('',*,*,#328,.T.);
#222=ORIENTED_EDGE('',*,*,#383,.F.);
#223=ORIENTED_EDGE('',*,*,#393,.T.);
#224=ORIENTED_EDGE('',*,*,#394,.T.);
#225=ORIENTED_EDGE('',*,*,#310,.T.);
#226=ORIENTED_EDGE('',*,*,#395,.F.);
#227=ORIENTED_EDGE('',*,*,#299,.F.);
#228=ORIENTED_EDGE('',*,*,#331,.T.);
#229=ORIENTED_EDGE('',*,*,#392,.T.);
#230=ORIENTED_EDGE('',*,*,#311,.T.);
#231=ORIENTED_EDGE('',*,*,#394,.F.);
#232=ORIENTED_EDGE('',*,*,#396,.F.);
#233=ORIENTED_EDGE('',*,*,#397,.F.);
#234=ORIENTED_EDGE('',*,*,#398,.T.);
#235=ORIENTED_EDGE('',*,*,#399,.T.);
#236=ORIENTED_EDGE('',*,*,#324,.F.);
#237=ORIENTED_EDGE('',*,*,#400,.F.);
#238=ORIENTED_EDGE('',*,*,#317,.F.);
#239=ORIENTED_EDGE('',*,*,#318,.T.);
#240=ORIENTED_EDGE('',*,*,#400,.T.);
#241=ORIENTED_EDGE('',*,*,#327,.T.);
#242=ORIENTED_EDGE('',*,*,#401,.F.);
#243=ORIENTED_EDGE('',*,*,#319,.T.);
#244=ORIENTED_EDGE('',*,*,#401,.T.);
#245=ORIENTED_EDGE('',*,*,#326,.T.);
#246=ORIENTED_EDGE('',*,*,#402,.F.);
#247=ORIENTED_EDGE('',*,*,#402,.T.);
#248=ORIENTED_EDGE('',*,*,#325,.F.);
#249=ORIENTED_EDGE('',*,*,#399,.F.);
#250=ORIENTED_EDGE('',*,*,#316,.F.);
#251=ORIENTED_EDGE('',*,*,#395,.T.);
#252=ORIENTED_EDGE('',*,*,#309,.T.);
#253=ORIENTED_EDGE('',*,*,#403,.F.);
#254=ORIENTED_EDGE('',*,*,#300,.F.);
#255=ORIENTED_EDGE('',*,*,#301,.T.);
#256=ORIENTED_EDGE('',*,*,#403,.T.);
#257=ORIENTED_EDGE('',*,*,#308,.F.);
#258=ORIENTED_EDGE('',*,*,#404,.F.);
#259=ORIENTED_EDGE('',*,*,#292,.T.);
#260=ORIENTED_EDGE('',*,*,#404,.T.);
#261=ORIENTED_EDGE('',*,*,#307,.F.);
#262=ORIENTED_EDGE('',*,*,#391,.F.);
#263=ORIENTED_EDGE('',*,*,#405,.F.);
#264=ORIENTED_EDGE('',*,*,#346,.T.);
#265=ORIENTED_EDGE('',*,*,#405,.T.);
#266=ORIENTED_EDGE('',*,*,#406,.F.);
#267=ORIENTED_EDGE('',*,*,#345,.T.);
#268=ORIENTED_EDGE('',*,*,#406,.T.);
#269=ORIENTED_EDGE('',*,*,#407,.F.);
#270=ORIENTED_EDGE('',*,*,#344,.T.);
#271=ORIENTED_EDGE('',*,*,#407,.T.);
#272=ORIENTED_EDGE('',*,*,#408,.F.);
#273=ORIENTED_EDGE('',*,*,#343,.T.);
#274=ORIENTED_EDGE('',*,*,#408,.T.);
#275=ORIENTED_EDGE('',*,*,#393,.F.);
#276=ORIENTED_EDGE('',*,*,#382,.F.);
#277=ORIENTED_EDGE('',*,*,#409,.F.);
#278=ORIENTED_EDGE('',*,*,#410,.T.);
#279=ORIENTED_EDGE('',*,*,#396,.T.);
#280=ORIENTED_EDGE('',*,*,#411,.F.);
#281=ORIENTED_EDGE('',*,*,#412,.T.);
#282=ORIENTED_EDGE('',*,*,#409,.T.);
#283=ORIENTED_EDGE('',*,*,#350,.T.);
#284=ORIENTED_EDGE('',*,*,#349,.F.);
#285=ORIENTED_EDGE('',*,*,#398,.F.);
#286=ORIENTED_EDGE('',*,*,#413,.F.);
#287=ORIENTED_EDGE('',*,*,#411,.T.);
#288=ORIENTED_EDGE('',*,*,#410,.F.);
#289=ORIENTED_EDGE('',*,*,#412,.F.);
#290=ORIENTED_EDGE('',*,*,#413,.T.);
#291=ORIENTED_EDGE('',*,*,#397,.T.);
#292=EDGE_CURVE('',#414,#415,#500,.T.);
#293=EDGE_CURVE('',#416,#414,#501,.T.);
#294=EDGE_CURVE('',#417,#416,#502,.T.);
#295=EDGE_CURVE('',#417,#418,#503,.T.);
#296=EDGE_CURVE('',#418,#419,#504,.T.);
#297=EDGE_CURVE('',#420,#419,#505,.T.);
#298=EDGE_CURVE('',#421,#420,#506,.T.);
#299=EDGE_CURVE('',#421,#422,#507,.T.);
#300=EDGE_CURVE('',#422,#423,#508,.T.);
#301=EDGE_CURVE('',#415,#423,#509,.T.);
#302=EDGE_CURVE('',#424,#425,#510,.T.);
#303=EDGE_CURVE('',#425,#426,#511,.T.);
#304=EDGE_CURVE('',#427,#426,#512,.T.);
#305=EDGE_CURVE('',#427,#424,#513,.F.);
#306=EDGE_CURVE('',#428,#429,#514,.T.);
#307=EDGE_CURVE('',#429,#430,#515,.T.);
#308=EDGE_CURVE('',#430,#431,#516,.T.);
#309=EDGE_CURVE('',#432,#431,#517,.T.);
#310=EDGE_CURVE('',#433,#432,#518,.T.);
#311=EDGE_CURVE('',#428,#433,#519,.T.);
#312=EDGE_CURVE('',#434,#435,#520,.T.);
#313=EDGE_CURVE('',#434,#436,#521,.T.);
#314=EDGE_CURVE('',#436,#437,#522,.T.);
#315=EDGE_CURVE('',#435,#437,#523,.T.);
#316=EDGE_CURVE('',#438,#439,#524,.T.);
#317=EDGE_CURVE('',#439,#440,#525,.T.);
#318=EDGE_CURVE('',#441,#440,#526,.T.);
#319=EDGE_CURVE('',#438,#441,#527,.T.);
#320=EDGE_CURVE('',#442,#443,#528,.T.);
#321=EDGE_CURVE('',#442,#444,#529,.T.);
#322=EDGE_CURVE('',#444,#445,#530,.T.);
#323=EDGE_CURVE('',#445,#443,#531,.F.);
#324=EDGE_CURVE('',#446,#447,#532,.T.);
#325=EDGE_CURVE('',#447,#448,#533,.T.);
#326=EDGE_CURVE('',#449,#448,#534,.T.);
#327=EDGE_CURVE('',#446,#449,#535,.T.);
#328=EDGE_CURVE('',#450,#416,#536,.T.);
#329=EDGE_CURVE('',#451,#450,#537,.T.);
#330=EDGE_CURVE('',#417,#451,#538,.T.);
#331=EDGE_CURVE('',#452,#453,#539,.T.);
#332=EDGE_CURVE('',#454,#452,#540,.T.);
#333=EDGE_CURVE('',#455,#454,#541,.T.);
#334=EDGE_CURVE('',#455,#451,#542,.T.);
#335=EDGE_CURVE('',#450,#453,#543,.T.);
#336=EDGE_CURVE('',#456,#457,#544,.T.);
#337=EDGE_CURVE('',#455,#456,#545,.T.);
#338=EDGE_CURVE('',#454,#457,#546,.T.);
#339=EDGE_CURVE('',#458,#459,#547,.T.);
#340=EDGE_CURVE('',#458,#460,#548,.T.);
#341=EDGE_CURVE('',#460,#461,#549,.T.);
#342=EDGE_CURVE('',#459,#461,#550,.T.);
#343=EDGE_CURVE('',#462,#462,#24,.T.);
#344=EDGE_CURVE('',#463,#463,#25,.T.);
#345=EDGE_CURVE('',#464,#464,#26,.T.);
#346=EDGE_CURVE('',#465,#465,#27,.T.);
#347=EDGE_CURVE('',#436,#466,#551,.T.);
#348=EDGE_CURVE('',#457,#466,#552,.T.);
#349=EDGE_CURVE('',#452,#467,#553,.T.);
#350=EDGE_CURVE('',#468,#467,#554,.T.);
#351=EDGE_CURVE('',#420,#468,#555,.T.);
#352=EDGE_CURVE('',#419,#469,#556,.T.);
#353=EDGE_CURVE('',#459,#469,#557,.T.);
#354=EDGE_CURVE('',#461,#470,#558,.T.);
#355=EDGE_CURVE('',#437,#470,#559,.T.);
#356=EDGE_CURVE('',#471,#471,#28,.T.);
#357=EDGE_CURVE('',#472,#472,#29,.T.);
#358=EDGE_CURVE('',#473,#473,#30,.T.);
#359=EDGE_CURVE('',#474,#474,#31,.T.);
#360=EDGE_CURVE('',#458,#475,#560,.T.);
#361=EDGE_CURVE('',#418,#475,#561,.T.);
#362=EDGE_CURVE('',#456,#476,#562,.T.);
#363=EDGE_CURVE('',#434,#476,#563,.T.);
#364=EDGE_CURVE('',#435,#477,#564,.T.);
#365=EDGE_CURVE('',#460,#477,#565,.T.);
#366=EDGE_CURVE('',#444,#478,#32,.F.);
#367=EDGE_CURVE('',#478,#479,#566,.T.);
#368=EDGE_CURVE('',#479,#427,#33,.F.);
#369=EDGE_CURVE('',#426,#480,#34,.F.);
#370=EDGE_CURVE('',#481,#480,#567,.T.);
#371=EDGE_CURVE('',#481,#445,#35,.F.);
#372=EDGE_CURVE('',#478,#482,#568,.F.);
#373=EDGE_CURVE('',#482,#483,#569,.T.);
#374=EDGE_CURVE('',#483,#479,#570,.T.);
#375=EDGE_CURVE('',#484,#485,#571,.T.);
#376=EDGE_CURVE('',#484,#481,#572,.T.);
#377=EDGE_CURVE('',#480,#485,#573,.F.);
#378=EDGE_CURVE('',#482,#442,#36,.T.);
#379=EDGE_CURVE('',#443,#484,#37,.T.);
#380=EDGE_CURVE('',#485,#425,#38,.T.);
#381=EDGE_CURVE('',#424,#483,#39,.T.);
#382=EDGE_CURVE('',#468,#486,#574,.T.);
#383=EDGE_CURVE('',#486,#421,#575,.T.);
#384=EDGE_CURVE('',#477,#470,#576,.T.);
#385=EDGE_CURVE('',#475,#469,#577,.T.);
#386=EDGE_CURVE('',#476,#466,#578,.T.);
#387=EDGE_CURVE('',#487,#487,#40,.T.);
#388=EDGE_CURVE('',#488,#488,#41,.T.);
#389=EDGE_CURVE('',#489,#489,#42,.T.);
#390=EDGE_CURVE('',#490,#490,#43,.T.);
#391=EDGE_CURVE('',#414,#429,#579,.T.);
#392=EDGE_CURVE('',#453,#428,#580,.T.);
#393=EDGE_CURVE('',#486,#491,#581,.T.);
#394=EDGE_CURVE('',#491,#433,#582,.T.);
#395=EDGE_CURVE('',#422,#432,#583,.T.);
#396=EDGE_CURVE('',#492,#491,#584,.T.);
#397=EDGE_CURVE('',#493,#492,#585,.T.);
#398=EDGE_CURVE('',#493,#452,#586,.T.);
#399=EDGE_CURVE('',#439,#447,#587,.T.);
#400=EDGE_CURVE('',#440,#446,#588,.T.);
#401=EDGE_CURVE('',#441,#449,#589,.T.);
#402=EDGE_CURVE('',#438,#448,#590,.T.);
#403=EDGE_CURVE('',#423,#431,#591,.T.);
#404=EDGE_CURVE('',#415,#430,#592,.T.);
#405=EDGE_CURVE('',#494,#494,#44,.T.);
#406=EDGE_CURVE('',#495,#495,#45,.T.);
#407=EDGE_CURVE('',#496,#496,#46,.T.);
#408=EDGE_CURVE('',#497,#497,#47,.T.);
#409=EDGE_CURVE('',#498,#468,#593,.T.);
#410=EDGE_CURVE('',#498,#492,#594,.T.);
#411=EDGE_CURVE('',#499,#467,#595,.T.);
#412=EDGE_CURVE('',#499,#498,#596,.T.);
#413=EDGE_CURVE('',#499,#493,#597,.T.);
#414=VERTEX_POINT('',#1290);
#415=VERTEX_POINT('',#1291);
#416=VERTEX_POINT('',#1293);
#417=VERTEX_POINT('',#1295);
#418=VERTEX_POINT('',#1297);
#419=VERTEX_POINT('',#1299);
#420=VERTEX_POINT('',#1301);
#421=VERTEX_POINT('',#1303);
#422=VERTEX_POINT('',#1305);
#423=VERTEX_POINT('',#1307);
#424=VERTEX_POINT('',#1311);
#425=VERTEX_POINT('',#1312);
#426=VERTEX_POINT('',#1314);
#427=VERTEX_POINT('',#1316);
#428=VERTEX_POINT('',#1319);
#429=VERTEX_POINT('',#1320);
#430=VERTEX_POINT('',#1322);
#431=VERTEX_POINT('',#1324);
#432=VERTEX_POINT('',#1326);
#433=VERTEX_POINT('',#1328);
#434=VERTEX_POINT('',#1332);
#435=VERTEX_POINT('',#1333);
#436=VERTEX_POINT('',#1335);
#437=VERTEX_POINT('',#1337);
#438=VERTEX_POINT('',#1340);
#439=VERTEX_POINT('',#1341);
#440=VERTEX_POINT('',#1343);
#441=VERTEX_POINT('',#1345);
#442=VERTEX_POINT('',#1349);
#443=VERTEX_POINT('',#1350);
#444=VERTEX_POINT('',#1352);
#445=VERTEX_POINT('',#1354);
#446=VERTEX_POINT('',#1357);
#447=VERTEX_POINT('',#1358);
#448=VERTEX_POINT('',#1360);
#449=VERTEX_POINT('',#1362);
#450=VERTEX_POINT('',#1366);
#451=VERTEX_POINT('',#1368);
#452=VERTEX_POINT('',#1372);
#453=VERTEX_POINT('',#1373);
#454=VERTEX_POINT('',#1375);
#455=VERTEX_POINT('',#1377);
#456=VERTEX_POINT('',#1382);
#457=VERTEX_POINT('',#1383);
#458=VERTEX_POINT('',#1388);
#459=VERTEX_POINT('',#1389);
#460=VERTEX_POINT('',#1391);
#461=VERTEX_POINT('',#1393);
#462=VERTEX_POINT('',#1397);
#463=VERTEX_POINT('',#1399);
#464=VERTEX_POINT('',#1401);
#465=VERTEX_POINT('',#1403);
#466=VERTEX_POINT('',#1405);
#467=VERTEX_POINT('',#1408);
#468=VERTEX_POINT('',#1410);
#469=VERTEX_POINT('',#1413);
#470=VERTEX_POINT('',#1416);
#471=VERTEX_POINT('',#1420);
#472=VERTEX_POINT('',#1422);
#473=VERTEX_POINT('',#1424);
#474=VERTEX_POINT('',#1426);
#475=VERTEX_POINT('',#1428);
#476=VERTEX_POINT('',#1431);
#477=VERTEX_POINT('',#1434);
#478=VERTEX_POINT('',#1437);
#479=VERTEX_POINT('',#1439);
#480=VERTEX_POINT('',#1442);
#481=VERTEX_POINT('',#1444);
#482=VERTEX_POINT('',#1448);
#483=VERTEX_POINT('',#1450);
#484=VERTEX_POINT('',#1454);
#485=VERTEX_POINT('',#1455);
#486=VERTEX_POINT('',#1465);
#487=VERTEX_POINT('',#1478);
#488=VERTEX_POINT('',#1482);
#489=VERTEX_POINT('',#1486);
#490=VERTEX_POINT('',#1490);
#491=VERTEX_POINT('',#1501);
#492=VERTEX_POINT('',#1506);
#493=VERTEX_POINT('',#1508);
#494=VERTEX_POINT('',#1525);
#495=VERTEX_POINT('',#1529);
#496=VERTEX_POINT('',#1533);
#497=VERTEX_POINT('',#1537);
#498=VERTEX_POINT('',#1541);
#499=VERTEX_POINT('',#1545);
#500=LINE('',#1289,#598);
#501=LINE('',#1292,#599);
#502=LINE('',#1294,#600);
#503=LINE('',#1296,#601);
#504=LINE('',#1298,#602);
#505=LINE('',#1300,#603);
#506=LINE('',#1302,#604);
#507=LINE('',#1304,#605);
#508=LINE('',#1306,#606);
#509=LINE('',#1308,#607);
#510=LINE('',#1310,#608);
#511=LINE('',#1313,#609);
#512=LINE('',#1315,#610);
#513=LINE('',#1317,#611);
#514=LINE('',#1318,#612);
#515=LINE('',#1321,#613);
#516=LINE('',#1323,#614);
#517=LINE('',#1325,#615);
#518=LINE('',#1327,#616);
#519=LINE('',#1329,#617);
#520=LINE('',#1331,#618);
#521=LINE('',#1334,#619);
#522=LINE('',#1336,#620);
#523=LINE('',#1338,#621);
#524=LINE('',#1339,#622);
#525=LINE('',#1342,#623);
#526=LINE('',#1344,#624);
#527=LINE('',#1346,#625);
#528=LINE('',#1348,#626);
#529=LINE('',#1351,#627);
#530=LINE('',#1353,#628);
#531=LINE('',#1355,#629);
#532=LINE('',#1356,#630);
#533=LINE('',#1359,#631);
#534=LINE('',#1361,#632);
#535=LINE('',#1363,#633);
#536=LINE('',#1365,#634);
#537=LINE('',#1367,#635);
#538=LINE('',#1369,#636);
#539=LINE('',#1371,#637);
#540=LINE('',#1374,#638);
#541=LINE('',#1376,#639);
#542=LINE('',#1378,#640);
#543=LINE('',#1379,#641);
#544=LINE('',#1381,#642);
#545=LINE('',#1384,#643);
#546=LINE('',#1385,#644);
#547=LINE('',#1387,#645);
#548=LINE('',#1390,#646);
#549=LINE('',#1392,#647);
#550=LINE('',#1394,#648);
#551=LINE('',#1404,#649);
#552=LINE('',#1406,#650);
#553=LINE('',#1407,#651);
#554=LINE('',#1409,#652);
#555=LINE('',#1411,#653);
#556=LINE('',#1412,#654);
#557=LINE('',#1414,#655);
#558=LINE('',#1415,#656);
#559=LINE('',#1417,#657);
#560=LINE('',#1427,#658);
#561=LINE('',#1429,#659);
#562=LINE('',#1430,#660);
#563=LINE('',#1432,#661);
#564=LINE('',#1433,#662);
#565=LINE('',#1435,#663);
#566=LINE('',#1438,#664);
#567=LINE('',#1443,#665);
#568=LINE('',#1447,#666);
#569=LINE('',#1449,#667);
#570=LINE('',#1451,#668);
#571=LINE('',#1453,#669);
#572=LINE('',#1456,#670);
#573=LINE('',#1457,#671);
#574=LINE('',#1464,#672);
#575=LINE('',#1466,#673);
#576=LINE('',#1468,#674);
#577=LINE('',#1471,#675);
#578=LINE('',#1474,#676);
#579=LINE('',#1497,#677);
#580=LINE('',#1498,#678);
#581=LINE('',#1500,#679);
#582=LINE('',#1502,#680);
#583=LINE('',#1503,#681);
#584=LINE('',#1505,#682);
#585=LINE('',#1507,#683);
#586=LINE('',#1509,#684);
#587=LINE('',#1511,#685);
#588=LINE('',#1512,#686);
#589=LINE('',#1514,#687);
#590=LINE('',#1516,#688);
#591=LINE('',#1519,#689);
#592=LINE('',#1521,#690);
#593=LINE('',#1540,#691);
#594=LINE('',#1542,#692);
#595=LINE('',#1544,#693);
#596=LINE('',#1546,#694);
#597=LINE('',#1548,#695);
#598=VECTOR('',#1035,1000.);
#599=VECTOR('',#1036,1000.);
#600=VECTOR('',#1037,1000.);
#601=VECTOR('',#1038,1000.);
#602=VECTOR('',#1039,1000.);
#603=VECTOR('',#1040,1000.);
#604=VECTOR('',#1041,1000.);
#605=VECTOR('',#1042,1000.);
#606=VECTOR('',#1043,1000.);
#607=VECTOR('',#1044,1000.);
#608=VECTOR('',#1047,1000.);
#609=VECTOR('',#1048,1000.);
#610=VECTOR('',#1049,1000.);
#611=VECTOR('',#1050,1000.);
#612=VECTOR('',#1051,1000.);
#613=VECTOR('',#1052,1000.);
#614=VECTOR('',#1053,1000.);
#615=VECTOR('',#1054,1000.);
#616=VECTOR('',#1055,1000.);
#617=VECTOR('',#1056,1000.);
#618=VECTOR('',#1059,1000.);
#619=VECTOR('',#1060,1000.);
#620=VECTOR('',#1061,1000.);
#621=VECTOR('',#1062,1000.);
#622=VECTOR('',#1063,1000.);
#623=VECTOR('',#1064,1000.);
#624=VECTOR('',#1065,1000.);
#625=VECTOR('',#1066,1000.);
#626=VECTOR('',#1069,1000.);
#627=VECTOR('',#1070,1000.);
#628=VECTOR('',#1071,1000.);
#629=VECTOR('',#1072,1000.);
#630=VECTOR('',#1073,1000.);
#631=VECTOR('',#1074,1000.);
#632=VECTOR('',#1075,1000.);
#633=VECTOR('',#1076,1000.);
#634=VECTOR('',#1079,1000.);
#635=VECTOR('',#1080,1000.);
#636=VECTOR('',#1081,1000.);
#637=VECTOR('',#1084,1000.);
#638=VECTOR('',#1085,1000.);
#639=VECTOR('',#1086,1000.);
#640=VECTOR('',#1087,1000.);
#641=VECTOR('',#1088,1000.);
#642=VECTOR('',#1091,1000.);
#643=VECTOR('',#1092,1000.);
#644=VECTOR('',#1093,1000.);
#645=VECTOR('',#1096,1000.);
#646=VECTOR('',#1097,1000.);
#647=VECTOR('',#1098,1000.);
#648=VECTOR('',#1099,1000.);
#649=VECTOR('',#1110,1000.);
#650=VECTOR('',#1111,1000.);
#651=VECTOR('',#1112,1000.);
#652=VECTOR('',#1113,1000.);
#653=VECTOR('',#1114,1000.);
#654=VECTOR('',#1115,1000.);
#655=VECTOR('',#1116,1000.);
#656=VECTOR('',#1117,1000.);
#657=VECTOR('',#1118,1000.);
#658=VECTOR('',#1129,1000.);
#659=VECTOR('',#1130,1000.);
#660=VECTOR('',#1131,1000.);
#661=VECTOR('',#1132,1000.);
#662=VECTOR('',#1133,1000.);
#663=VECTOR('',#1134,1000.);
#664=VECTOR('',#1137,1000.);
#665=VECTOR('',#1142,1000.);
#666=VECTOR('',#1147,1000.);
#667=VECTOR('',#1148,1000.);
#668=VECTOR('',#1149,1000.);
#669=VECTOR('',#1152,1000.);
#670=VECTOR('',#1153,1000.);
#671=VECTOR('',#1154,1000.);
#672=VECTOR('',#1167,1000.);
#673=VECTOR('',#1168,1000.);
#674=VECTOR('',#1171,1000.);
#675=VECTOR('',#1176,1000.);
#676=VECTOR('',#1181,1000.);
#677=VECTOR('',#1218,1000.);
#678=VECTOR('',#1219,1000.);
#679=VECTOR('',#1222,1000.);
#680=VECTOR('',#1223,1000.);
#681=VECTOR('',#1224,1000.);
#682=VECTOR('',#1227,1000.);
#683=VECTOR('',#1228,1000.);
#684=VECTOR('',#1229,1000.);
#685=VECTOR('',#1232,1000.);
#686=VECTOR('',#1233,1000.);
#687=VECTOR('',#1236,1000.);
#688=VECTOR('',#1239,1000.);
#689=VECTOR('',#1244,1000.);
#690=VECTOR('',#1247,1000.);
#691=VECTOR('',#1276,1000.);
#692=VECTOR('',#1277,1000.);
#693=VECTOR('',#1280,1000.);
#694=VECTOR('',#1281,1000.);
#695=VECTOR('',#1284,1000.);
#696=EDGE_LOOP('',(#48,#49,#50,#51,#52,#53,#54,#55,#56,#57));
#697=EDGE_LOOP('',(#58,#59,#60,#61));
#698=EDGE_LOOP('',(#62,#63,#64,#65,#66,#67));
#699=EDGE_LOOP('',(#68,#69,#70,#71));
#700=EDGE_LOOP('',(#72,#73,#74,#75));
#701=EDGE_LOOP('',(#76,#77,#78,#79));
#702=EDGE_LOOP('',(#80,#81,#82,#83));
#703=EDGE_LOOP('',(#84,#85,#86,#87));
#704=EDGE_LOOP('',(#88,#89,#90,#91,#92,#93));
#705=EDGE_LOOP('',(#94,#95,#96,#97));
#706=EDGE_LOOP('',(#98,#99,#100,#101));
#707=EDGE_LOOP('',(#102));
#708=EDGE_LOOP('',(#103));
#709=EDGE_LOOP('',(#104));
#710=EDGE_LOOP('',(#105));
#711=EDGE_LOOP('',(#106,#107,#108,#109,#110,#111,#112,#113,#114,#115,#116,
#117,#118,#119));
#712=EDGE_LOOP('',(#120));
#713=EDGE_LOOP('',(#121));
#714=EDGE_LOOP('',(#122));
#715=EDGE_LOOP('',(#123));
#716=EDGE_LOOP('',(#124,#125,#126,#127,#128,#129,#130,#131,#132,#133,#134,
#135));
#717=EDGE_LOOP('',(#136,#137,#138,#139,#140,#141,#142,#143));
#718=EDGE_LOOP('',(#144,#145,#146,#147));
#719=EDGE_LOOP('',(#148,#149,#150,#151));
#720=EDGE_LOOP('',(#152,#153,#154,#155,#156,#157,#158,#159));
#721=EDGE_LOOP('',(#160,#161,#162,#163));
#722=EDGE_LOOP('',(#164,#165,#166,#167));
#723=EDGE_LOOP('',(#168,#169,#170,#171));
#724=EDGE_LOOP('',(#172,#173,#174,#175));
#725=EDGE_LOOP('',(#176,#177,#178,#179));
#726=EDGE_LOOP('',(#180,#181,#182,#183));
#727=EDGE_LOOP('',(#184,#185,#186,#187));
#728=EDGE_LOOP('',(#188));
#729=EDGE_LOOP('',(#189));
#730=EDGE_LOOP('',(#190));
#731=EDGE_LOOP('',(#191));
#732=EDGE_LOOP('',(#192));
#733=EDGE_LOOP('',(#193));
#734=EDGE_LOOP('',(#194));
#735=EDGE_LOOP('',(#195));
#736=EDGE_LOOP('',(#196));
#737=EDGE_LOOP('',(#197));
#738=EDGE_LOOP('',(#198));
#739=EDGE_LOOP('',(#199));
#740=EDGE_LOOP('',(#200,#201,#202,#203));
#741=EDGE_LOOP('',(#204,#205,#206,#207));
#742=EDGE_LOOP('',(#208,#209,#210,#211));
#743=EDGE_LOOP('',(#212,#213,#214,#215));
#744=EDGE_LOOP('',(#216,#217,#218,#219,#220,#221));
#745=EDGE_LOOP('',(#222,#223,#224,#225,#226,#227));
#746=EDGE_LOOP('',(#228,#229,#230,#231,#232,#233,#234));
#747=EDGE_LOOP('',(#235,#236,#237,#238));
#748=EDGE_LOOP('',(#239,#240,#241,#242));
#749=EDGE_LOOP('',(#243,#244,#245,#246));
#750=EDGE_LOOP('',(#247,#248,#249,#250));
#751=EDGE_LOOP('',(#251,#252,#253,#254));
#752=EDGE_LOOP('',(#255,#256,#257,#258));
#753=EDGE_LOOP('',(#259,#260,#261,#262));
#754=EDGE_LOOP('',(#263));
#755=EDGE_LOOP('',(#264));
#756=EDGE_LOOP('',(#265));
#757=EDGE_LOOP('',(#266));
#758=EDGE_LOOP('',(#267));
#759=EDGE_LOOP('',(#268));
#760=EDGE_LOOP('',(#269));
#761=EDGE_LOOP('',(#270));
#762=EDGE_LOOP('',(#271));
#763=EDGE_LOOP('',(#272));
#764=EDGE_LOOP('',(#273));
#765=EDGE_LOOP('',(#274));
#766=EDGE_LOOP('',(#275,#276,#277,#278,#279));
#767=EDGE_LOOP('',(#280,#281,#282,#283));
#768=EDGE_LOOP('',(#284,#285,#286,#287));
#769=EDGE_LOOP('',(#288,#289,#290,#291));
#770=FACE_BOUND('',#696,.T.);
#771=FACE_BOUND('',#697,.T.);
#772=FACE_BOUND('',#698,.T.);
#773=FACE_BOUND('',#699,.T.);
#774=FACE_BOUND('',#700,.T.);
#775=FACE_BOUND('',#701,.T.);
#776=FACE_BOUND('',#702,.T.);
#777=FACE_BOUND('',#703,.T.);
#778=FACE_BOUND('',#704,.T.);
#779=FACE_BOUND('',#705,.T.);
#780=FACE_BOUND('',#706,.T.);
#781=FACE_BOUND('',#707,.T.);
#782=FACE_BOUND('',#708,.T.);
#783=FACE_BOUND('',#709,.T.);
#784=FACE_BOUND('',#710,.T.);
#785=FACE_BOUND('',#711,.T.);
#786=FACE_BOUND('',#712,.T.);
#787=FACE_BOUND('',#713,.T.);
#788=FACE_BOUND('',#714,.T.);
#789=FACE_BOUND('',#715,.T.);
#790=FACE_BOUND('',#716,.T.);
#791=FACE_BOUND('',#717,.T.);
#792=FACE_BOUND('',#718,.T.);
#793=FACE_BOUND('',#719,.T.);
#794=FACE_BOUND('',#720,.T.);
#795=FACE_BOUND('',#721,.T.);
#796=FACE_BOUND('',#722,.T.);
#797=FACE_BOUND('',#723,.T.);
#798=FACE_BOUND('',#724,.T.);
#799=FACE_BOUND('',#725,.T.);
#800=FACE_BOUND('',#726,.T.);
#801=FACE_BOUND('',#727,.T.);
#802=FACE_BOUND('',#728,.T.);
#803=FACE_BOUND('',#729,.T.);
#804=FACE_BOUND('',#730,.T.);
#805=FACE_BOUND('',#731,.T.);
#806=FACE_BOUND('',#732,.T.);
#807=FACE_BOUND('',#733,.T.);
#808=FACE_BOUND('',#734,.T.);
#809=FACE_BOUND('',#735,.T.);
#810=FACE_BOUND('',#736,.T.);
#811=FACE_BOUND('',#737,.T.);
#812=FACE_BOUND('',#738,.T.);
#813=FACE_BOUND('',#739,.T.);
#814=FACE_BOUND('',#740,.T.);
#815=FACE_BOUND('',#741,.T.);
#816=FACE_BOUND('',#742,.T.);
#817=FACE_BOUND('',#743,.T.);
#818=FACE_BOUND('',#744,.T.);
#819=FACE_BOUND('',#745,.T.);
#820=FACE_BOUND('',#746,.T.);
#821=FACE_BOUND('',#747,.T.);
#822=FACE_BOUND('',#748,.T.);
#823=FACE_BOUND('',#749,.T.);
#824=FACE_BOUND('',#750,.T.);
#825=FACE_BOUND('',#751,.T.);
#826=FACE_BOUND('',#752,.T.);
#827=FACE_BOUND('',#753,.T.);
#828=FACE_BOUND('',#754,.T.);
#829=FACE_BOUND('',#755,.T.);
#830=FACE_BOUND('',#756,.T.);
#831=FACE_BOUND('',#757,.T.);
#832=FACE_BOUND('',#758,.T.);
#833=FACE_BOUND('',#759,.T.);
#834=FACE_BOUND('',#760,.T.);
#835=FACE_BOUND('',#761,.T.);
#836=FACE_BOUND('',#762,.T.);
#837=FACE_BOUND('',#763,.T.);
#838=FACE_BOUND('',#764,.T.);
#839=FACE_BOUND('',#765,.T.);
#840=FACE_BOUND('',#766,.T.);
#841=FACE_BOUND('',#767,.T.);
#842=FACE_BOUND('',#768,.T.);
#843=FACE_BOUND('',#769,.T.);
#844=PLANE('',#953);
#845=PLANE('',#954);
#846=PLANE('',#955);
#847=PLANE('',#956);
#848=PLANE('',#957);
#849=PLANE('',#958);
#850=PLANE('',#959);
#851=PLANE('',#960);
#852=PLANE('',#961);
#853=PLANE('',#966);
#854=PLANE('',#975);
#855=PLANE('',#976);
#856=PLANE('',#977);
#857=PLANE('',#982);
#858=PLANE('',#983);
#859=PLANE('',#984);
#860=PLANE('',#985);
#861=PLANE('',#986);
#862=PLANE('',#987);
#863=PLANE('',#988);
#864=PLANE('',#991);
#865=PLANE('',#994);
#866=PLANE('',#997);
#867=PLANE('',#1000);
#868=PLANE('',#1005);
#869=PLANE('',#1006);
#870=PLANE('',#1007);
#871=PLANE('',#1008);
#872=PLANE('',#1009);
#873=PLANE('',#1010);
#874=PLANE('',#1011);
#875=PLANE('',#1012);
#876=PLANE('',#1013);
#877=PLANE('',#1014);
#878=PLANE('',#1017);
#879=PLANE('',#1020);
#880=PLANE('',#1023);
#881=PLANE('',#1026);
#882=PLANE('',#1027);
#883=PLANE('',#1028);
#884=PLANE('',#1029);
#885=PLANE('',#1030);
#886=ADVANCED_FACE('',(#770),#844,.F.);
#887=ADVANCED_FACE('',(#771,#772),#845,.T.);
#888=ADVANCED_FACE('',(#773,#774),#846,.T.);
#889=ADVANCED_FACE('',(#775,#776),#847,.F.);
#890=ADVANCED_FACE('',(#777),#848,.F.);
#891=ADVANCED_FACE('',(#778),#849,.T.);
#892=ADVANCED_FACE('',(#779),#850,.T.);
#893=ADVANCED_FACE('',(#780),#851,.F.);
#894=ADVANCED_FACE('',(#781,#782,#783,#784,#785),#852,.T.);
#895=ADVANCED_FACE('',(#786,#787,#788,#789,#790,#791),#853,.F.);
#896=ADVANCED_FACE('',(#792),#854,.T.);
#897=ADVANCED_FACE('',(#793),#855,.F.);
#898=ADVANCED_FACE('',(#794),#856,.T.);
#899=ADVANCED_FACE('',(#795),#857,.F.);
#900=ADVANCED_FACE('',(#796),#858,.F.);
#901=ADVANCED_FACE('',(#797),#859,.T.);
#902=ADVANCED_FACE('',(#798),#860,.T.);
#903=ADVANCED_FACE('',(#799),#861,.F.);
#904=ADVANCED_FACE('',(#800),#862,.T.);
#905=ADVANCED_FACE('',(#801),#863,.F.);
#906=ADVANCED_FACE('',(#802,#803),#12,.F.);
#907=ADVANCED_FACE('',(#804),#864,.T.);
#908=ADVANCED_FACE('',(#805,#806),#13,.F.);
#909=ADVANCED_FACE('',(#807),#865,.T.);
#910=ADVANCED_FACE('',(#808,#809),#14,.F.);
#911=ADVANCED_FACE('',(#810),#866,.T.);
#912=ADVANCED_FACE('',(#811,#812),#15,.F.);
#913=ADVANCED_FACE('',(#813),#867,.T.);
#914=ADVANCED_FACE('',(#814),#16,.T.);
#915=ADVANCED_FACE('',(#815),#17,.T.);
#916=ADVANCED_FACE('',(#816),#18,.T.);
#917=ADVANCED_FACE('',(#817),#19,.T.);
#918=ADVANCED_FACE('',(#818),#868,.T.);
#919=ADVANCED_FACE('',(#819),#869,.F.);
#920=ADVANCED_FACE('',(#820),#870,.F.);
#921=ADVANCED_FACE('',(#821),#871,.T.);
#922=ADVANCED_FACE('',(#822),#872,.F.);
#923=ADVANCED_FACE('',(#823),#873,.F.);
#924=ADVANCED_FACE('',(#824),#874,.T.);
#925=ADVANCED_FACE('',(#825),#875,.F.);
#926=ADVANCED_FACE('',(#826),#876,.T.);
#927=ADVANCED_FACE('',(#827),#877,.T.);
#928=ADVANCED_FACE('',(#828,#829),#20,.T.);
#929=ADVANCED_FACE('',(#830),#878,.T.);
#930=ADVANCED_FACE('',(#831,#832),#21,.T.);
#931=ADVANCED_FACE('',(#833),#879,.T.);
#932=ADVANCED_FACE('',(#834,#835),#22,.T.);
#933=ADVANCED_FACE('',(#836),#880,.T.);
#934=ADVANCED_FACE('',(#837,#838),#23,.T.);
#935=ADVANCED_FACE('',(#839),#881,.T.);
#936=ADVANCED_FACE('',(#840),#882,.T.);
#937=ADVANCED_FACE('',(#841),#883,.T.);
#938=ADVANCED_FACE('',(#842),#884,.F.);
#939=ADVANCED_FACE('',(#843),#885,.T.);
#940=CLOSED_SHELL('',(#886,#887,#888,#889,#890,#891,#892,#893,#894,#895,
#896,#897,#898,#899,#900,#901,#902,#903,#904,#905,#906,#907,#908,#909,#910,
#911,#912,#913,#914,#915,#916,#917,#918,#919,#920,#921,#922,#923,#924,#925,
#926,#927,#928,#929,#930,#931,#932,#933,#934,#935,#936,#937,#938,#939));
#941=STYLED_ITEM('',(#942),#949);
#942=PRESENTATION_STYLE_ASSIGNMENT((#943));
#943=SURFACE_STYLE_USAGE(.BOTH.,#944);
#944=SURFACE_SIDE_STYLE('',(#945));
#945=SURFACE_STYLE_FILL_AREA(#946);
#946=FILL_AREA_STYLE('',(#947));
#947=FILL_AREA_STYLE_COLOUR('',#948);
#948=COLOUR_RGB('',0.349019607843138,0.376470588235294,0.4);
#949=MANIFOLD_SOLID_BREP('Part 1',#940);
#950=SHAPE_DEFINITION_REPRESENTATION(#1556,#951);
#951=SHAPE_REPRESENTATION('Part 1',(#952),#1551);
#952=AXIS2_PLACEMENT_3D('',#1287,#1031,#1032);
#953=AXIS2_PLACEMENT_3D('',#1288,#1033,#1034);
#954=AXIS2_PLACEMENT_3D('',#1309,#1045,#1046);
#955=AXIS2_PLACEMENT_3D('',#1330,#1057,#1058);
#956=AXIS2_PLACEMENT_3D('',#1347,#1067,#1068);
#957=AXIS2_PLACEMENT_3D('',#1364,#1077,#1078);
#958=AXIS2_PLACEMENT_3D('',#1370,#1082,#1083);
#959=AXIS2_PLACEMENT_3D('',#1380,#1089,#1090);
#960=AXIS2_PLACEMENT_3D('',#1386,#1094,#1095);
#961=AXIS2_PLACEMENT_3D('',#1395,#1100,#1101);
#962=AXIS2_PLACEMENT_3D('',#1396,#1102,#1103);
#963=AXIS2_PLACEMENT_3D('',#1398,#1104,#1105);
#964=AXIS2_PLACEMENT_3D('',#1400,#1106,#1107);
#965=AXIS2_PLACEMENT_3D('',#1402,#1108,#1109);
#966=AXIS2_PLACEMENT_3D('',#1418,#1119,#1120);
#967=AXIS2_PLACEMENT_3D('',#1419,#1121,#1122);
#968=AXIS2_PLACEMENT_3D('',#1421,#1123,#1124);
#969=AXIS2_PLACEMENT_3D('',#1423,#1125,#1126);
#970=AXIS2_PLACEMENT_3D('',#1425,#1127,#1128);
#971=AXIS2_PLACEMENT_3D('',#1436,#1135,#1136);
#972=AXIS2_PLACEMENT_3D('',#1440,#1138,#1139);
#973=AXIS2_PLACEMENT_3D('',#1441,#1140,#1141);
#974=AXIS2_PLACEMENT_3D('',#1445,#1143,#1144);
#975=AXIS2_PLACEMENT_3D('',#1446,#1145,#1146);
#976=AXIS2_PLACEMENT_3D('',#1452,#1150,#1151);
#977=AXIS2_PLACEMENT_3D('',#1458,#1155,#1156);
#978=AXIS2_PLACEMENT_3D('',#1459,#1157,#1158);
#979=AXIS2_PLACEMENT_3D('',#1460,#1159,#1160);
#980=AXIS2_PLACEMENT_3D('',#1461,#1161,#1162);
#981=AXIS2_PLACEMENT_3D('',#1462,#1163,#1164);
#982=AXIS2_PLACEMENT_3D('',#1463,#1165,#1166);
#983=AXIS2_PLACEMENT_3D('',#1467,#1169,#1170);
#984=AXIS2_PLACEMENT_3D('',#1469,#1172,#1173);
#985=AXIS2_PLACEMENT_3D('',#1470,#1174,#1175);
#986=AXIS2_PLACEMENT_3D('',#1472,#1177,#1178);
#987=AXIS2_PLACEMENT_3D('',#1473,#1179,#1180);
#988=AXIS2_PLACEMENT_3D('',#1475,#1182,#1183);
#989=AXIS2_PLACEMENT_3D('',#1476,#1184,#1185);
#990=AXIS2_PLACEMENT_3D('',#1477,#1186,#1187);
#991=AXIS2_PLACEMENT_3D('',#1479,#1188,#1189);
#992=AXIS2_PLACEMENT_3D('',#1480,#1190,#1191);
#993=AXIS2_PLACEMENT_3D('',#1481,#1192,#1193);
#994=AXIS2_PLACEMENT_3D('',#1483,#1194,#1195);
#995=AXIS2_PLACEMENT_3D('',#1484,#1196,#1197);
#996=AXIS2_PLACEMENT_3D('',#1485,#1198,#1199);
#997=AXIS2_PLACEMENT_3D('',#1487,#1200,#1201);
#998=AXIS2_PLACEMENT_3D('',#1488,#1202,#1203);
#999=AXIS2_PLACEMENT_3D('',#1489,#1204,#1205);
#1000=AXIS2_PLACEMENT_3D('',#1491,#1206,#1207);
#1001=AXIS2_PLACEMENT_3D('',#1492,#1208,#1209);
#1002=AXIS2_PLACEMENT_3D('',#1493,#1210,#1211);
#1003=AXIS2_PLACEMENT_3D('',#1494,#1212,#1213);
#1004=AXIS2_PLACEMENT_3D('',#1495,#1214,#1215);
#1005=AXIS2_PLACEMENT_3D('',#1496,#1216,#1217);
#1006=AXIS2_PLACEMENT_3D('',#1499,#1220,#1221);
#1007=AXIS2_PLACEMENT_3D('',#1504,#1225,#1226);
#1008=AXIS2_PLACEMENT_3D('',#1510,#1230,#1231);
#1009=AXIS2_PLACEMENT_3D('',#1513,#1234,#1235);
#1010=AXIS2_PLACEMENT_3D('',#1515,#1237,#1238);
#1011=AXIS2_PLACEMENT_3D('',#1517,#1240,#1241);
#1012=AXIS2_PLACEMENT_3D('',#1518,#1242,#1243);
#1013=AXIS2_PLACEMENT_3D('',#1520,#1245,#1246);
#1014=AXIS2_PLACEMENT_3D('',#1522,#1248,#1249);
#1015=AXIS2_PLACEMENT_3D('',#1523,#1250,#1251);
#1016=AXIS2_PLACEMENT_3D('',#1524,#1252,#1253);
#1017=AXIS2_PLACEMENT_3D('',#1526,#1254,#1255);
#1018=AXIS2_PLACEMENT_3D('',#1527,#1256,#1257);
#1019=AXIS2_PLACEMENT_3D('',#1528,#1258,#1259);
#1020=AXIS2_PLACEMENT_3D('',#1530,#1260,#1261);
#1021=AXIS2_PLACEMENT_3D('',#1531,#1262,#1263);
#1022=AXIS2_PLACEMENT_3D('',#1532,#1264,#1265);
#1023=AXIS2_PLACEMENT_3D('',#1534,#1266,#1267);
#1024=AXIS2_PLACEMENT_3D('',#1535,#1268,#1269);
#1025=AXIS2_PLACEMENT_3D('',#1536,#1270,#1271);
#1026=AXIS2_PLACEMENT_3D('',#1538,#1272,#1273);
#1027=AXIS2_PLACEMENT_3D('',#1539,#1274,#1275);
#1028=AXIS2_PLACEMENT_3D('',#1543,#1278,#1279);
#1029=AXIS2_PLACEMENT_3D('',#1547,#1282,#1283);
#1030=AXIS2_PLACEMENT_3D('',#1549,#1285,#1286);
#1031=DIRECTION('',(0.,0.,1.));
#1032=DIRECTION('',(1.,0.,0.));
#1033=DIRECTION('',(1.,0.,0.));
#1034=DIRECTION('',(0.,0.,-1.));
#1035=DIRECTION('',(0.,0.,-1.));
#1036=DIRECTION('',(0.,-1.,0.));
#1037=DIRECTION('',(0.,0.,1.));
#1038=DIRECTION('',(0.,-1.,0.));
#1039=DIRECTION('',(0.,0.,1.));
#1040=DIRECTION('',(0.,-1.,0.));
#1041=DIRECTION('',(0.,0.,1.));
#1042=DIRECTION('',(0.,-1.,0.));
#1043=DIRECTION('',(0.,0.,-1.));
#1044=DIRECTION('',(0.,-1.,0.));
#1045=DIRECTION('',(1.,0.,0.));
#1046=DIRECTION('',(0.,0.,-1.));
#1047=DIRECTION('',(0.,-1.,0.));
#1048=DIRECTION('',(0.,0.,-1.));
#1049=DIRECTION('',(0.,-1.,0.));
#1050=DIRECTION('',(0.,0.,-1.));
#1051=DIRECTION('',(0.,-1.,0.));
#1052=DIRECTION('',(0.,0.,-1.));
#1053=DIRECTION('',(0.,-1.,0.));
#1054=DIRECTION('',(0.,0.,-1.));
#1055=DIRECTION('',(0.,-1.,0.));
#1056=DIRECTION('',(0.,0.,1.));
#1057=DIRECTION('',(1.,0.,0.));
#1058=DIRECTION('',(0.,0.,-1.));
#1059=DIRECTION('',(0.,-1.,0.));
#1060=DIRECTION('',(0.,0.,1.));
#1061=DIRECTION('',(0.,-1.,0.));
#1062=DIRECTION('',(0.,0.,1.));
#1063=DIRECTION('',(0.,0.,-1.));
#1064=DIRECTION('',(0.,-1.,0.));
#1065=DIRECTION('',(0.,0.,-1.));
#1066=DIRECTION('',(0.,-1.,0.));
#1067=DIRECTION('',(1.,0.,0.));
#1068=DIRECTION('',(0.,0.,-1.));
#1069=DIRECTION('',(0.,-1.,0.));
#1070=DIRECTION('',(0.,0.,-1.));
#1071=DIRECTION('',(0.,-1.,0.));
#1072=DIRECTION('',(0.,0.,-1.));
#1073=DIRECTION('',(0.,1.,0.));
#1074=DIRECTION('',(0.,0.,1.));
#1075=DIRECTION('',(0.,1.,0.));
#1076=DIRECTION('',(0.,0.,1.));
#1077=DIRECTION('',(0.,1.,0.));
#1078=DIRECTION('',(0.,0.,1.));
#1079=DIRECTION('',(1.,0.,0.));
#1080=DIRECTION('',(0.,0.,1.));
#1081=DIRECTION('',(-1.,0.,0.));
#1082=DIRECTION('',(-1.,0.,0.));
#1083=DIRECTION('',(0.,0.,1.));
#1084=DIRECTION('',(0.,0.,-1.));
#1085=DIRECTION('',(0.,-1.,0.));
#1086=DIRECTION('',(0.,0.,1.));
#1087=DIRECTION('',(0.,-1.,0.));
#1088=DIRECTION('',(0.,1.,0.));
#1089=DIRECTION('',(-1.46081976924363E-16,-1.,0.));
#1090=DIRECTION('',(1.,-1.46081976924363E-16,0.));
#1091=DIRECTION('',(0.,0.,1.));
#1092=DIRECTION('',(-1.,1.46081976924363E-16,0.));
#1093=DIRECTION('',(-1.,1.46081976924363E-16,0.));
#1094=DIRECTION('',(-1.46081976924363E-16,-1.,0.));
#1095=DIRECTION('',(1.,-1.46081976924363E-16,0.));
#1096=DIRECTION('',(0.,0.,1.));
#1097=DIRECTION('',(-1.,1.46081976924363E-16,0.));
#1098=DIRECTION('',(0.,0.,1.));
#1099=DIRECTION('',(-1.,1.46081976924363E-16,0.));
#1100=DIRECTION('',(0.,0.,-1.));
#1101=DIRECTION('',(1.,0.,0.));
#1102=DIRECTION('',(0.,0.,-1.));
#1103=DIRECTION('',(-1.,0.,0.));
#1104=DIRECTION('',(0.,0.,-1.));
#1105=DIRECTION('',(-1.,0.,0.));
#1106=DIRECTION('',(0.,0.,-1.));
#1107=DIRECTION('',(-1.,0.,0.));
#1108=DIRECTION('',(0.,0.,-1.));
#1109=DIRECTION('',(-1.,0.,0.));
#1110=DIRECTION('',(1.,0.,0.));
#1111=DIRECTION('',(0.,-1.,0.));
#1112=DIRECTION('',(0.,-1.,0.));
#1113=DIRECTION('',(-1.,0.,0.));
#1114=DIRECTION('',(-1.,0.,0.));
#1115=DIRECTION('',(-1.,0.,0.));
#1116=DIRECTION('',(0.,1.,0.));
#1117=DIRECTION('',(0.,1.,0.));
#1118=DIRECTION('',(1.,0.,0.));
#1119=DIRECTION('',(0.,0.,1.));
#1120=DIRECTION('',(1.,0.,0.));
#1121=DIRECTION('',(0.,0.,-1.));
#1122=DIRECTION('',(-1.,0.,0.));
#1123=DIRECTION('',(0.,0.,-1.));
#1124=DIRECTION('',(-1.,0.,0.));
#1125=DIRECTION('',(0.,0.,-1.));
#1126=DIRECTION('',(-1.,0.,0.));
#1127=DIRECTION('',(0.,0.,-1.));
#1128=DIRECTION('',(-1.,0.,0.));
#1129=DIRECTION('',(0.,1.,0.));
#1130=DIRECTION('',(-1.,0.,0.));
#1131=DIRECTION('',(0.,-1.,0.));
#1132=DIRECTION('',(1.,0.,0.));
#1133=DIRECTION('',(1.,0.,0.));
#1134=DIRECTION('',(0.,1.,0.));
#1135=DIRECTION('',(0.,0.,1.));
#1136=DIRECTION('',(1.,0.,0.));
#1137=DIRECTION('',(1.,0.,0.));
#1138=DIRECTION('',(0.,0.,1.));
#1139=DIRECTION('',(1.,0.,0.));
#1140=DIRECTION('',(0.,0.,1.));
#1141=DIRECTION('',(1.,0.,0.));
#1142=DIRECTION('',(1.,0.,0.));
#1143=DIRECTION('',(0.,0.,1.));
#1144=DIRECTION('',(1.,0.,0.));
#1145=DIRECTION('',(0.,1.,0.));
#1146=DIRECTION('',(0.,0.,1.));
#1147=DIRECTION('',(0.,0.,-1.));
#1148=DIRECTION('',(1.,0.,0.));
#1149=DIRECTION('',(0.,0.,-1.));
#1150=DIRECTION('',(0.,1.,0.));
#1151=DIRECTION('',(0.,0.,1.));
#1152=DIRECTION('',(1.,0.,0.));
#1153=DIRECTION('',(0.,0.,-1.));
#1154=DIRECTION('',(0.,0.,-1.));
#1155=DIRECTION('',(0.,0.,1.));
#1156=DIRECTION('',(1.,0.,0.));
#1157=DIRECTION('',(0.,0.,1.));
#1158=DIRECTION('',(1.,0.,0.));
#1159=DIRECTION('',(0.,0.,1.));
#1160=DIRECTION('',(1.,0.,0.));
#1161=DIRECTION('',(0.,0.,1.));
#1162=DIRECTION('',(1.,0.,0.));
#1163=DIRECTION('',(0.,0.,1.));
#1164=DIRECTION('',(1.,0.,0.));
#1165=DIRECTION('',(0.,1.,0.));
#1166=DIRECTION('',(0.,0.,1.));
#1167=DIRECTION('',(0.,0.,-1.));
#1168=DIRECTION('',(1.,0.,0.));
#1169=DIRECTION('',(0.,-1.,0.));
#1170=DIRECTION('',(0.,0.,-1.));
#1171=DIRECTION('',(0.,0.,1.));
#1172=DIRECTION('',(1.,0.,0.));
#1173=DIRECTION('',(0.,0.,-1.));
#1174=DIRECTION('',(0.,1.,0.));
#1175=DIRECTION('',(0.,0.,1.));
#1176=DIRECTION('',(0.,0.,1.));
#1177=DIRECTION('',(1.,0.,0.));
#1178=DIRECTION('',(0.,0.,-1.));
#1179=DIRECTION('',(0.,-1.,0.));
#1180=DIRECTION('',(0.,0.,-1.));
#1181=DIRECTION('',(0.,0.,1.));
#1182=DIRECTION('',(-1.,0.,0.));
#1183=DIRECTION('',(0.,0.,1.));
#1184=DIRECTION('',(0.,0.,-1.));
#1185=DIRECTION('',(-1.,0.,0.));
#1186=DIRECTION('',(0.,0.,-1.));
#1187=DIRECTION('',(-1.,0.,0.));
#1188=DIRECTION('',(0.,0.,-1.));
#1189=DIRECTION('',(1.,0.,0.));
#1190=DIRECTION('',(0.,0.,-1.));
#1191=DIRECTION('',(-1.,0.,0.));
#1192=DIRECTION('',(0.,0.,-1.));
#1193=DIRECTION('',(-1.,0.,0.));
#1194=DIRECTION('',(0.,0.,-1.));
#1195=DIRECTION('',(1.,0.,0.));
#1196=DIRECTION('',(0.,0.,-1.));
#1197=DIRECTION('',(-1.,0.,0.));
#1198=DIRECTION('',(0.,0.,-1.));
#1199=DIRECTION('',(-1.,0.,0.));
#1200=DIRECTION('',(0.,0.,-1.));
#1201=DIRECTION('',(1.,0.,0.));
#1202=DIRECTION('',(0.,0.,-1.));
#1203=DIRECTION('',(-1.,0.,0.));
#1204=DIRECTION('',(0.,0.,-1.));
#1205=DIRECTION('',(-1.,0.,0.));
#1206=DIRECTION('',(0.,0.,-1.));
#1207=DIRECTION('',(1.,0.,0.));
#1208=DIRECTION('',(0.,0.,1.));
#1209=DIRECTION('',(1.,0.,0.));
#1210=DIRECTION('',(0.,0.,-1.));
#1211=DIRECTION('',(-1.,0.,0.));
#1212=DIRECTION('',(0.,0.,1.));
#1213=DIRECTION('',(1.,0.,0.));
#1214=DIRECTION('',(0.,0.,-1.));
#1215=DIRECTION('',(-1.,0.,0.));
#1216=DIRECTION('',(0.,0.,1.));
#1217=DIRECTION('',(1.,0.,0.));
#1218=DIRECTION('',(1.,0.,0.));
#1219=DIRECTION('',(1.,0.,0.));
#1220=DIRECTION('',(0.,0.,1.));
#1221=DIRECTION('',(1.,0.,0.));
#1222=DIRECTION('',(0.,1.,0.));
#1223=DIRECTION('',(1.,0.,0.));
#1224=DIRECTION('',(1.,0.,0.));
#1225=DIRECTION('',(0.,1.,0.));
#1226=DIRECTION('',(0.,0.,1.));
#1227=DIRECTION('',(0.,0.,-1.));
#1228=DIRECTION('',(1.,0.,0.));
#1229=DIRECTION('',(0.,0.,-1.));
#1230=DIRECTION('',(0.,0.,1.));
#1231=DIRECTION('',(1.,0.,0.));
#1232=DIRECTION('',(-1.,0.,0.));
#1233=DIRECTION('',(-1.,0.,0.));
#1234=DIRECTION('',(0.,-1.,0.));
#1235=DIRECTION('',(0.,0.,-1.));
#1236=DIRECTION('',(-1.,0.,0.));
#1237=DIRECTION('',(0.,0.,1.));
#1238=DIRECTION('',(1.,0.,0.));
#1239=DIRECTION('',(-1.,0.,0.));
#1240=DIRECTION('',(0.,-1.,0.));
#1241=DIRECTION('',(0.,0.,-1.));
#1242=DIRECTION('',(0.,-1.,0.));
#1243=DIRECTION('',(0.,0.,-1.));
#1244=DIRECTION('',(1.,0.,0.));
#1245=DIRECTION('',(0.,0.,1.));
#1246=DIRECTION('',(1.,0.,0.));
#1247=DIRECTION('',(1.,0.,0.));
#1248=DIRECTION('',(0.,-1.,0.));
#1249=DIRECTION('',(0.,0.,-1.));
#1250=DIRECTION('',(0.,0.,1.));
#1251=DIRECTION('',(1.,0.,0.));
#1252=DIRECTION('',(0.,0.,-1.));
#1253=DIRECTION('',(-1.,0.,0.));
#1254=DIRECTION('',(0.,0.,-1.));
#1255=DIRECTION('',(1.,0.,0.));
#1256=DIRECTION('',(0.,0.,1.));
#1257=DIRECTION('',(1.,0.,0.));
#1258=DIRECTION('',(0.,0.,-1.));
#1259=DIRECTION('',(-1.,0.,0.));
#1260=DIRECTION('',(0.,0.,-1.));
#1261=DIRECTION('',(1.,0.,0.));
#1262=DIRECTION('',(0.,0.,1.));
#1263=DIRECTION('',(1.,0.,0.));
#1264=DIRECTION('',(0.,0.,-1.));
#1265=DIRECTION('',(-1.,0.,0.));
#1266=DIRECTION('',(0.,0.,-1.));
#1267=DIRECTION('',(1.,0.,0.));
#1268=DIRECTION('',(0.,0.,1.));
#1269=DIRECTION('',(1.,0.,0.));
#1270=DIRECTION('',(0.,0.,-1.));
#1271=DIRECTION('',(-1.,0.,0.));
#1272=DIRECTION('',(0.,0.,-1.));
#1273=DIRECTION('',(1.,0.,0.));
#1274=DIRECTION('',(-1.,0.,0.));
#1275=DIRECTION('',(0.,0.,1.));
#1276=DIRECTION('',(0.,0.,-1.));
#1277=DIRECTION('',(0.,1.,0.));
#1278=DIRECTION('',(0.,1.,0.));
#1279=DIRECTION('',(0.,0.,1.));
#1280=DIRECTION('',(0.,0.,-1.));
#1281=DIRECTION('',(1.,0.,0.));
#1282=DIRECTION('',(-1.,0.,0.));
#1283=DIRECTION('',(0.,0.,1.));
#1284=DIRECTION('',(0.,1.,0.));
#1285=DIRECTION('',(0.,0.,-1.));
#1286=DIRECTION('',(1.,0.,0.));
#1287=CARTESIAN_POINT('',(0.,0.,0.));
#1288=CARTESIAN_POINT('',(48.7724720674809,5.85128739476203,34.));
#1289=CARTESIAN_POINT('',(48.7724720674809,9.67227783029628,34.));
#1290=CARTESIAN_POINT('',(48.7724720674809,9.67227783029628,20.9551293664685));
#1291=CARTESIAN_POINT('',(48.7724720674809,9.67227783029628,20.9196656942367));
#1292=CARTESIAN_POINT('',(48.7724720674809,5.85128739476203,20.9551293664685));
#1293=CARTESIAN_POINT('',(48.7724720674809,38.3512873947621,20.9551293664685));
#1294=CARTESIAN_POINT('',(48.7724720674809,38.3512873947621,0.));
#1295=CARTESIAN_POINT('',(48.7724720674809,38.3512873947621,0.));
#1296=CARTESIAN_POINT('',(48.7724720674809,5.85128739476203,0.));
#1297=CARTESIAN_POINT('',(48.7724720674809,-26.6487126052379,0.));
#1298=CARTESIAN_POINT('',(48.7724720674809,-26.6487126052379,0.));
#1299=CARTESIAN_POINT('',(48.7724720674809,-26.6487126052379,34.));
#1300=CARTESIAN_POINT('',(48.7724720674809,5.85128739476203,34.));
#1301=CARTESIAN_POINT('',(48.7724720674809,38.3512873947621,34.));
#1302=CARTESIAN_POINT('',(48.7724720674809,38.3512873947621,0.));
#1303=CARTESIAN_POINT('',(48.7724720674809,38.3512873947621,30.0456613361347));
#1304=CARTESIAN_POINT('',(48.7724720674809,5.85128739476203,30.0456613361347));
#1305=CARTESIAN_POINT('',(48.7724720674809,-24.3034157902003,30.0456613361347));
#1306=CARTESIAN_POINT('',(48.7724720674809,-24.3034157902003,34.));
#1307=CARTESIAN_POINT('',(48.7724720674809,-24.3034157902003,20.9196656942367));
#1308=CARTESIAN_POINT('',(48.7724720674809,5.85128739476203,20.9196656942367));
#1309=CARTESIAN_POINT('',(51.2724720674809,5.85128739476204,40.));
#1310=CARTESIAN_POINT('',(51.2724720674809,5.85128739476204,40.));
#1311=CARTESIAN_POINT('',(51.2724720674809,43.8512873947621,40.));
#1312=CARTESIAN_POINT('',(51.2724720674809,-32.1487126052379,40.));
#1313=CARTESIAN_POINT('',(51.2724720674809,-32.1487126052379,0.));
#1314=CARTESIAN_POINT('',(51.2724720674809,-32.1487126052379,0.));
#1315=CARTESIAN_POINT('',(51.2724720674809,5.85128739476204,0.));
#1316=CARTESIAN_POINT('',(51.2724720674809,43.8512873947621,0.));
#1317=CARTESIAN_POINT('',(51.2724720674809,43.8512873947621,40.));
#1318=CARTESIAN_POINT('',(51.2724720674809,25.9211573745321,20.9551293664685));
#1319=CARTESIAN_POINT('',(51.2724720674809,42.1700369187678,20.9551293664685));
#1320=CARTESIAN_POINT('',(51.2724720674809,9.67227783029628,20.9551293664685));
#1321=CARTESIAN_POINT('',(51.2724720674809,9.67227783029628,25.4826635151857));
#1322=CARTESIAN_POINT('',(51.2724720674809,9.67227783029628,20.9196656942367));
#1323=CARTESIAN_POINT('',(51.2724720674809,-7.31556897995198,20.9196656942367));
#1324=CARTESIAN_POINT('',(51.2724720674809,-24.3034157902003,20.9196656942367));
#1325=CARTESIAN_POINT('',(51.2724720674809,-24.3034157902003,25.4826635151857));
#1326=CARTESIAN_POINT('',(51.2724720674809,-24.3034157902003,30.0456613361347));
#1327=CARTESIAN_POINT('',(51.2724720674809,25.9211573745321,30.0456613361347));
#1328=CARTESIAN_POINT('',(51.2724720674809,42.1700369187678,30.0456613361347));
#1329=CARTESIAN_POINT('',(51.2724720674809,42.1700369187678,25.5003953513016));
#1330=CARTESIAN_POINT('',(-46.2275279325192,5.85128739476205,34.));
#1331=CARTESIAN_POINT('',(-46.2275279325192,5.85128739476205,0.));
#1332=CARTESIAN_POINT('',(-46.2275279325192,38.3512873947621,0.));
#1333=CARTESIAN_POINT('',(-46.2275279325192,-26.6487126052379,0.));
#1334=CARTESIAN_POINT('',(-46.2275279325192,38.3512873947621,0.));
#1335=CARTESIAN_POINT('',(-46.2275279325192,38.3512873947621,34.));
#1336=CARTESIAN_POINT('',(-46.2275279325192,5.85128739476205,34.));
#1337=CARTESIAN_POINT('',(-46.2275279325192,-26.6487126052379,34.));
#1338=CARTESIAN_POINT('',(-46.2275279325192,-26.6487126052379,0.));
#1339=CARTESIAN_POINT('',(-46.2275279325192,37.1622174277745,34.));
#1340=CARTESIAN_POINT('',(-46.2275279325192,37.1622174277745,32.2732476253205));
#1341=CARTESIAN_POINT('',(-46.2275279325192,37.1622174277745,22.7124629208718));
#1342=CARTESIAN_POINT('',(-46.2275279325192,5.85128739476205,22.7124629208718));
#1343=CARTESIAN_POINT('',(-46.2275279325192,17.9602200190387,22.7124629208718));
#1344=CARTESIAN_POINT('',(-46.2275279325192,17.9602200190387,34.));
#1345=CARTESIAN_POINT('',(-46.2275279325192,17.9602200190387,32.2732476253205));
#1346=CARTESIAN_POINT('',(-46.2275279325192,5.85128739476205,32.2732476253205));
#1347=CARTESIAN_POINT('',(-48.7275279325192,5.85128739476204,40.));
#1348=CARTESIAN_POINT('',(-48.7275279325192,5.85128739476204,40.));
#1349=CARTESIAN_POINT('',(-48.7275279325192,43.8512873947621,40.));
#1350=CARTESIAN_POINT('',(-48.7275279325192,-32.1487126052379,40.));
#1351=CARTESIAN_POINT('',(-48.7275279325192,43.8512873947621,0.));
#1352=CARTESIAN_POINT('',(-48.7275279325192,43.8512873947621,0.));
#1353=CARTESIAN_POINT('',(-48.7275279325192,5.85128739476204,0.));
#1354=CARTESIAN_POINT('',(-48.7275279325192,-32.1487126052379,0.));
#1355=CARTESIAN_POINT('',(-48.7275279325192,-32.1487126052379,40.));
#1356=CARTESIAN_POINT('',(-48.7275279325192,27.5612187234066,22.7124629208718));
#1357=CARTESIAN_POINT('',(-48.7275279325192,17.9602200190387,22.7124629208718));
#1358=CARTESIAN_POINT('',(-48.7275279325192,37.1622174277745,22.7124629208718));
#1359=CARTESIAN_POINT('',(-48.7275279325192,37.1622174277745,27.4928552730962));
#1360=CARTESIAN_POINT('',(-48.7275279325192,37.1622174277745,32.2732476253205));
#1361=CARTESIAN_POINT('',(-48.7275279325192,27.5612187234066,32.2732476253205));
#1362=CARTESIAN_POINT('',(-48.7275279325192,17.9602200190387,32.2732476253205));
#1363=CARTESIAN_POINT('',(-48.7275279325192,17.9602200190387,27.4928552730962));
#1364=CARTESIAN_POINT('',(46.2724720674809,38.3512873947621,0.));
#1365=CARTESIAN_POINT('',(46.2724720674809,38.3512873947621,20.9551293664685));
#1366=CARTESIAN_POINT('',(43.7724720674808,38.3512873947621,20.9551293664685));
#1367=CARTESIAN_POINT('',(43.7724720674808,38.3512873947621,0.));
#1368=CARTESIAN_POINT('',(43.7724720674808,38.3512873947621,0.));
#1369=CARTESIAN_POINT('',(46.2724720674809,38.3512873947621,0.));
#1370=CARTESIAN_POINT('',(43.7724720674808,40.851287394762,0.));
#1371=CARTESIAN_POINT('',(43.7724720674808,42.1700369187678,0.));
#1372=CARTESIAN_POINT('',(43.7724720674808,42.1700369187678,34.));
#1373=CARTESIAN_POINT('',(43.7724720674808,42.1700369187678,20.9551293664685));
#1374=CARTESIAN_POINT('',(43.7724720674808,40.851287394762,34.));
#1375=CARTESIAN_POINT('',(43.7724720674808,43.3512873947621,34.));
#1376=CARTESIAN_POINT('',(43.7724720674808,43.3512873947621,0.));
#1377=CARTESIAN_POINT('',(43.7724720674808,43.3512873947621,0.));
#1378=CARTESIAN_POINT('',(43.7724720674808,40.851287394762,0.));
#1379=CARTESIAN_POINT('',(43.7724720674808,40.851287394762,20.9551293664685));
#1380=CARTESIAN_POINT('',(1.27247206748085,43.3512873947621,34.));
#1381=CARTESIAN_POINT('',(-41.2275279325191,43.3512873947621,0.));
#1382=CARTESIAN_POINT('',(-41.2275279325191,43.3512873947621,0.));
#1383=CARTESIAN_POINT('',(-41.2275279325191,43.3512873947621,34.));
#1384=CARTESIAN_POINT('',(1.27247206748085,43.3512873947621,0.));
#1385=CARTESIAN_POINT('',(1.27247206748085,43.3512873947621,34.));
#1386=CARTESIAN_POINT('',(1.27247206748085,-31.6487126052379,34.));
#1387=CARTESIAN_POINT('',(43.7724720674808,-31.6487126052379,0.));
#1388=CARTESIAN_POINT('',(43.7724720674808,-31.6487126052379,0.));
#1389=CARTESIAN_POINT('',(43.7724720674808,-31.6487126052379,34.));
#1390=CARTESIAN_POINT('',(1.27247206748085,-31.6487126052379,0.));
#1391=CARTESIAN_POINT('',(-41.2275279325192,-31.6487126052379,0.));
#1392=CARTESIAN_POINT('',(-41.2275279325192,-31.6487126052379,0.));
#1393=CARTESIAN_POINT('',(-41.2275279325192,-31.6487126052379,34.));
#1394=CARTESIAN_POINT('',(1.27247206748085,-31.6487126052379,34.));
#1395=CARTESIAN_POINT('',(1.27247206748085,5.85128739476204,34.));
#1396=CARTESIAN_POINT('',(23.6480420674809,35.9580655557994,34.));
#1397=CARTESIAN_POINT('',(22.2980420674808,35.9580655557994,34.));
#1398=CARTESIAN_POINT('',(46.6480467428725,-21.9793524503803,34.));
#1399=CARTESIAN_POINT('',(45.2980467428725,-21.9793524503803,34.));
#1400=CARTESIAN_POINT('',(23.6480467428725,-22.0419344442005,34.));
#1401=CARTESIAN_POINT('',(22.2980467428725,-22.0419344442005,34.));
#1402=CARTESIAN_POINT('',(46.6480420674809,36.0206475496197,34.));
#1403=CARTESIAN_POINT('',(45.2980420674809,36.0206475496197,34.));
#1404=CARTESIAN_POINT('',(-43.7275279325191,38.3512873947621,34.));
#1405=CARTESIAN_POINT('',(-41.2275279325191,38.3512873947621,34.));
#1406=CARTESIAN_POINT('',(-41.2275279325191,40.851287394762,34.));
#1407=CARTESIAN_POINT('',(43.7724720674808,40.851287394762,34.));
#1408=CARTESIAN_POINT('',(43.7724720674808,38.3512873947621,34.));
#1409=CARTESIAN_POINT('',(46.2724720674809,38.3512873947621,34.));
#1410=CARTESIAN_POINT('',(48.7519399641591,38.3512873947621,34.));
#1411=CARTESIAN_POINT('',(46.2724720674809,38.3512873947621,34.));
#1412=CARTESIAN_POINT('',(46.2724720674809,-26.6487126052379,34.));
#1413=CARTESIAN_POINT('',(43.7724720674808,-26.6487126052379,34.));
#1414=CARTESIAN_POINT('',(43.7724720674808,-29.148712605238,34.));
#1415=CARTESIAN_POINT('',(-41.2275279325192,-29.148712605238,34.));
#1416=CARTESIAN_POINT('',(-41.2275279325192,-26.6487126052379,34.));
#1417=CARTESIAN_POINT('',(-43.7275279325192,-26.6487126052379,34.));
#1418=CARTESIAN_POINT('',(1.27247206748085,5.85128739476204,0.));
#1419=CARTESIAN_POINT('',(46.2724720674809,40.851287394762,0.));
#1420=CARTESIAN_POINT('',(44.7724720674809,40.851287394762,0.));
#1421=CARTESIAN_POINT('',(-43.7275279325191,40.851287394762,0.));
#1422=CARTESIAN_POINT('',(-45.2275279325192,40.851287394762,0.));
#1423=CARTESIAN_POINT('',(-43.7275279325191,-29.148712605238,0.));
#1424=CARTESIAN_POINT('',(-45.2275279325192,-29.148712605238,0.));
#1425=CARTESIAN_POINT('',(46.2724720674809,-29.148712605238,0.));
#1426=CARTESIAN_POINT('',(44.7724720674809,-29.148712605238,0.));
#1427=CARTESIAN_POINT('',(43.7724720674808,-29.148712605238,0.));
#1428=CARTESIAN_POINT('',(43.7724720674808,-26.6487126052379,0.));
#1429=CARTESIAN_POINT('',(46.2724720674809,-26.6487126052379,0.));
#1430=CARTESIAN_POINT('',(-41.2275279325191,40.851287394762,0.));
#1431=CARTESIAN_POINT('',(-41.2275279325191,38.3512873947621,0.));
#1432=CARTESIAN_POINT('',(-43.7275279325191,38.3512873947621,0.));
#1433=CARTESIAN_POINT('',(-43.7275279325192,-26.6487126052379,0.));
#1434=CARTESIAN_POINT('',(-41.2275279325192,-26.6487126052379,0.));
#1435=CARTESIAN_POINT('',(-41.2275279325192,-29.148712605238,0.));
#1436=CARTESIAN_POINT('',(-46.7275279325192,43.8512873947621,0.));
#1437=CARTESIAN_POINT('',(-46.7275279325192,45.851287394762,0.));
#1438=CARTESIAN_POINT('',(1.27247206748085,45.851287394762,0.));
#1439=CARTESIAN_POINT('',(49.2724720674809,45.851287394762,0.));
#1440=CARTESIAN_POINT('',(49.2724720674809,43.8512873947621,0.));
#1441=CARTESIAN_POINT('',(49.2724720674809,-32.1487126052379,0.));
#1442=CARTESIAN_POINT('',(49.2724720674809,-34.1487126052379,0.));
#1443=CARTESIAN_POINT('',(1.27247206748085,-34.1487126052379,0.));
#1444=CARTESIAN_POINT('',(-46.7275279325192,-34.1487126052379,0.));
#1445=CARTESIAN_POINT('',(-46.7275279325192,-32.1487126052379,0.));
#1446=CARTESIAN_POINT('',(1.27247206748085,45.851287394762,40.));
#1447=CARTESIAN_POINT('',(-46.7275279325192,45.851287394762,40.));
#1448=CARTESIAN_POINT('',(-46.7275279325192,45.851287394762,40.));
#1449=CARTESIAN_POINT('',(1.27247206748085,45.851287394762,40.));
#1450=CARTESIAN_POINT('',(49.2724720674809,45.851287394762,40.));
#1451=CARTESIAN_POINT('',(49.2724720674809,45.851287394762,40.));
#1452=CARTESIAN_POINT('',(1.27247206748085,-34.1487126052379,40.));
#1453=CARTESIAN_POINT('',(1.27247206748085,-34.1487126052379,40.));
#1454=CARTESIAN_POINT('',(-46.7275279325192,-34.1487126052379,40.));
#1455=CARTESIAN_POINT('',(49.2724720674809,-34.1487126052379,40.));
#1456=CARTESIAN_POINT('',(-46.7275279325192,-34.1487126052379,40.));
#1457=CARTESIAN_POINT('',(49.2724720674809,-34.1487126052379,40.));
#1458=CARTESIAN_POINT('',(1.27247206748085,5.85128739476204,40.));
#1459=CARTESIAN_POINT('',(-46.7275279325192,43.8512873947621,40.));
#1460=CARTESIAN_POINT('',(-46.7275279325192,-32.1487126052379,40.));
#1461=CARTESIAN_POINT('',(49.2724720674809,-32.1487126052379,40.));
#1462=CARTESIAN_POINT('',(49.2724720674809,43.8512873947621,40.));
#1463=CARTESIAN_POINT('',(46.2724720674809,38.3512873947621,0.));
#1464=CARTESIAN_POINT('',(48.7519399641591,38.3512873947621,34.0456613361347));
#1465=CARTESIAN_POINT('',(48.7519399641591,38.3512873947621,30.0456613361347));
#1466=CARTESIAN_POINT('',(46.2724720674809,38.3512873947621,30.0456613361347));
#1467=CARTESIAN_POINT('',(-43.7275279325192,-26.6487126052379,0.));
#1468=CARTESIAN_POINT('',(-41.2275279325192,-26.6487126052379,0.));
#1469=CARTESIAN_POINT('',(-41.2275279325192,-29.148712605238,0.));
#1470=CARTESIAN_POINT('',(46.2724720674809,-26.6487126052379,0.));
#1471=CARTESIAN_POINT('',(43.7724720674808,-26.6487126052379,0.));
#1472=CARTESIAN_POINT('',(43.7724720674808,-29.148712605238,0.));
#1473=CARTESIAN_POINT('',(-43.7275279325191,38.3512873947621,0.));
#1474=CARTESIAN_POINT('',(-41.2275279325191,38.3512873947621,0.));
#1475=CARTESIAN_POINT('',(-41.2275279325191,40.851287394762,0.));
#1476=CARTESIAN_POINT('',(46.2724720674809,-29.148712605238,10.));
#1477=CARTESIAN_POINT('',(46.2724720674809,-29.148712605238,10.));
#1478=CARTESIAN_POINT('',(44.7724720674809,-29.148712605238,10.));
#1479=CARTESIAN_POINT('',(1.27247206748085,5.85128739476204,10.));
#1480=CARTESIAN_POINT('',(-43.7275279325191,-29.148712605238,10.));
#1481=CARTESIAN_POINT('',(-43.7275279325191,-29.148712605238,10.));
#1482=CARTESIAN_POINT('',(-45.2275279325192,-29.148712605238,10.));
#1483=CARTESIAN_POINT('',(1.27247206748085,5.85128739476204,10.));
#1484=CARTESIAN_POINT('',(-43.7275279325191,40.851287394762,10.));
#1485=CARTESIAN_POINT('',(-43.7275279325191,40.851287394762,10.));
#1486=CARTESIAN_POINT('',(-45.2275279325192,40.851287394762,10.));
#1487=CARTESIAN_POINT('',(1.27247206748085,5.85128739476204,10.));
#1488=CARTESIAN_POINT('',(46.2724720674809,40.851287394762,10.));
#1489=CARTESIAN_POINT('',(46.2724720674809,40.851287394762,10.));
#1490=CARTESIAN_POINT('',(44.7724720674809,40.851287394762,10.));
#1491=CARTESIAN_POINT('',(1.27247206748085,5.85128739476204,10.));
#1492=CARTESIAN_POINT('',(-46.7275279325192,43.8512873947621,40.));
#1493=CARTESIAN_POINT('',(-46.7275279325192,-32.1487126052379,40.));
#1494=CARTESIAN_POINT('',(49.2724720674809,-32.1487126052379,40.));
#1495=CARTESIAN_POINT('',(49.2724720674809,43.8512873947621,40.));
#1496=CARTESIAN_POINT('',(26.2724720674809,25.9211573745321,20.9551293664685));
#1497=CARTESIAN_POINT('',(26.2724720674809,9.67227783029628,20.9551293664685));
#1498=CARTESIAN_POINT('',(26.2724720674809,42.1700369187678,20.9551293664685));
#1499=CARTESIAN_POINT('',(26.2724720674809,25.9211573745321,30.0456613361347));
#1500=CARTESIAN_POINT('',(48.7519399641591,40.2606621567649,30.0456613361347));
#1501=CARTESIAN_POINT('',(48.7519399641591,42.1700369187678,30.0456613361347));
#1502=CARTESIAN_POINT('',(26.2724720674809,42.1700369187678,30.0456613361347));
#1503=CARTESIAN_POINT('',(26.2724720674809,-24.3034157902003,30.0456613361347));
#1504=CARTESIAN_POINT('',(26.2724720674809,42.1700369187678,25.5003953513016));
#1505=CARTESIAN_POINT('',(48.7519399641591,42.1700369187678,34.0456613361347));
#1506=CARTESIAN_POINT('',(48.7519399641591,42.1700369187678,34.0456613361347));
#1507=CARTESIAN_POINT('',(26.2724720674809,42.1700369187678,34.0456613361347));
#1508=CARTESIAN_POINT('',(43.7724720674808,42.1700369187678,34.0456613361347));
#1509=CARTESIAN_POINT('',(43.7724720674808,42.1700369187678,34.0456613361347));
#1510=CARTESIAN_POINT('',(-28.5275279325191,27.5612187234066,22.7124629208718));
#1511=CARTESIAN_POINT('',(-28.5275279325191,37.1622174277745,22.7124629208718));
#1512=CARTESIAN_POINT('',(-28.5275279325191,17.9602200190387,22.7124629208718));
#1513=CARTESIAN_POINT('',(-28.5275279325191,17.9602200190387,27.4928552730962));
#1514=CARTESIAN_POINT('',(-28.5275279325191,17.9602200190387,32.2732476253205));
#1515=CARTESIAN_POINT('',(-28.5275279325191,27.5612187234066,32.2732476253205));
#1516=CARTESIAN_POINT('',(-28.5275279325191,37.1622174277745,32.2732476253205));
#1517=CARTESIAN_POINT('',(-28.5275279325191,37.1622174277745,27.4928552730962));
#1518=CARTESIAN_POINT('',(26.2724720674809,-24.3034157902003,25.4826635151857));
#1519=CARTESIAN_POINT('',(26.2724720674809,-24.3034157902003,20.9196656942367));
#1520=CARTESIAN_POINT('',(26.2724720674809,-7.31556897995198,20.9196656942367));
#1521=CARTESIAN_POINT('',(26.2724720674809,9.67227783029628,20.9196656942367));
#1522=CARTESIAN_POINT('',(26.2724720674809,9.67227783029628,25.4826635151857));
#1523=CARTESIAN_POINT('',(46.6480420674809,36.0206475496197,28.3));
#1524=CARTESIAN_POINT('',(46.6480420674809,36.0206475496197,28.3));
#1525=CARTESIAN_POINT('',(45.2980420674809,36.0206475496197,28.3));
#1526=CARTESIAN_POINT('',(1.27247206748085,5.85128739476204,28.3));
#1527=CARTESIAN_POINT('',(23.6480467428725,-22.0419344442005,28.3));
#1528=CARTESIAN_POINT('',(23.6480467428725,-22.0419344442005,28.3));
#1529=CARTESIAN_POINT('',(22.2980467428725,-22.0419344442005,28.3));
#1530=CARTESIAN_POINT('',(1.27247206748085,5.85128739476204,28.3));
#1531=CARTESIAN_POINT('',(46.6480467428725,-21.9793524503803,28.3));
#1532=CARTESIAN_POINT('',(46.6480467428725,-21.9793524503803,28.3));
#1533=CARTESIAN_POINT('',(45.2980467428725,-21.9793524503803,28.3));
#1534=CARTESIAN_POINT('',(1.27247206748085,5.85128739476204,28.3));
#1535=CARTESIAN_POINT('',(23.6480420674809,35.9580655557994,28.3));
#1536=CARTESIAN_POINT('',(23.6480420674809,35.9580655557994,28.3));
#1537=CARTESIAN_POINT('',(22.2980420674808,35.9580655557994,28.3));
#1538=CARTESIAN_POINT('',(1.27247206748085,5.85128739476204,28.3));
#1539=CARTESIAN_POINT('',(48.7519399641591,40.2606621567649,34.0456613361347));
#1540=CARTESIAN_POINT('',(48.7519399641591,38.3512873947621,34.0456613361347));
#1541=CARTESIAN_POINT('',(48.7519399641591,38.3512873947621,34.0456613361347));
#1542=CARTESIAN_POINT('',(48.7519399641591,40.2606621567649,34.0456613361347));
#1543=CARTESIAN_POINT('',(46.2724720674809,38.3512873947621,34.0456613361347));
#1544=CARTESIAN_POINT('',(43.7724720674808,38.3512873947621,34.0456613361347));
#1545=CARTESIAN_POINT('',(43.7724720674808,38.3512873947621,34.0456613361347));
#1546=CARTESIAN_POINT('',(46.2724720674809,38.3512873947621,34.0456613361347));
#1547=CARTESIAN_POINT('',(43.7724720674808,40.851287394762,34.0456613361347));
#1548=CARTESIAN_POINT('',(43.7724720674808,40.851287394762,34.0456613361347));
#1549=CARTESIAN_POINT('',(47.5224720674809,8.93331056428381,34.0456613361347));
#1550=MECHANICAL_DESIGN_GEOMETRIC_PRESENTATION_REPRESENTATION('',(#941),
#1551);
#1551=(
GEOMETRIC_REPRESENTATION_CONTEXT(3)
GLOBAL_UNCERTAINTY_ASSIGNED_CONTEXT((#1552))
GLOBAL_UNIT_ASSIGNED_CONTEXT((#1555,#1554,#1553))
REPRESENTATION_CONTEXT('Part 1','TOP_LEVEL_ASSEMBLY_PART')
);
#1552=UNCERTAINTY_MEASURE_WITH_UNIT(LENGTH_MEASURE(1.E-5),#1555,
'DISTANCE_ACCURACY_VALUE','Maximum Tolerance applied to model');
#1553=(
NAMED_UNIT(*)
SI_UNIT($,.STERADIAN.)
SOLID_ANGLE_UNIT()
);
#1554=(
NAMED_UNIT(*)
PLANE_ANGLE_UNIT()
SI_UNIT($,.RADIAN.)
);
#1555=(
LENGTH_UNIT()
NAMED_UNIT(*)
SI_UNIT(.MILLI.,.METRE.)
);
#1556=PRODUCT_DEFINITION_SHAPE('','',#1557);
#1557=PRODUCT_DEFINITION('','',#1559,#1558);
#1558=PRODUCT_DEFINITION_CONTEXT('',#1565,'design');
#1559=PRODUCT_DEFINITION_FORMATION_WITH_SPECIFIED_SOURCE('','',#1561,
 .NOT_KNOWN.);
#1560=PRODUCT_RELATED_PRODUCT_CATEGORY('','',(#1561));
#1561=PRODUCT('Part 1','Part 1','Part 1',(#1563));
#1562=PRODUCT_CATEGORY('','');
#1563=PRODUCT_CONTEXT('',#1565,'mechanical');
#1564=APPLICATION_PROTOCOL_DEFINITION('international standard',
'ap242_managed_model_based_3d_engineering',2020,#1565);
#1565=APPLICATION_CONTEXT('managed model based 3d engineering');
ENDSEC;
END-ISO-10303-21;
