ISO-10303-21;
HEADER;
/* Generated by software containing ST-Developer
 * from STEP Tools, Inc. (www.steptools.com) 
 */
/* OPTION: using custom renumber hook */

FILE_DESCRIPTION(
/* description */ ('STEP AP242 Edition 2',
'CAx-IF Rec.Pracs.---Representation and Presentation of Product Manufa
cturing Information (PMI)---4.0---2014-10-13',
'CAx-IF Rec.Pracs.---3D Tessellated Geometry---0.4---2014-09-14','2;1',
'CAx-IF Rec.Pracs.---User Defined Attributes---1.5---2016-08-15'),
/* implementation_level */ '2;1');

FILE_NAME(
/* name */ 'Part Studio 1 - Part 2',
/* time_stamp */ '2026-04-30T19:14:27Z',
/* author */ (''),
/* organization */ (''),
/* preprocessor_version */ 'ST-DEVELOPER v20',
/* originating_system */ 'ONSHAPE BY PTC INC, 1.214',
/* authorisation */ '  ');

FILE_SCHEMA (('AP242_MANAGED_MODEL_BASED_3D_ENGINEERING_MIM_LF { 1 0 10303 442 3 1 4 }'));
ENDSEC;

DATA;
#10=SHAPE_REPRESENTATION_RELATIONSHIP('','',#315,#11);
#11=ADVANCED_BREP_SHAPE_REPRESENTATION('',(#313),#533);
#12=TOROIDAL_SURFACE('',#347,3.5,2.);
#13=TOROIDAL_SURFACE('',#348,3.5,2.);
#14=TOROIDAL_SURFACE('',#349,3.5,2.);
#15=TOROIDAL_SURFACE('',#350,3.5,2.);
#16=CYLINDRICAL_SURFACE('',#339,1.5);
#17=CYLINDRICAL_SURFACE('',#341,1.5);
#18=CYLINDRICAL_SURFACE('',#343,1.5);
#19=CYLINDRICAL_SURFACE('',#345,1.5);
#20=CYLINDRICAL_SURFACE('',#351,2.);
#21=CYLINDRICAL_SURFACE('',#352,2.);
#22=CYLINDRICAL_SURFACE('',#353,2.);
#23=CYLINDRICAL_SURFACE('',#354,2.);
#24=CIRCLE('',#322,3.5);
#25=CIRCLE('',#323,3.5);
#26=CIRCLE('',#324,3.5);
#27=CIRCLE('',#325,3.5);
#28=CIRCLE('',#326,2.);
#29=CIRCLE('',#327,2.);
#30=CIRCLE('',#328,2.);
#31=CIRCLE('',#329,2.);
#32=CIRCLE('',#331,1.5);
#33=CIRCLE('',#332,1.5);
#34=CIRCLE('',#333,1.5);
#35=CIRCLE('',#334,1.5);
#36=CIRCLE('',#335,2.);
#37=CIRCLE('',#336,2.);
#38=CIRCLE('',#337,2.);
#39=CIRCLE('',#338,2.);
#40=CIRCLE('',#340,1.5);
#41=CIRCLE('',#342,1.5);
#42=CIRCLE('',#344,1.5);
#43=CIRCLE('',#346,1.5);
#44=ORIENTED_EDGE('',*,*,#116,.F.);
#45=ORIENTED_EDGE('',*,*,#117,.T.);
#46=ORIENTED_EDGE('',*,*,#118,.T.);
#47=ORIENTED_EDGE('',*,*,#119,.T.);
#48=ORIENTED_EDGE('',*,*,#120,.F.);
#49=ORIENTED_EDGE('',*,*,#121,.T.);
#50=ORIENTED_EDGE('',*,*,#122,.T.);
#51=ORIENTED_EDGE('',*,*,#123,.T.);
#52=ORIENTED_EDGE('',*,*,#124,.F.);
#53=ORIENTED_EDGE('',*,*,#125,.T.);
#54=ORIENTED_EDGE('',*,*,#126,.T.);
#55=ORIENTED_EDGE('',*,*,#127,.T.);
#56=ORIENTED_EDGE('',*,*,#128,.T.);
#57=ORIENTED_EDGE('',*,*,#129,.T.);
#58=ORIENTED_EDGE('',*,*,#130,.F.);
#59=ORIENTED_EDGE('',*,*,#131,.T.);
#60=ORIENTED_EDGE('',*,*,#132,.T.);
#61=ORIENTED_EDGE('',*,*,#133,.T.);
#62=ORIENTED_EDGE('',*,*,#134,.T.);
#63=ORIENTED_EDGE('',*,*,#135,.T.);
#64=ORIENTED_EDGE('',*,*,#118,.F.);
#65=ORIENTED_EDGE('',*,*,#136,.T.);
#66=ORIENTED_EDGE('',*,*,#120,.T.);
#67=ORIENTED_EDGE('',*,*,#137,.T.);
#68=ORIENTED_EDGE('',*,*,#124,.T.);
#69=ORIENTED_EDGE('',*,*,#138,.T.);
#70=ORIENTED_EDGE('',*,*,#128,.F.);
#71=ORIENTED_EDGE('',*,*,#139,.T.);
#72=ORIENTED_EDGE('',*,*,#140,.F.);
#73=ORIENTED_EDGE('',*,*,#141,.F.);
#74=ORIENTED_EDGE('',*,*,#142,.F.);
#75=ORIENTED_EDGE('',*,*,#143,.F.);
#76=ORIENTED_EDGE('',*,*,#122,.F.);
#77=ORIENTED_EDGE('',*,*,#144,.T.);
#78=ORIENTED_EDGE('',*,*,#116,.T.);
#79=ORIENTED_EDGE('',*,*,#145,.T.);
#80=ORIENTED_EDGE('',*,*,#130,.T.);
#81=ORIENTED_EDGE('',*,*,#146,.T.);
#82=ORIENTED_EDGE('',*,*,#126,.F.);
#83=ORIENTED_EDGE('',*,*,#147,.T.);
#84=ORIENTED_EDGE('',*,*,#148,.T.);
#85=ORIENTED_EDGE('',*,*,#143,.T.);
#86=ORIENTED_EDGE('',*,*,#149,.T.);
#87=ORIENTED_EDGE('',*,*,#142,.T.);
#88=ORIENTED_EDGE('',*,*,#150,.T.);
#89=ORIENTED_EDGE('',*,*,#141,.T.);
#90=ORIENTED_EDGE('',*,*,#151,.T.);
#91=ORIENTED_EDGE('',*,*,#140,.T.);
#92=ORIENTED_EDGE('',*,*,#151,.F.);
#93=ORIENTED_EDGE('',*,*,#132,.F.);
#94=ORIENTED_EDGE('',*,*,#148,.F.);
#95=ORIENTED_EDGE('',*,*,#133,.F.);
#96=ORIENTED_EDGE('',*,*,#149,.F.);
#97=ORIENTED_EDGE('',*,*,#134,.F.);
#98=ORIENTED_EDGE('',*,*,#150,.F.);
#99=ORIENTED_EDGE('',*,*,#135,.F.);
#100=ORIENTED_EDGE('',*,*,#136,.F.);
#101=ORIENTED_EDGE('',*,*,#117,.F.);
#102=ORIENTED_EDGE('',*,*,#144,.F.);
#103=ORIENTED_EDGE('',*,*,#121,.F.);
#104=ORIENTED_EDGE('',*,*,#137,.F.);
#105=ORIENTED_EDGE('',*,*,#123,.F.);
#106=ORIENTED_EDGE('',*,*,#147,.F.);
#107=ORIENTED_EDGE('',*,*,#125,.F.);
#108=ORIENTED_EDGE('',*,*,#138,.F.);
#109=ORIENTED_EDGE('',*,*,#127,.F.);
#110=ORIENTED_EDGE('',*,*,#146,.F.);
#111=ORIENTED_EDGE('',*,*,#129,.F.);
#112=ORIENTED_EDGE('',*,*,#139,.F.);
#113=ORIENTED_EDGE('',*,*,#131,.F.);
#114=ORIENTED_EDGE('',*,*,#145,.F.);
#115=ORIENTED_EDGE('',*,*,#119,.F.);
#116=EDGE_CURVE('',#152,#153,#180,.T.);
#117=EDGE_CURVE('',#152,#154,#181,.F.);
#118=EDGE_CURVE('',#154,#155,#182,.T.);
#119=EDGE_CURVE('',#155,#153,#183,.T.);
#120=EDGE_CURVE('',#156,#157,#184,.T.);
#121=EDGE_CURVE('',#156,#158,#185,.T.);
#122=EDGE_CURVE('',#158,#159,#186,.T.);
#123=EDGE_CURVE('',#159,#157,#187,.F.);
#124=EDGE_CURVE('',#160,#161,#188,.T.);
#125=EDGE_CURVE('',#160,#162,#189,.T.);
#126=EDGE_CURVE('',#162,#163,#190,.T.);
#127=EDGE_CURVE('',#163,#161,#191,.F.);
#128=EDGE_CURVE('',#164,#165,#192,.T.);
#129=EDGE_CURVE('',#165,#166,#193,.T.);
#130=EDGE_CURVE('',#167,#166,#194,.T.);
#131=EDGE_CURVE('',#167,#164,#195,.F.);
#132=EDGE_CURVE('',#168,#168,#24,.F.);
#133=EDGE_CURVE('',#169,#169,#25,.F.);
#134=EDGE_CURVE('',#170,#170,#26,.F.);
#135=EDGE_CURVE('',#171,#171,#27,.F.);
#136=EDGE_CURVE('',#154,#156,#28,.T.);
#137=EDGE_CURVE('',#157,#160,#29,.T.);
#138=EDGE_CURVE('',#161,#165,#30,.T.);
#139=EDGE_CURVE('',#164,#155,#31,.T.);
#140=EDGE_CURVE('',#172,#172,#32,.T.);
#141=EDGE_CURVE('',#173,#173,#33,.T.);
#142=EDGE_CURVE('',#174,#174,#34,.T.);
#143=EDGE_CURVE('',#175,#175,#35,.T.);
#144=EDGE_CURVE('',#158,#152,#36,.F.);
#145=EDGE_CURVE('',#153,#167,#37,.F.);
#146=EDGE_CURVE('',#166,#163,#38,.F.);
#147=EDGE_CURVE('',#162,#159,#39,.F.);
#148=EDGE_CURVE('',#176,#176,#40,.T.);
#149=EDGE_CURVE('',#177,#177,#41,.T.);
#150=EDGE_CURVE('',#178,#178,#42,.T.);
#151=EDGE_CURVE('',#179,#179,#43,.T.);
#152=VERTEX_POINT('',#452);
#153=VERTEX_POINT('',#453);
#154=VERTEX_POINT('',#455);
#155=VERTEX_POINT('',#457);
#156=VERTEX_POINT('',#461);
#157=VERTEX_POINT('',#462);
#158=VERTEX_POINT('',#464);
#159=VERTEX_POINT('',#466);
#160=VERTEX_POINT('',#470);
#161=VERTEX_POINT('',#471);
#162=VERTEX_POINT('',#473);
#163=VERTEX_POINT('',#475);
#164=VERTEX_POINT('',#479);
#165=VERTEX_POINT('',#480);
#166=VERTEX_POINT('',#482);
#167=VERTEX_POINT('',#484);
#168=VERTEX_POINT('',#488);
#169=VERTEX_POINT('',#490);
#170=VERTEX_POINT('',#492);
#171=VERTEX_POINT('',#494);
#172=VERTEX_POINT('',#501);
#173=VERTEX_POINT('',#503);
#174=VERTEX_POINT('',#505);
#175=VERTEX_POINT('',#507);
#176=VERTEX_POINT('',#514);
#177=VERTEX_POINT('',#517);
#178=VERTEX_POINT('',#520);
#179=VERTEX_POINT('',#523);
#180=LINE('',#451,#196);
#181=LINE('',#454,#197);
#182=LINE('',#456,#198);
#183=LINE('',#458,#199);
#184=LINE('',#460,#200);
#185=LINE('',#463,#201);
#186=LINE('',#465,#202);
#187=LINE('',#467,#203);
#188=LINE('',#469,#204);
#189=LINE('',#472,#205);
#190=LINE('',#474,#206);
#191=LINE('',#476,#207);
#192=LINE('',#478,#208);
#193=LINE('',#481,#209);
#194=LINE('',#483,#210);
#195=LINE('',#485,#211);
#196=VECTOR('',#359,1000.);
#197=VECTOR('',#360,1000.);
#198=VECTOR('',#361,1000.);
#199=VECTOR('',#362,1000.);
#200=VECTOR('',#365,1000.);
#201=VECTOR('',#366,1000.);
#202=VECTOR('',#367,1000.);
#203=VECTOR('',#368,1000.);
#204=VECTOR('',#371,1000.);
#205=VECTOR('',#372,1000.);
#206=VECTOR('',#373,1000.);
#207=VECTOR('',#374,1000.);
#208=VECTOR('',#377,1000.);
#209=VECTOR('',#378,1000.);
#210=VECTOR('',#379,1000.);
#211=VECTOR('',#380,1000.);
#212=EDGE_LOOP('',(#44,#45,#46,#47));
#213=EDGE_LOOP('',(#48,#49,#50,#51));
#214=EDGE_LOOP('',(#52,#53,#54,#55));
#215=EDGE_LOOP('',(#56,#57,#58,#59));
#216=EDGE_LOOP('',(#60));
#217=EDGE_LOOP('',(#61));
#218=EDGE_LOOP('',(#62));
#219=EDGE_LOOP('',(#63));
#220=EDGE_LOOP('',(#64,#65,#66,#67,#68,#69,#70,#71));
#221=EDGE_LOOP('',(#72));
#222=EDGE_LOOP('',(#73));
#223=EDGE_LOOP('',(#74));
#224=EDGE_LOOP('',(#75));
#225=EDGE_LOOP('',(#76,#77,#78,#79,#80,#81,#82,#83));
#226=EDGE_LOOP('',(#84));
#227=EDGE_LOOP('',(#85));
#228=EDGE_LOOP('',(#86));
#229=EDGE_LOOP('',(#87));
#230=EDGE_LOOP('',(#88));
#231=EDGE_LOOP('',(#89));
#232=EDGE_LOOP('',(#90));
#233=EDGE_LOOP('',(#91));
#234=EDGE_LOOP('',(#92));
#235=EDGE_LOOP('',(#93));
#236=EDGE_LOOP('',(#94));
#237=EDGE_LOOP('',(#95));
#238=EDGE_LOOP('',(#96));
#239=EDGE_LOOP('',(#97));
#240=EDGE_LOOP('',(#98));
#241=EDGE_LOOP('',(#99));
#242=EDGE_LOOP('',(#100,#101,#102,#103));
#243=EDGE_LOOP('',(#104,#105,#106,#107));
#244=EDGE_LOOP('',(#108,#109,#110,#111));
#245=EDGE_LOOP('',(#112,#113,#114,#115));
#246=FACE_BOUND('',#212,.T.);
#247=FACE_BOUND('',#213,.T.);
#248=FACE_BOUND('',#214,.T.);
#249=FACE_BOUND('',#215,.T.);
#250=FACE_BOUND('',#216,.T.);
#251=FACE_BOUND('',#217,.T.);
#252=FACE_BOUND('',#218,.T.);
#253=FACE_BOUND('',#219,.T.);
#254=FACE_BOUND('',#220,.T.);
#255=FACE_BOUND('',#221,.T.);
#256=FACE_BOUND('',#222,.T.);
#257=FACE_BOUND('',#223,.T.);
#258=FACE_BOUND('',#224,.T.);
#259=FACE_BOUND('',#225,.T.);
#260=FACE_BOUND('',#226,.T.);
#261=FACE_BOUND('',#227,.T.);
#262=FACE_BOUND('',#228,.T.);
#263=FACE_BOUND('',#229,.T.);
#264=FACE_BOUND('',#230,.T.);
#265=FACE_BOUND('',#231,.T.);
#266=FACE_BOUND('',#232,.T.);
#267=FACE_BOUND('',#233,.T.);
#268=FACE_BOUND('',#234,.T.);
#269=FACE_BOUND('',#235,.T.);
#270=FACE_BOUND('',#236,.T.);
#271=FACE_BOUND('',#237,.T.);
#272=FACE_BOUND('',#238,.T.);
#273=FACE_BOUND('',#239,.T.);
#274=FACE_BOUND('',#240,.T.);
#275=FACE_BOUND('',#241,.T.);
#276=FACE_BOUND('',#242,.T.);
#277=FACE_BOUND('',#243,.T.);
#278=FACE_BOUND('',#244,.T.);
#279=FACE_BOUND('',#245,.T.);
#280=PLANE('',#317);
#281=PLANE('',#318);
#282=PLANE('',#319);
#283=PLANE('',#320);
#284=PLANE('',#321);
#285=PLANE('',#330);
#286=ADVANCED_FACE('',(#246),#280,.T.);
#287=ADVANCED_FACE('',(#247),#281,.F.);
#288=ADVANCED_FACE('',(#248),#282,.F.);
#289=ADVANCED_FACE('',(#249),#283,.T.);
#290=ADVANCED_FACE('',(#250,#251,#252,#253,#254),#284,.T.);
#291=ADVANCED_FACE('',(#255,#256,#257,#258,#259),#285,.F.);
#292=ADVANCED_FACE('',(#260,#261),#16,.F.);
#293=ADVANCED_FACE('',(#262,#263),#17,.F.);
#294=ADVANCED_FACE('',(#264,#265),#18,.F.);
#295=ADVANCED_FACE('',(#266,#267),#19,.F.);
#296=ADVANCED_FACE('',(#268,#269),#12,.T.);
#297=ADVANCED_FACE('',(#270,#271),#13,.T.);
#298=ADVANCED_FACE('',(#272,#273),#14,.T.);
#299=ADVANCED_FACE('',(#274,#275),#15,.T.);
#300=ADVANCED_FACE('',(#276),#20,.T.);
#301=ADVANCED_FACE('',(#277),#21,.T.);
#302=ADVANCED_FACE('',(#278),#22,.T.);
#303=ADVANCED_FACE('',(#279),#23,.T.);
#304=CLOSED_SHELL('',(#286,#287,#288,#289,#290,#291,#292,#293,#294,#295,
#296,#297,#298,#299,#300,#301,#302,#303));
#305=STYLED_ITEM('',(#306),#313);
#306=PRESENTATION_STYLE_ASSIGNMENT((#307));
#307=SURFACE_STYLE_USAGE(.BOTH.,#308);
#308=SURFACE_SIDE_STYLE('',(#309));
#309=SURFACE_STYLE_FILL_AREA(#310);
#310=FILL_AREA_STYLE('',(#311));
#311=FILL_AREA_STYLE_COLOUR('',#312);
#312=COLOUR_RGB('',0.647058823529412,0.647058823529412,0.647058823529412);
#313=MANIFOLD_SOLID_BREP('Part 2',#304);
#314=SHAPE_DEFINITION_REPRESENTATION(#538,#315);
#315=SHAPE_REPRESENTATION('Part 2',(#316),#533);
#316=AXIS2_PLACEMENT_3D('',#449,#355,#356);
#317=AXIS2_PLACEMENT_3D('',#450,#357,#358);
#318=AXIS2_PLACEMENT_3D('',#459,#363,#364);
#319=AXIS2_PLACEMENT_3D('',#468,#369,#370);
#320=AXIS2_PLACEMENT_3D('',#477,#375,#376);
#321=AXIS2_PLACEMENT_3D('',#486,#381,#382);
#322=AXIS2_PLACEMENT_3D('',#487,#383,#384);
#323=AXIS2_PLACEMENT_3D('',#489,#385,#386);
#324=AXIS2_PLACEMENT_3D('',#491,#387,#388);
#325=AXIS2_PLACEMENT_3D('',#493,#389,#390);
#326=AXIS2_PLACEMENT_3D('',#495,#391,#392);
#327=AXIS2_PLACEMENT_3D('',#496,#393,#394);
#328=AXIS2_PLACEMENT_3D('',#497,#395,#396);
#329=AXIS2_PLACEMENT_3D('',#498,#397,#398);
#330=AXIS2_PLACEMENT_3D('',#499,#399,#400);
#331=AXIS2_PLACEMENT_3D('',#500,#401,#402);
#332=AXIS2_PLACEMENT_3D('',#502,#403,#404);
#333=AXIS2_PLACEMENT_3D('',#504,#405,#406);
#334=AXIS2_PLACEMENT_3D('',#506,#407,#408);
#335=AXIS2_PLACEMENT_3D('',#508,#409,#410);
#336=AXIS2_PLACEMENT_3D('',#509,#411,#412);
#337=AXIS2_PLACEMENT_3D('',#510,#413,#414);
#338=AXIS2_PLACEMENT_3D('',#511,#415,#416);
#339=AXIS2_PLACEMENT_3D('',#512,#417,#418);
#340=AXIS2_PLACEMENT_3D('',#513,#419,#420);
#341=AXIS2_PLACEMENT_3D('',#515,#421,#422);
#342=AXIS2_PLACEMENT_3D('',#516,#423,#424);
#343=AXIS2_PLACEMENT_3D('',#518,#425,#426);
#344=AXIS2_PLACEMENT_3D('',#519,#427,#428);
#345=AXIS2_PLACEMENT_3D('',#521,#429,#430);
#346=AXIS2_PLACEMENT_3D('',#522,#431,#432);
#347=AXIS2_PLACEMENT_3D('',#524,#433,#434);
#348=AXIS2_PLACEMENT_3D('',#525,#435,#436);
#349=AXIS2_PLACEMENT_3D('',#526,#437,#438);
#350=AXIS2_PLACEMENT_3D('',#527,#439,#440);
#351=AXIS2_PLACEMENT_3D('',#528,#441,#442);
#352=AXIS2_PLACEMENT_3D('',#529,#443,#444);
#353=AXIS2_PLACEMENT_3D('',#530,#445,#446);
#354=AXIS2_PLACEMENT_3D('',#531,#447,#448);
#355=DIRECTION('',(0.,0.,1.));
#356=DIRECTION('',(1.,0.,0.));
#357=DIRECTION('',(-1.,0.,0.));
#358=DIRECTION('',(0.,0.,1.));
#359=DIRECTION('',(0.,1.,0.));
#360=DIRECTION('',(0.,0.,-1.));
#361=DIRECTION('',(0.,1.,0.));
#362=DIRECTION('',(0.,0.,-1.));
#363=DIRECTION('',(0.,1.,0.));
#364=DIRECTION('',(0.,0.,1.));
#365=DIRECTION('',(1.,0.,0.));
#366=DIRECTION('',(0.,0.,-1.));
#367=DIRECTION('',(1.,0.,0.));
#368=DIRECTION('',(0.,0.,-1.));
#369=DIRECTION('',(-1.,0.,0.));
#370=DIRECTION('',(0.,0.,1.));
#371=DIRECTION('',(0.,1.,0.));
#372=DIRECTION('',(0.,0.,-1.));
#373=DIRECTION('',(0.,1.,0.));
#374=DIRECTION('',(0.,0.,-1.));
#375=DIRECTION('',(0.,1.,0.));
#376=DIRECTION('',(0.,0.,1.));
#377=DIRECTION('',(1.,0.,0.));
#378=DIRECTION('',(0.,0.,-1.));
#379=DIRECTION('',(1.,0.,0.));
#380=DIRECTION('',(0.,0.,-1.));
#381=DIRECTION('',(0.,0.,1.));
#382=DIRECTION('',(1.,0.,0.));
#383=DIRECTION('',(0.,0.,1.));
#384=DIRECTION('',(1.,0.,0.));
#385=DIRECTION('',(0.,0.,1.));
#386=DIRECTION('',(1.,0.,0.));
#387=DIRECTION('',(0.,0.,1.));
#388=DIRECTION('',(1.,0.,0.));
#389=DIRECTION('',(0.,0.,1.));
#390=DIRECTION('',(1.,0.,0.));
#391=DIRECTION('',(0.,0.,1.));
#392=DIRECTION('',(1.,0.,0.));
#393=DIRECTION('',(0.,0.,1.));
#394=DIRECTION('',(1.,0.,0.));
#395=DIRECTION('',(0.,0.,1.));
#396=DIRECTION('',(1.,0.,0.));
#397=DIRECTION('',(0.,0.,1.));
#398=DIRECTION('',(1.,0.,0.));
#399=DIRECTION('',(0.,0.,1.));
#400=DIRECTION('',(1.,0.,0.));
#401=DIRECTION('',(0.,0.,-1.));
#402=DIRECTION('',(-1.,0.,0.));
#403=DIRECTION('',(0.,0.,-1.));
#404=DIRECTION('',(-1.,0.,0.));
#405=DIRECTION('',(0.,0.,-1.));
#406=DIRECTION('',(-1.,0.,0.));
#407=DIRECTION('',(0.,0.,-1.));
#408=DIRECTION('',(-1.,0.,0.));
#409=DIRECTION('',(0.,0.,1.));
#410=DIRECTION('',(1.,0.,0.));
#411=DIRECTION('',(0.,0.,1.));
#412=DIRECTION('',(1.,0.,0.));
#413=DIRECTION('',(0.,0.,1.));
#414=DIRECTION('',(1.,0.,0.));
#415=DIRECTION('',(0.,0.,1.));
#416=DIRECTION('',(1.,0.,0.));
#417=DIRECTION('',(0.,0.,-1.));
#418=DIRECTION('',(-1.,0.,0.));
#419=DIRECTION('',(0.,0.,1.));
#420=DIRECTION('',(1.,0.,0.));
#421=DIRECTION('',(0.,0.,-1.));
#422=DIRECTION('',(-1.,0.,0.));
#423=DIRECTION('',(0.,0.,1.));
#424=DIRECTION('',(1.,0.,0.));
#425=DIRECTION('',(0.,0.,-1.));
#426=DIRECTION('',(-1.,0.,0.));
#427=DIRECTION('',(0.,0.,1.));
#428=DIRECTION('',(1.,0.,0.));
#429=DIRECTION('',(0.,0.,-1.));
#430=DIRECTION('',(-1.,0.,0.));
#431=DIRECTION('',(0.,0.,1.));
#432=DIRECTION('',(1.,0.,0.));
#433=DIRECTION('',(0.,0.,1.));
#434=DIRECTION('',(1.,0.,0.));
#435=DIRECTION('',(0.,0.,1.));
#436=DIRECTION('',(1.,0.,0.));
#437=DIRECTION('',(0.,0.,1.));
#438=DIRECTION('',(1.,0.,0.));
#439=DIRECTION('',(0.,0.,1.));
#440=DIRECTION('',(1.,0.,0.));
#441=DIRECTION('',(0.,0.,1.));
#442=DIRECTION('',(1.,0.,0.));
#443=DIRECTION('',(0.,0.,-1.));
#444=DIRECTION('',(-1.,0.,0.));
#445=DIRECTION('',(0.,0.,1.));
#446=DIRECTION('',(1.,0.,0.));
#447=DIRECTION('',(0.,0.,-1.));
#448=DIRECTION('',(-1.,0.,0.));
#449=CARTESIAN_POINT('',(0.,0.,0.));
#450=CARTESIAN_POINT('',(-159.709886834025,-70.5406566796851,3.));
#451=CARTESIAN_POINT('',(-159.709886834025,-70.5406566796851,0.));
#452=CARTESIAN_POINT('',(-159.709886834025,-108.540656679685,0.));
#453=CARTESIAN_POINT('',(-159.709886834025,-32.5406566796851,0.));
#454=CARTESIAN_POINT('',(-159.709886834025,-108.540656679685,3.));
#455=CARTESIAN_POINT('',(-159.709886834025,-108.540656679685,3.));
#456=CARTESIAN_POINT('',(-159.709886834025,-70.5406566796851,3.));
#457=CARTESIAN_POINT('',(-159.709886834025,-32.5406566796851,3.));
#458=CARTESIAN_POINT('',(-159.709886834025,-32.5406566796851,3.));
#459=CARTESIAN_POINT('',(-109.709886834025,-110.540656679685,3.));
#460=CARTESIAN_POINT('',(-109.709886834025,-110.540656679685,3.));
#461=CARTESIAN_POINT('',(-157.709886834025,-110.540656679685,3.));
#462=CARTESIAN_POINT('',(-61.7098868340254,-110.540656679685,3.));
#463=CARTESIAN_POINT('',(-157.709886834025,-110.540656679685,0.));
#464=CARTESIAN_POINT('',(-157.709886834025,-110.540656679685,0.));
#465=CARTESIAN_POINT('',(-109.709886834025,-110.540656679685,0.));
#466=CARTESIAN_POINT('',(-61.7098868340254,-110.540656679685,0.));
#467=CARTESIAN_POINT('',(-61.7098868340254,-110.540656679685,3.));
#468=CARTESIAN_POINT('',(-59.7098868340254,-70.5406566796851,3.));
#469=CARTESIAN_POINT('',(-59.7098868340254,-70.5406566796851,3.));
#470=CARTESIAN_POINT('',(-59.7098868340254,-108.540656679685,3.));
#471=CARTESIAN_POINT('',(-59.7098868340254,-32.5406566796851,3.));
#472=CARTESIAN_POINT('',(-59.7098868340254,-108.540656679685,3.));
#473=CARTESIAN_POINT('',(-59.7098868340254,-108.540656679685,0.));
#474=CARTESIAN_POINT('',(-59.7098868340254,-70.5406566796851,0.));
#475=CARTESIAN_POINT('',(-59.7098868340254,-32.5406566796851,0.));
#476=CARTESIAN_POINT('',(-59.7098868340254,-32.5406566796851,3.));
#477=CARTESIAN_POINT('',(-109.709886834025,-30.5406566796851,3.));
#478=CARTESIAN_POINT('',(-109.709886834025,-30.5406566796851,3.));
#479=CARTESIAN_POINT('',(-157.709886834025,-30.5406566796851,3.));
#480=CARTESIAN_POINT('',(-61.7098868340254,-30.5406566796851,3.));
#481=CARTESIAN_POINT('',(-61.7098868340254,-30.5406566796851,0.));
#482=CARTESIAN_POINT('',(-61.7098868340254,-30.5406566796851,0.));
#483=CARTESIAN_POINT('',(-109.709886834025,-30.5406566796851,0.));
#484=CARTESIAN_POINT('',(-157.709886834025,-30.5406566796851,0.));
#485=CARTESIAN_POINT('',(-157.709886834025,-30.5406566796851,3.));
#486=CARTESIAN_POINT('',(-109.709886834025,-70.5406566796851,3.));
#487=CARTESIAN_POINT('',(-154.709886834025,-105.540656679685,3.));
#488=CARTESIAN_POINT('',(-151.209886834025,-105.540656679685,3.));
#489=CARTESIAN_POINT('',(-64.7098868340254,-105.540656679685,3.));
#490=CARTESIAN_POINT('',(-61.2098868340254,-105.540656679685,3.));
#491=CARTESIAN_POINT('',(-64.7098868340254,-35.5406566796851,3.));
#492=CARTESIAN_POINT('',(-61.2098868340254,-35.5406566796851,3.));
#493=CARTESIAN_POINT('',(-154.709886834025,-35.5406566796851,3.));
#494=CARTESIAN_POINT('',(-151.209886834025,-35.5406566796851,3.));
#495=CARTESIAN_POINT('',(-157.709886834025,-108.540656679685,3.));
#496=CARTESIAN_POINT('',(-61.7098868340254,-108.540656679685,3.));
#497=CARTESIAN_POINT('',(-61.7098868340254,-32.5406566796851,3.));
#498=CARTESIAN_POINT('',(-157.709886834025,-32.5406566796851,3.));
#499=CARTESIAN_POINT('',(-109.709886834025,-70.5406566796851,0.));
#500=CARTESIAN_POINT('',(-154.709886834025,-105.540656679685,0.));
#501=CARTESIAN_POINT('',(-156.209886834025,-105.540656679685,0.));
#502=CARTESIAN_POINT('',(-154.709886834025,-35.5406566796851,0.));
#503=CARTESIAN_POINT('',(-156.209886834025,-35.5406566796851,0.));
#504=CARTESIAN_POINT('',(-64.7098868340254,-35.5406566796851,0.));
#505=CARTESIAN_POINT('',(-66.2098868340254,-35.5406566796851,0.));
#506=CARTESIAN_POINT('',(-64.7098868340254,-105.540656679685,0.));
#507=CARTESIAN_POINT('',(-66.2098868340254,-105.540656679685,0.));
#508=CARTESIAN_POINT('',(-157.709886834025,-108.540656679685,0.));
#509=CARTESIAN_POINT('',(-157.709886834025,-32.5406566796851,0.));
#510=CARTESIAN_POINT('',(-61.7098868340254,-32.5406566796851,0.));
#511=CARTESIAN_POINT('',(-61.7098868340254,-108.540656679685,0.));
#512=CARTESIAN_POINT('',(-64.7098868340254,-105.540656679685,3.));
#513=CARTESIAN_POINT('',(-64.7098868340254,-105.540656679685,1.));
#514=CARTESIAN_POINT('',(-63.2098868340254,-105.540656679685,1.));
#515=CARTESIAN_POINT('',(-64.7098868340254,-35.5406566796851,3.));
#516=CARTESIAN_POINT('',(-64.7098868340254,-35.5406566796851,1.));
#517=CARTESIAN_POINT('',(-63.2098868340254,-35.5406566796851,1.));
#518=CARTESIAN_POINT('',(-154.709886834025,-35.5406566796851,3.));
#519=CARTESIAN_POINT('',(-154.709886834025,-35.5406566796851,1.));
#520=CARTESIAN_POINT('',(-153.209886834025,-35.5406566796851,1.));
#521=CARTESIAN_POINT('',(-154.709886834025,-105.540656679685,3.));
#522=CARTESIAN_POINT('',(-154.709886834025,-105.540656679685,1.));
#523=CARTESIAN_POINT('',(-153.209886834025,-105.540656679685,1.));
#524=CARTESIAN_POINT('',(-154.709886834025,-105.540656679685,1.));
#525=CARTESIAN_POINT('',(-64.7098868340254,-105.540656679685,1.));
#526=CARTESIAN_POINT('',(-64.7098868340254,-35.5406566796851,1.));
#527=CARTESIAN_POINT('',(-154.709886834025,-35.5406566796851,1.));
#528=CARTESIAN_POINT('',(-157.709886834025,-108.540656679685,3.));
#529=CARTESIAN_POINT('',(-61.7098868340254,-108.540656679685,3.));
#530=CARTESIAN_POINT('',(-61.7098868340254,-32.5406566796851,3.));
#531=CARTESIAN_POINT('',(-157.709886834025,-32.5406566796851,3.));
#532=MECHANICAL_DESIGN_GEOMETRIC_PRESENTATION_REPRESENTATION('',(#305),
#533);
#533=(
GEOMETRIC_REPRESENTATION_CONTEXT(3)
GLOBAL_UNCERTAINTY_ASSIGNED_CONTEXT((#534))
GLOBAL_UNIT_ASSIGNED_CONTEXT((#537,#536,#535))
REPRESENTATION_CONTEXT('Part 2','TOP_LEVEL_ASSEMBLY_PART')
);
#534=UNCERTAINTY_MEASURE_WITH_UNIT(LENGTH_MEASURE(1.E-5),#537,
'DISTANCE_ACCURACY_VALUE','Maximum Tolerance applied to model');
#535=(
NAMED_UNIT(*)
SI_UNIT($,.STERADIAN.)
SOLID_ANGLE_UNIT()
);
#536=(
NAMED_UNIT(*)
PLANE_ANGLE_UNIT()
SI_UNIT($,.RADIAN.)
);
#537=(
LENGTH_UNIT()
NAMED_UNIT(*)
SI_UNIT(.MILLI.,.METRE.)
);
#538=PRODUCT_DEFINITION_SHAPE('','',#539);
#539=PRODUCT_DEFINITION('','',#541,#540);
#540=PRODUCT_DEFINITION_CONTEXT('',#547,'design');
#541=PRODUCT_DEFINITION_FORMATION_WITH_SPECIFIED_SOURCE('','',#543,
 .NOT_KNOWN.);
#542=PRODUCT_RELATED_PRODUCT_CATEGORY('','',(#543));
#543=PRODUCT('Part 2','Part 2','Part 2',(#545));
#544=PRODUCT_CATEGORY('','');
#545=PRODUCT_CONTEXT('',#547,'mechanical');
#546=APPLICATION_PROTOCOL_DEFINITION('international standard',
'ap242_managed_model_based_3d_engineering',2020,#547);
#547=APPLICATION_CONTEXT('managed model based 3d engineering');
ENDSEC;
END-ISO-10303-21;
